solid Base_Default_sldprt
   facet normal -5.000000e-001 -8.660254e-001 0.000000e+000
      outer loop
         vertex -6.576488e+001 -3.417546e+002 0.000000e+000
         vertex -6.576488e+001 -3.417546e+002 5.000000e+000
         vertex -6.744917e+001 -3.407821e+002 5.000000e+000
      endloop
   endfacet
   facet normal -5.000000e-001 -8.660254e-001 0.000000e+000
      outer loop
         vertex -6.744917e+001 -3.407821e+002 5.000000e+000
         vertex -1.413867e+002 -2.980943e+002 5.000000e+000
         vertex -6.576488e+001 -3.417546e+002 0.000000e+000
      endloop
   endfacet
   facet normal -5.000000e-001 -8.660254e-001 0.000000e+000
      outer loop
         vertex -6.576488e+001 -3.417546e+002 0.000000e+000
         vertex -1.413867e+002 -2.980943e+002 5.000000e+000
         vertex -2.221206e+002 -2.514826e+002 5.000000e+000
      endloop
   endfacet
   facet normal -5.000000e-001 -8.660254e-001 0.000000e+000
      outer loop
         vertex -6.576488e+001 -3.417546e+002 0.000000e+000
         vertex -2.221206e+002 -2.514826e+002 5.000000e+000
         vertex -3.954763e+002 -1.513956e+002 0.000000e+000
      endloop
   endfacet
   facet normal -5.000000e-001 -8.660254e-001 0.000000e+000
      outer loop
         vertex -3.954763e+002 -1.513956e+002 0.000000e+000
         vertex -2.221206e+002 -2.514826e+002 5.000000e+000
         vertex -2.777712e+002 -2.193527e+002 5.000000e+000
      endloop
   endfacet
   facet normal -5.000000e-001 -8.660254e-001 0.000000e+000
      outer loop
         vertex -3.954763e+002 -1.513956e+002 0.000000e+000
         vertex -2.777712e+002 -2.193527e+002 5.000000e+000
         vertex -3.954763e+002 -1.513956e+002 5.000000e+000
      endloop
   endfacet
   facet normal 1.000000e+000 -1.002146e-016 0.000000e+000
      outer loop
         vertex 9.235124e+000 -2.980943e+002 5.000000e+000
         vertex 9.235124e+000 -2.984533e+002 5.000000e+000
         vertex 9.235124e+000 -2.984533e+002 0.000000e+000
      endloop
   endfacet
   facet normal 1.000000e+000 -1.002146e-016 0.000000e+000
      outer loop
         vertex 9.235124e+000 8.226466e+001 0.000000e+000
         vertex 9.235124e+000 8.226466e+001 5.000000e+000
         vertex 9.235124e+000 8.190568e+001 5.000000e+000
      endloop
   endfacet
   facet normal 1.000000e+000 -1.002146e-016 0.000000e+000
      outer loop
         vertex 9.235124e+000 8.190568e+001 5.000000e+000
         vertex 9.235124e+000 3.164005e+000 5.000000e+000
         vertex 9.235124e+000 8.226466e+001 0.000000e+000
      endloop
   endfacet
   facet normal 1.000000e+000 -1.002146e-016 0.000000e+000
      outer loop
         vertex 9.235124e+000 8.226466e+001 0.000000e+000
         vertex 9.235124e+000 3.164005e+000 5.000000e+000
         vertex 9.235124e+000 -1.080943e+002 5.000000e+000
      endloop
   endfacet
   facet normal 1.000000e+000 -1.002146e-016 0.000000e+000
      outer loop
         vertex 9.235124e+000 8.226466e+001 0.000000e+000
         vertex 9.235124e+000 -1.080943e+002 5.000000e+000
         vertex 9.235124e+000 -2.984533e+002 0.000000e+000
      endloop
   endfacet
   facet normal 1.000000e+000 -1.002146e-016 0.000000e+000
      outer loop
         vertex 9.235124e+000 -2.984533e+002 0.000000e+000
         vertex 9.235124e+000 -1.080943e+002 5.000000e+000
         vertex 9.235124e+000 -2.193527e+002 5.000000e+000
      endloop
   endfacet
   facet normal 1.000000e+000 -1.002146e-016 0.000000e+000
      outer loop
         vertex 9.235124e+000 -2.984533e+002 0.000000e+000
         vertex 9.235124e+000 -2.193527e+002 5.000000e+000
         vertex 9.235124e+000 -2.980943e+002 5.000000e+000
      endloop
   endfacet
   facet normal -5.000000e-001 8.660254e-001 0.000000e+000
      outer loop
         vertex -3.954763e+002 -6.479306e+001 5.000000e+000
         vertex -2.777712e+002 3.164005e+000 5.000000e+000
         vertex -3.954763e+002 -6.479306e+001 -1.734723e-015
      endloop
   endfacet
   facet normal -5.000000e-001 8.660254e-001 0.000000e+000
      outer loop
         vertex -3.954763e+002 -6.479306e+001 -1.734723e-015
         vertex -2.777712e+002 3.164005e+000 5.000000e+000
         vertex -2.221206e+002 3.529391e+001 5.000000e+000
      endloop
   endfacet
   facet normal -5.000000e-001 8.660254e-001 0.000000e+000
      outer loop
         vertex -3.954763e+002 -6.479306e+001 -1.734723e-015
         vertex -2.221206e+002 3.529391e+001 5.000000e+000
         vertex -6.576488e+001 1.255659e+002 -1.734723e-015
      endloop
   endfacet
   facet normal -5.000000e-001 8.660254e-001 0.000000e+000
      outer loop
         vertex -6.576488e+001 1.255659e+002 -1.734723e-015
         vertex -2.221206e+002 3.529391e+001 5.000000e+000
         vertex -1.413867e+002 8.190568e+001 5.000000e+000
      endloop
   endfacet
   facet normal -5.000000e-001 8.660254e-001 0.000000e+000
      outer loop
         vertex -6.576488e+001 1.255659e+002 -1.734723e-015
         vertex -1.413867e+002 8.190568e+001 5.000000e+000
         vertex -6.576488e+001 1.255659e+002 5.000000e+000
      endloop
   endfacet
   facet normal 0.000000e+000 0.000000e+000 1.000000e+000
      outer loop
         vertex -6.406615e+001 -3.080943e+002 5.000000e+000
         vertex -5.973602e+001 -3.105943e+002 5.000000e+000
         vertex -4.025045e+001 -2.980943e+002 5.000000e+000
      endloop
   endfacet
   facet normal 0.000000e+000 0.000000e+000 1.000000e+000
      outer loop
         vertex -8.625495e+000 -3.367556e+002 5.000000e+000
         vertex -2.462654e+000 -3.305927e+002 5.000000e+000
         vertex -4.025045e+001 -2.980943e+002 5.000000e+000
      endloop
   endfacet
   facet normal 0.000000e+000 0.000000e+000 1.000000e+000
      outer loop
         vertex -4.025045e+001 -2.980943e+002 5.000000e+000
         vertex -2.462654e+000 -3.305927e+002 5.000000e+000
         vertex 2.536394e+000 -3.234533e+002 5.000000e+000
      endloop
   endfacet
   facet normal 0.000000e+000 0.000000e+000 1.000000e+000
      outer loop
         vertex -4.025045e+001 -2.980943e+002 5.000000e+000
         vertex 2.536394e+000 -3.234533e+002 5.000000e+000
         vertex 6.219755e+000 -3.155543e+002 5.000000e+000
      endloop
   endfacet
   facet normal 0.000000e+000 0.000000e+000 1.000000e+000
      outer loop
         vertex 6.219755e+000 -3.155543e+002 5.000000e+000
         vertex 8.475512e+000 -3.071357e+002 5.000000e+000
         vertex -4.025045e+001 -2.980943e+002 5.000000e+000
      endloop
   endfacet
   facet normal 0.000000e+000 0.000000e+000 1.000000e+000
      outer loop
         vertex -4.025045e+001 -2.980943e+002 5.000000e+000
         vertex 8.475512e+000 -3.071357e+002 5.000000e+000
         vertex 9.235124e+000 -2.984533e+002 5.000000e+000
      endloop
   endfacet
   facet normal 0.000000e+000 0.000000e+000 1.000000e+000
      outer loop
         vertex -4.025045e+001 -2.980943e+002 5.000000e+000
         vertex 9.235124e+000 -2.984533e+002 5.000000e+000
         vertex 9.235124e+000 -2.980943e+002 5.000000e+000
      endloop
   endfacet
   facet normal 0.000000e+000 0.000000e+000 1.000000e+000
      outer loop
         vertex -3.208247e+001 -3.476937e+002 5.000000e+000
         vertex -2.366387e+001 -3.454380e+002 5.000000e+000
         vertex -4.025045e+001 -3.407821e+002 5.000000e+000
      endloop
   endfacet
   facet normal 0.000000e+000 0.000000e+000 1.000000e+000
      outer loop
         vertex -4.025045e+001 -3.407821e+002 5.000000e+000
         vertex -2.366387e+001 -3.454380e+002 5.000000e+000
         vertex -1.576488e+001 -3.417546e+002 5.000000e+000
      endloop
   endfacet
   facet normal 0.000000e+000 0.000000e+000 1.000000e+000
      outer loop
         vertex -4.025045e+001 -3.407821e+002 5.000000e+000
         vertex -1.576488e+001 -3.417546e+002 5.000000e+000
         vertex -1.437610e+001 -3.407821e+002 5.000000e+000
      endloop
   endfacet
   facet normal 0.000000e+000 0.000000e+000 1.000000e+000
      outer loop
         vertex -6.744917e+001 -3.407821e+002 5.000000e+000
         vertex -6.576488e+001 -3.417546e+002 5.000000e+000
         vertex -4.025045e+001 -3.407821e+002 5.000000e+000
      endloop
   endfacet
   facet normal 0.000000e+000 0.000000e+000 1.000000e+000
      outer loop
         vertex -4.025045e+001 -3.407821e+002 5.000000e+000
         vertex -6.576488e+001 -3.417546e+002 5.000000e+000
         vertex -5.786588e+001 -3.454380e+002 5.000000e+000
      endloop
   endfacet
   facet normal 0.000000e+000 0.000000e+000 1.000000e+000
      outer loop
         vertex -4.025045e+001 -3.407821e+002 5.000000e+000
         vertex -5.786588e+001 -3.454380e+002 5.000000e+000
         vertex -4.944728e+001 -3.476937e+002 5.000000e+000
      endloop
   endfacet
   facet normal 0.000000e+000 0.000000e+000 1.000000e+000
      outer loop
         vertex -4.944728e+001 -3.476937e+002 5.000000e+000
         vertex -4.076488e+001 -3.484533e+002 5.000000e+000
         vertex -4.025045e+001 -3.407821e+002 5.000000e+000
      endloop
   endfacet
   facet normal 0.000000e+000 0.000000e+000 1.000000e+000
      outer loop
         vertex -4.025045e+001 -3.407821e+002 5.000000e+000
         vertex -4.076488e+001 -3.484533e+002 5.000000e+000
         vertex -4.025045e+001 -3.484083e+002 5.000000e+000
      endloop
   endfacet
   facet normal 0.000000e+000 0.000000e+000 1.000000e+000
      outer loop
         vertex -4.025045e+001 -3.407821e+002 5.000000e+000
         vertex -4.025045e+001 -3.484083e+002 5.000000e+000
         vertex -3.208247e+001 -3.476937e+002 5.000000e+000
      endloop
   endfacet
   facet normal 0.000000e+000 0.000000e+000 1.000000e+000
      outer loop
         vertex -1.413867e+002 -2.980943e+002 5.000000e+000
         vertex -6.744917e+001 -3.407821e+002 5.000000e+000
         vertex -7.706615e+001 -3.306110e+002 5.000000e+000
      endloop
   endfacet
   facet normal 0.000000e+000 0.000000e+000 1.000000e+000
      outer loop
         vertex -7.706615e+001 -3.306110e+002 5.000000e+000
         vertex -6.744917e+001 -3.407821e+002 5.000000e+000
         vertex -7.273602e+001 -3.331110e+002 5.000000e+000
      endloop
   endfacet
   facet normal 0.000000e+000 0.000000e+000 1.000000e+000
      outer loop
         vertex -7.273602e+001 -3.331110e+002 5.000000e+000
         vertex -6.744917e+001 -3.407821e+002 5.000000e+000
         vertex -5.973602e+001 -3.105943e+002 5.000000e+000
      endloop
   endfacet
   facet normal 0.000000e+000 0.000000e+000 1.000000e+000
      outer loop
         vertex -5.973602e+001 -3.105943e+002 5.000000e+000
         vertex -6.744917e+001 -3.407821e+002 5.000000e+000
         vertex -4.025045e+001 -3.407821e+002 5.000000e+000
      endloop
   endfacet
   facet normal 0.000000e+000 0.000000e+000 1.000000e+000
      outer loop
         vertex -5.973602e+001 -3.105943e+002 5.000000e+000
         vertex -4.025045e+001 -3.407821e+002 5.000000e+000
         vertex -4.025045e+001 -2.980943e+002 5.000000e+000
      endloop
   endfacet
   facet normal 0.000000e+000 0.000000e+000 1.000000e+000
      outer loop
         vertex -4.025045e+001 -2.980943e+002 5.000000e+000
         vertex -4.025045e+001 -3.407821e+002 5.000000e+000
         vertex -1.437610e+001 -3.407821e+002 5.000000e+000
      endloop
   endfacet
   facet normal 0.000000e+000 0.000000e+000 1.000000e+000
      outer loop
         vertex -4.025045e+001 -2.980943e+002 5.000000e+000
         vertex -1.437610e+001 -3.407821e+002 5.000000e+000
         vertex -8.625495e+000 -3.367556e+002 5.000000e+000
      endloop
   endfacet
   facet normal 0.000000e+000 0.000000e+000 1.000000e+000
      outer loop
         vertex -2.221206e+002 -2.514826e+002 5.000000e+000
         vertex -1.413867e+002 -2.980943e+002 5.000000e+000
         vertex -4.025045e+001 -2.193527e+002 5.000000e+000
      endloop
   endfacet
   facet normal 0.000000e+000 0.000000e+000 1.000000e+000
      outer loop
         vertex -2.777712e+002 -2.193527e+002 5.000000e+000
         vertex -2.221206e+002 -2.193527e+002 5.000000e+000
         vertex -2.221206e+002 -1.080943e+002 5.000000e+000
      endloop
   endfacet
   facet normal 0.000000e+000 0.000000e+000 1.000000e+000
      outer loop
         vertex -2.221206e+002 -1.080943e+002 5.000000e+000
         vertex -4.024907e+002 -1.080943e+002 5.000000e+000
         vertex -3.715052e+002 -1.305943e+002 5.000000e+000
      endloop
   endfacet
   facet normal 0.000000e+000 0.000000e+000 1.000000e+000
      outer loop
         vertex -3.954763e+002 -1.513956e+002 5.000000e+000
         vertex -2.777712e+002 -2.193527e+002 5.000000e+000
         vertex -3.801750e+002 -1.556110e+002 5.000000e+000
      endloop
   endfacet
   facet normal 0.000000e+000 0.000000e+000 1.000000e+000
      outer loop
         vertex -3.801750e+002 -1.556110e+002 5.000000e+000
         vertex -2.777712e+002 -2.193527e+002 5.000000e+000
         vertex -2.221206e+002 -1.080943e+002 5.000000e+000
      endloop
   endfacet
   facet normal 0.000000e+000 0.000000e+000 1.000000e+000
      outer loop
         vertex -3.801750e+002 -1.556110e+002 5.000000e+000
         vertex -2.221206e+002 -1.080943e+002 5.000000e+000
         vertex -3.671750e+002 -1.330943e+002 5.000000e+000
      endloop
   endfacet
   facet normal 0.000000e+000 0.000000e+000 1.000000e+000
      outer loop
         vertex -3.671750e+002 -1.330943e+002 5.000000e+000
         vertex -2.221206e+002 -1.080943e+002 5.000000e+000
         vertex -3.715052e+002 -1.305943e+002 5.000000e+000
      endloop
   endfacet
   facet normal 0.000000e+000 0.000000e+000 1.000000e+000
      outer loop
         vertex -3.801750e+002 -1.556110e+002 5.000000e+000
         vertex -3.845052e+002 -1.531110e+002 5.000000e+000
         vertex -3.954763e+002 -1.513956e+002 5.000000e+000
      endloop
   endfacet
   facet normal 0.000000e+000 0.000000e+000 1.000000e+000
      outer loop
         vertex -3.954763e+002 -1.513956e+002 5.000000e+000
         vertex -3.845052e+002 -1.531110e+002 5.000000e+000
         vertex -3.715052e+002 -1.305943e+002 5.000000e+000
      endloop
   endfacet
   facet normal 0.000000e+000 0.000000e+000 1.000000e+000
      outer loop
         vertex -3.954763e+002 -1.513956e+002 5.000000e+000
         vertex -3.715052e+002 -1.305943e+002 5.000000e+000
         vertex -4.024907e+002 -1.464841e+002 5.000000e+000
      endloop
   endfacet
   facet normal 0.000000e+000 0.000000e+000 1.000000e+000
      outer loop
         vertex -4.024907e+002 -1.464841e+002 5.000000e+000
         vertex -3.715052e+002 -1.305943e+002 5.000000e+000
         vertex -4.024907e+002 -1.080943e+002 5.000000e+000
      endloop
   endfacet
   facet normal 0.000000e+000 0.000000e+000 1.000000e+000
      outer loop
         vertex -4.024907e+002 -1.464841e+002 5.000000e+000
         vertex -4.024907e+002 -1.080943e+002 5.000000e+000
         vertex -4.026157e+002 -1.463965e+002 5.000000e+000
      endloop
   endfacet
   facet normal 0.000000e+000 0.000000e+000 1.000000e+000
      outer loop
         vertex -4.024907e+002 -1.080943e+002 5.000000e+000
         vertex -4.197167e+002 -1.167767e+002 5.000000e+000
         vertex -4.174609e+002 -1.251953e+002 5.000000e+000
      endloop
   endfacet
   facet normal 0.000000e+000 0.000000e+000 1.000000e+000
      outer loop
         vertex -4.174609e+002 -1.251953e+002 5.000000e+000
         vertex -4.137776e+002 -1.330943e+002 5.000000e+000
         vertex -4.024907e+002 -1.080943e+002 5.000000e+000
      endloop
   endfacet
   facet normal 0.000000e+000 0.000000e+000 1.000000e+000
      outer loop
         vertex -4.024907e+002 -1.080943e+002 5.000000e+000
         vertex -4.137776e+002 -1.330943e+002 5.000000e+000
         vertex -4.087785e+002 -1.402337e+002 5.000000e+000
      endloop
   endfacet
   facet normal 0.000000e+000 0.000000e+000 1.000000e+000
      outer loop
         vertex -4.024907e+002 -1.080943e+002 5.000000e+000
         vertex -4.087785e+002 -1.402337e+002 5.000000e+000
         vertex -4.026157e+002 -1.463965e+002 5.000000e+000
      endloop
   endfacet
   facet normal 0.000000e+000 0.000000e+000 1.000000e+000
      outer loop
         vertex -4.174609e+002 -9.099332e+001 5.000000e+000
         vertex -4.197167e+002 -9.941192e+001 5.000000e+000
         vertex -4.024907e+002 -1.080943e+002 5.000000e+000
      endloop
   endfacet
   facet normal 0.000000e+000 0.000000e+000 1.000000e+000
      outer loop
         vertex -4.024907e+002 -1.080943e+002 5.000000e+000
         vertex -4.197167e+002 -9.941192e+001 5.000000e+000
         vertex -4.204763e+002 -1.080943e+002 5.000000e+000
      endloop
   endfacet
   facet normal 0.000000e+000 0.000000e+000 1.000000e+000
      outer loop
         vertex -4.024907e+002 -1.080943e+002 5.000000e+000
         vertex -4.204763e+002 -1.080943e+002 5.000000e+000
         vertex -4.197167e+002 -1.167767e+002 5.000000e+000
      endloop
   endfacet
   facet normal 0.000000e+000 0.000000e+000 1.000000e+000
      outer loop
         vertex -4.024907e+002 -1.080943e+002 5.000000e+000
         vertex -4.024907e+002 -6.970461e+001 5.000000e+000
         vertex -4.026157e+002 -6.979211e+001 5.000000e+000
      endloop
   endfacet
   facet normal 0.000000e+000 0.000000e+000 1.000000e+000
      outer loop
         vertex -4.026157e+002 -6.979211e+001 5.000000e+000
         vertex -4.087785e+002 -7.595494e+001 5.000000e+000
         vertex -4.024907e+002 -1.080943e+002 5.000000e+000
      endloop
   endfacet
   facet normal 0.000000e+000 0.000000e+000 1.000000e+000
      outer loop
         vertex -4.024907e+002 -1.080943e+002 5.000000e+000
         vertex -4.087785e+002 -7.595494e+001 5.000000e+000
         vertex -4.137776e+002 -8.309433e+001 5.000000e+000
      endloop
   endfacet
   facet normal 0.000000e+000 0.000000e+000 1.000000e+000
      outer loop
         vertex -4.024907e+002 -1.080943e+002 5.000000e+000
         vertex -4.137776e+002 -8.309433e+001 5.000000e+000
         vertex -4.174609e+002 -9.099332e+001 5.000000e+000
      endloop
   endfacet
   facet normal 0.000000e+000 0.000000e+000 1.000000e+000
      outer loop
         vertex -1.413867e+002 8.190568e+001 5.000000e+000
         vertex -2.221206e+002 3.529391e+001 5.000000e+000
         vertex -2.221206e+002 3.164005e+000 5.000000e+000
      endloop
   endfacet
   facet normal 0.000000e+000 0.000000e+000 1.000000e+000
      outer loop
         vertex -2.221206e+002 3.164005e+000 5.000000e+000
         vertex -2.221206e+002 3.529391e+001 5.000000e+000
         vertex -2.777712e+002 3.164005e+000 5.000000e+000
      endloop
   endfacet
   facet normal 0.000000e+000 0.000000e+000 1.000000e+000
      outer loop
         vertex -2.221206e+002 3.164005e+000 5.000000e+000
         vertex -2.777712e+002 3.164005e+000 5.000000e+000
         vertex -2.221206e+002 -1.080943e+002 5.000000e+000
      endloop
   endfacet
   facet normal 0.000000e+000 0.000000e+000 1.000000e+000
      outer loop
         vertex -3.715052e+002 -8.559433e+001 5.000000e+000
         vertex -3.845052e+002 -6.307767e+001 5.000000e+000
         vertex -3.954763e+002 -6.479306e+001 5.000000e+000
      endloop
   endfacet
   facet normal 0.000000e+000 0.000000e+000 1.000000e+000
      outer loop
         vertex -3.954763e+002 -6.479306e+001 5.000000e+000
         vertex -3.845052e+002 -6.307767e+001 5.000000e+000
         vertex -3.801750e+002 -6.057766e+001 5.000000e+000
      endloop
   endfacet
   facet normal 0.000000e+000 0.000000e+000 1.000000e+000
      outer loop
         vertex -3.954763e+002 -6.479306e+001 5.000000e+000
         vertex -3.801750e+002 -6.057766e+001 5.000000e+000
         vertex -2.777712e+002 3.164005e+000 5.000000e+000
      endloop
   endfacet
   facet normal 0.000000e+000 0.000000e+000 1.000000e+000
      outer loop
         vertex -2.777712e+002 3.164005e+000 5.000000e+000
         vertex -3.801750e+002 -6.057766e+001 5.000000e+000
         vertex -3.671750e+002 -8.309433e+001 5.000000e+000
      endloop
   endfacet
   facet normal 0.000000e+000 0.000000e+000 1.000000e+000
      outer loop
         vertex -2.777712e+002 3.164005e+000 5.000000e+000
         vertex -3.671750e+002 -8.309433e+001 5.000000e+000
         vertex -2.221206e+002 -1.080943e+002 5.000000e+000
      endloop
   endfacet
   facet normal 0.000000e+000 0.000000e+000 1.000000e+000
      outer loop
         vertex -2.221206e+002 -1.080943e+002 5.000000e+000
         vertex -3.671750e+002 -8.309433e+001 5.000000e+000
         vertex -3.715052e+002 -8.559433e+001 5.000000e+000
      endloop
   endfacet
   facet normal 0.000000e+000 0.000000e+000 1.000000e+000
      outer loop
         vertex -2.221206e+002 -1.080943e+002 5.000000e+000
         vertex -3.715052e+002 -8.559433e+001 5.000000e+000
         vertex -4.024907e+002 -1.080943e+002 5.000000e+000
      endloop
   endfacet
   facet normal 0.000000e+000 0.000000e+000 1.000000e+000
      outer loop
         vertex -4.024907e+002 -1.080943e+002 5.000000e+000
         vertex -3.715052e+002 -8.559433e+001 5.000000e+000
         vertex -3.954763e+002 -6.479306e+001 5.000000e+000
      endloop
   endfacet
   facet normal 0.000000e+000 0.000000e+000 1.000000e+000
      outer loop
         vertex -4.024907e+002 -1.080943e+002 5.000000e+000
         vertex -3.954763e+002 -6.479306e+001 5.000000e+000
         vertex -4.024907e+002 -6.970461e+001 5.000000e+000
      endloop
   endfacet
   facet normal 0.000000e+000 0.000000e+000 1.000000e+000
      outer loop
         vertex -7.273602e+001 1.169223e+002 5.000000e+000
         vertex -6.576488e+001 1.255659e+002 5.000000e+000
         vertex -7.706615e+001 1.144223e+002 5.000000e+000
      endloop
   endfacet
   facet normal 0.000000e+000 0.000000e+000 1.000000e+000
      outer loop
         vertex -7.706615e+001 1.144223e+002 5.000000e+000
         vertex -6.576488e+001 1.255659e+002 5.000000e+000
         vertex -1.413867e+002 8.190568e+001 5.000000e+000
      endloop
   endfacet
   facet normal 0.000000e+000 0.000000e+000 1.000000e+000
      outer loop
         vertex -7.706615e+001 1.144223e+002 5.000000e+000
         vertex -1.413867e+002 8.190568e+001 5.000000e+000
         vertex -6.406615e+001 9.190568e+001 5.000000e+000
      endloop
   endfacet
   facet normal 0.000000e+000 0.000000e+000 1.000000e+000
      outer loop
         vertex -4.025045e+001 8.190568e+001 5.000000e+000
         vertex -4.076488e+001 1.322647e+002 5.000000e+000
         vertex -4.944728e+001 1.315050e+002 5.000000e+000
      endloop
   endfacet
   facet normal 0.000000e+000 0.000000e+000 1.000000e+000
      outer loop
         vertex -7.273602e+001 1.169223e+002 5.000000e+000
         vertex -5.973602e+001 9.440567e+001 5.000000e+000
         vertex -6.576488e+001 1.255659e+002 5.000000e+000
      endloop
   endfacet
   facet normal 0.000000e+000 0.000000e+000 1.000000e+000
      outer loop
         vertex -6.576488e+001 1.255659e+002 5.000000e+000
         vertex -5.973602e+001 9.440567e+001 5.000000e+000
         vertex -4.025045e+001 8.190568e+001 5.000000e+000
      endloop
   endfacet
   facet normal 0.000000e+000 0.000000e+000 1.000000e+000
      outer loop
         vertex -6.576488e+001 1.255659e+002 5.000000e+000
         vertex -4.025045e+001 8.190568e+001 5.000000e+000
         vertex -5.786588e+001 1.292493e+002 5.000000e+000
      endloop
   endfacet
   facet normal 0.000000e+000 0.000000e+000 1.000000e+000
      outer loop
         vertex -5.786588e+001 1.292493e+002 5.000000e+000
         vertex -4.025045e+001 8.190568e+001 5.000000e+000
         vertex -4.944728e+001 1.315050e+002 5.000000e+000
      endloop
   endfacet
   facet normal 0.000000e+000 0.000000e+000 1.000000e+000
      outer loop
         vertex 9.235124e+000 8.190568e+001 5.000000e+000
         vertex 9.235124e+000 8.226466e+001 5.000000e+000
         vertex -4.025045e+001 8.190568e+001 5.000000e+000
      endloop
   endfacet
   facet normal 0.000000e+000 0.000000e+000 1.000000e+000
      outer loop
         vertex -4.025045e+001 8.190568e+001 5.000000e+000
         vertex 9.235124e+000 8.226466e+001 5.000000e+000
         vertex 8.475512e+000 9.094707e+001 5.000000e+000
      endloop
   endfacet
   facet normal 0.000000e+000 0.000000e+000 1.000000e+000
      outer loop
         vertex -2.366387e+001 1.292493e+002 5.000000e+000
         vertex -3.208247e+001 1.315050e+002 5.000000e+000
         vertex -4.025045e+001 8.190568e+001 5.000000e+000
      endloop
   endfacet
   facet normal 0.000000e+000 0.000000e+000 1.000000e+000
      outer loop
         vertex -4.025045e+001 8.190568e+001 5.000000e+000
         vertex -3.208247e+001 1.315050e+002 5.000000e+000
         vertex -4.025045e+001 1.322197e+002 5.000000e+000
      endloop
   endfacet
   facet normal 0.000000e+000 0.000000e+000 1.000000e+000
      outer loop
         vertex -4.025045e+001 8.190568e+001 5.000000e+000
         vertex -4.025045e+001 1.322197e+002 5.000000e+000
         vertex -4.076488e+001 1.322647e+002 5.000000e+000
      endloop
   endfacet
   facet normal 0.000000e+000 0.000000e+000 1.000000e+000
      outer loop
         vertex -2.462654e+000 1.144040e+002 5.000000e+000
         vertex -8.625495e+000 1.205669e+002 5.000000e+000
         vertex -4.025045e+001 8.190568e+001 5.000000e+000
      endloop
   endfacet
   facet normal 0.000000e+000 0.000000e+000 1.000000e+000
      outer loop
         vertex -4.025045e+001 8.190568e+001 5.000000e+000
         vertex -8.625495e+000 1.205669e+002 5.000000e+000
         vertex -1.576488e+001 1.255659e+002 5.000000e+000
      endloop
   endfacet
   facet normal 0.000000e+000 0.000000e+000 1.000000e+000
      outer loop
         vertex -4.025045e+001 8.190568e+001 5.000000e+000
         vertex -1.576488e+001 1.255659e+002 5.000000e+000
         vertex -2.366387e+001 1.292493e+002 5.000000e+000
      endloop
   endfacet
   facet normal 0.000000e+000 0.000000e+000 1.000000e+000
      outer loop
         vertex 8.475512e+000 9.094707e+001 5.000000e+000
         vertex 6.219755e+000 9.936567e+001 5.000000e+000
         vertex -4.025045e+001 8.190568e+001 5.000000e+000
      endloop
   endfacet
   facet normal 0.000000e+000 0.000000e+000 1.000000e+000
      outer loop
         vertex -4.025045e+001 8.190568e+001 5.000000e+000
         vertex 6.219755e+000 9.936567e+001 5.000000e+000
         vertex 2.536394e+000 1.072647e+002 5.000000e+000
      endloop
   endfacet
   facet normal 0.000000e+000 0.000000e+000 1.000000e+000
      outer loop
         vertex -4.025045e+001 8.190568e+001 5.000000e+000
         vertex 2.536394e+000 1.072647e+002 5.000000e+000
         vertex -2.462654e+000 1.144040e+002 5.000000e+000
      endloop
   endfacet
   facet normal 0.000000e+000 0.000000e+000 1.000000e+000
      outer loop
         vertex 5.235125e+000 6.690568e+001 5.000000e+000
         vertex -2.076488e+001 6.690568e+001 5.000000e+000
         vertex -4.025045e+001 3.164005e+000 5.000000e+000
      endloop
   endfacet
   facet normal 0.000000e+000 0.000000e+000 1.000000e+000
      outer loop
         vertex -4.025045e+001 3.164005e+000 5.000000e+000
         vertex -2.076488e+001 6.690568e+001 5.000000e+000
         vertex -4.025045e+001 8.190568e+001 5.000000e+000
      endloop
   endfacet
   facet normal 0.000000e+000 0.000000e+000 1.000000e+000
      outer loop
         vertex -4.025045e+001 8.190568e+001 5.000000e+000
         vertex -2.076488e+001 6.690568e+001 5.000000e+000
         vertex -2.076488e+001 7.190567e+001 5.000000e+000
      endloop
   endfacet
   facet normal 0.000000e+000 0.000000e+000 1.000000e+000
      outer loop
         vertex -4.025045e+001 8.190568e+001 5.000000e+000
         vertex -2.076488e+001 7.190567e+001 5.000000e+000
         vertex 9.235124e+000 8.190568e+001 5.000000e+000
      endloop
   endfacet
   facet normal 0.000000e+000 0.000000e+000 1.000000e+000
      outer loop
         vertex -2.076488e+001 7.190567e+001 5.000000e+000
         vertex 5.235125e+000 7.190567e+001 5.000000e+000
         vertex 9.235124e+000 8.190568e+001 5.000000e+000
      endloop
   endfacet
   facet normal 0.000000e+000 0.000000e+000 1.000000e+000
      outer loop
         vertex 9.235124e+000 8.190568e+001 5.000000e+000
         vertex 5.235125e+000 7.190567e+001 5.000000e+000
         vertex 5.235125e+000 6.690568e+001 5.000000e+000
      endloop
   endfacet
   facet normal 0.000000e+000 0.000000e+000 1.000000e+000
      outer loop
         vertex 9.235124e+000 8.190568e+001 5.000000e+000
         vertex 5.235125e+000 6.690568e+001 5.000000e+000
         vertex 9.235124e+000 3.164005e+000 5.000000e+000
      endloop
   endfacet
   facet normal 0.000000e+000 0.000000e+000 1.000000e+000
      outer loop
         vertex 9.235124e+000 3.164005e+000 5.000000e+000
         vertex 5.235125e+000 6.690568e+001 5.000000e+000
         vertex -4.025045e+001 3.164005e+000 5.000000e+000
      endloop
   endfacet
   facet normal 0.000000e+000 0.000000e+000 1.000000e+000
      outer loop
         vertex 9.235124e+000 3.164005e+000 5.000000e+000
         vertex -4.025045e+001 3.164005e+000 5.000000e+000
         vertex 9.235124e+000 -1.080943e+002 5.000000e+000
      endloop
   endfacet
   facet normal 0.000000e+000 0.000000e+000 1.000000e+000
      outer loop
         vertex 9.235124e+000 -1.080943e+002 5.000000e+000
         vertex -4.025045e+001 3.164005e+000 5.000000e+000
         vertex -4.025045e+001 -1.080943e+002 5.000000e+000
      endloop
   endfacet
   facet normal 0.000000e+000 0.000000e+000 1.000000e+000
      outer loop
         vertex 9.235124e+000 -1.080943e+002 5.000000e+000
         vertex -4.025045e+001 -1.080943e+002 5.000000e+000
         vertex 9.235124e+000 -2.193527e+002 5.000000e+000
      endloop
   endfacet
   facet normal 0.000000e+000 0.000000e+000 1.000000e+000
      outer loop
         vertex 9.235124e+000 -2.193527e+002 5.000000e+000
         vertex -4.025045e+001 -1.080943e+002 5.000000e+000
         vertex -4.025045e+001 -2.193527e+002 5.000000e+000
      endloop
   endfacet
   facet normal 0.000000e+000 0.000000e+000 1.000000e+000
      outer loop
         vertex -5.973602e+001 9.440567e+001 5.000000e+000
         vertex -6.406615e+001 9.190568e+001 5.000000e+000
         vertex -4.025045e+001 8.190568e+001 5.000000e+000
      endloop
   endfacet
   facet normal 0.000000e+000 0.000000e+000 1.000000e+000
      outer loop
         vertex -4.025045e+001 8.190568e+001 5.000000e+000
         vertex -6.406615e+001 9.190568e+001 5.000000e+000
         vertex -1.413867e+002 8.190568e+001 5.000000e+000
      endloop
   endfacet
   facet normal 0.000000e+000 0.000000e+000 1.000000e+000
      outer loop
         vertex -4.025045e+001 8.190568e+001 5.000000e+000
         vertex -1.413867e+002 8.190568e+001 5.000000e+000
         vertex -4.025045e+001 3.164005e+000 5.000000e+000
      endloop
   endfacet
   facet normal 0.000000e+000 0.000000e+000 1.000000e+000
      outer loop
         vertex -4.025045e+001 3.164005e+000 5.000000e+000
         vertex -1.413867e+002 8.190568e+001 5.000000e+000
         vertex -2.221206e+002 3.164005e+000 5.000000e+000
      endloop
   endfacet
   facet normal 0.000000e+000 0.000000e+000 1.000000e+000
      outer loop
         vertex -4.025045e+001 3.164005e+000 5.000000e+000
         vertex -2.221206e+002 3.164005e+000 5.000000e+000
         vertex -4.025045e+001 -1.080943e+002 5.000000e+000
      endloop
   endfacet
   facet normal 0.000000e+000 0.000000e+000 1.000000e+000
      outer loop
         vertex -4.025045e+001 -1.080943e+002 5.000000e+000
         vertex -2.221206e+002 3.164005e+000 5.000000e+000
         vertex -2.221206e+002 -1.080943e+002 5.000000e+000
      endloop
   endfacet
   facet normal 0.000000e+000 0.000000e+000 1.000000e+000
      outer loop
         vertex -4.025045e+001 -1.080943e+002 5.000000e+000
         vertex -2.221206e+002 -1.080943e+002 5.000000e+000
         vertex -4.025045e+001 -2.193527e+002 5.000000e+000
      endloop
   endfacet
   facet normal 0.000000e+000 0.000000e+000 1.000000e+000
      outer loop
         vertex -4.025045e+001 -2.193527e+002 5.000000e+000
         vertex -2.221206e+002 -1.080943e+002 5.000000e+000
         vertex -2.221206e+002 -2.193527e+002 5.000000e+000
      endloop
   endfacet
   facet normal 0.000000e+000 0.000000e+000 1.000000e+000
      outer loop
         vertex -4.025045e+001 -2.193527e+002 5.000000e+000
         vertex -2.221206e+002 -2.193527e+002 5.000000e+000
         vertex -2.221206e+002 -2.514826e+002 5.000000e+000
      endloop
   endfacet
   facet normal 0.000000e+000 0.000000e+000 1.000000e+000
      outer loop
         vertex -2.221206e+002 -2.514826e+002 5.000000e+000
         vertex -2.221206e+002 -2.193527e+002 5.000000e+000
         vertex -2.777712e+002 -2.193527e+002 5.000000e+000
      endloop
   endfacet
   facet normal 0.000000e+000 0.000000e+000 1.000000e+000
      outer loop
         vertex -7.706615e+001 -3.306110e+002 5.000000e+000
         vertex -6.406615e+001 -3.080943e+002 5.000000e+000
         vertex -1.413867e+002 -2.980943e+002 5.000000e+000
      endloop
   endfacet
   facet normal 0.000000e+000 0.000000e+000 1.000000e+000
      outer loop
         vertex -1.413867e+002 -2.980943e+002 5.000000e+000
         vertex -6.406615e+001 -3.080943e+002 5.000000e+000
         vertex -4.025045e+001 -2.980943e+002 5.000000e+000
      endloop
   endfacet
   facet normal 0.000000e+000 0.000000e+000 1.000000e+000
      outer loop
         vertex -1.413867e+002 -2.980943e+002 5.000000e+000
         vertex -4.025045e+001 -2.980943e+002 5.000000e+000
         vertex -4.025045e+001 -2.193527e+002 5.000000e+000
      endloop
   endfacet
   facet normal 0.000000e+000 0.000000e+000 1.000000e+000
      outer loop
         vertex -4.025045e+001 -2.193527e+002 5.000000e+000
         vertex -4.025045e+001 -2.980943e+002 5.000000e+000
         vertex -2.076488e+001 -2.830943e+002 5.000000e+000
      endloop
   endfacet
   facet normal 0.000000e+000 0.000000e+000 1.000000e+000
      outer loop
         vertex -4.025045e+001 -2.193527e+002 5.000000e+000
         vertex -2.076488e+001 -2.830943e+002 5.000000e+000
         vertex 9.235124e+000 -2.193527e+002 5.000000e+000
      endloop
   endfacet
   facet normal 0.000000e+000 0.000000e+000 1.000000e+000
      outer loop
         vertex 9.235124e+000 -2.193527e+002 5.000000e+000
         vertex -2.076488e+001 -2.830943e+002 5.000000e+000
         vertex 5.235125e+000 -2.830943e+002 5.000000e+000
      endloop
   endfacet
   facet normal 0.000000e+000 0.000000e+000 1.000000e+000
      outer loop
         vertex 9.235124e+000 -2.193527e+002 5.000000e+000
         vertex 5.235125e+000 -2.830943e+002 5.000000e+000
         vertex 9.235124e+000 -2.980943e+002 5.000000e+000
      endloop
   endfacet
   facet normal 0.000000e+000 0.000000e+000 1.000000e+000
      outer loop
         vertex 9.235124e+000 -2.980943e+002 5.000000e+000
         vertex 5.235125e+000 -2.830943e+002 5.000000e+000
         vertex 5.235125e+000 -2.880943e+002 5.000000e+000
      endloop
   endfacet
   facet normal 0.000000e+000 0.000000e+000 1.000000e+000
      outer loop
         vertex 9.235124e+000 -2.980943e+002 5.000000e+000
         vertex 5.235125e+000 -2.880943e+002 5.000000e+000
         vertex -4.025045e+001 -2.980943e+002 5.000000e+000
      endloop
   endfacet
   facet normal 0.000000e+000 0.000000e+000 1.000000e+000
      outer loop
         vertex -4.025045e+001 -2.980943e+002 5.000000e+000
         vertex 5.235125e+000 -2.880943e+002 5.000000e+000
         vertex -2.076488e+001 -2.880943e+002 5.000000e+000
      endloop
   endfacet
   facet normal 0.000000e+000 0.000000e+000 1.000000e+000
      outer loop
         vertex -4.025045e+001 -2.980943e+002 5.000000e+000
         vertex -2.076488e+001 -2.880943e+002 5.000000e+000
         vertex -2.076488e+001 -2.830943e+002 5.000000e+000
      endloop
   endfacet
   facet normal 0.000000e+000 0.000000e+000 -1.000000e+000
      outer loop
         vertex -2.462654e+000 -3.305927e+002 0.000000e+000
         vertex -8.625495e+000 -3.367556e+002 0.000000e+000
         vertex -4.944728e+001 -3.476937e+002 0.000000e+000
      endloop
   endfacet
   facet normal 0.000000e+000 0.000000e+000 -1.000000e+000
      outer loop
         vertex -6.576488e+001 -3.417546e+002 0.000000e+000
         vertex -6.576488e+001 1.255659e+002 0.000000e+000
         vertex -5.786588e+001 1.292493e+002 0.000000e+000
      endloop
   endfacet
   facet normal 0.000000e+000 0.000000e+000 -1.000000e+000
      outer loop
         vertex -6.576488e+001 1.255659e+002 0.000000e+000
         vertex -6.576488e+001 -3.417546e+002 0.000000e+000
         vertex -3.954763e+002 -6.479306e+001 0.000000e+000
      endloop
   endfacet
   facet normal 0.000000e+000 0.000000e+000 -1.000000e+000
      outer loop
         vertex -3.954763e+002 -6.479306e+001 0.000000e+000
         vertex -6.576488e+001 -3.417546e+002 0.000000e+000
         vertex -3.954763e+002 -1.513956e+002 0.000000e+000
      endloop
   endfacet
   facet normal 0.000000e+000 0.000000e+000 -1.000000e+000
      outer loop
         vertex -3.954763e+002 -6.479306e+001 0.000000e+000
         vertex -3.954763e+002 -1.513956e+002 0.000000e+000
         vertex -4.026157e+002 -1.463965e+002 0.000000e+000
      endloop
   endfacet
   facet normal 0.000000e+000 0.000000e+000 -1.000000e+000
      outer loop
         vertex -4.944728e+001 -3.476937e+002 0.000000e+000
         vertex 9.235124e+000 -2.984533e+002 0.000000e+000
         vertex 8.475512e+000 -3.071357e+002 0.000000e+000
      endloop
   endfacet
   facet normal 0.000000e+000 0.000000e+000 -1.000000e+000
      outer loop
         vertex -8.625495e+000 -3.367556e+002 0.000000e+000
         vertex -1.576488e+001 -3.417546e+002 0.000000e+000
         vertex -4.944728e+001 -3.476937e+002 0.000000e+000
      endloop
   endfacet
   facet normal 0.000000e+000 0.000000e+000 -1.000000e+000
      outer loop
         vertex -4.944728e+001 -3.476937e+002 0.000000e+000
         vertex -1.576488e+001 -3.417546e+002 0.000000e+000
         vertex -2.366387e+001 -3.454380e+002 0.000000e+000
      endloop
   endfacet
   facet normal 0.000000e+000 0.000000e+000 -1.000000e+000
      outer loop
         vertex -4.944728e+001 -3.476937e+002 0.000000e+000
         vertex -2.366387e+001 -3.454380e+002 0.000000e+000
         vertex -4.076488e+001 -3.484533e+002 0.000000e+000
      endloop
   endfacet
   facet normal 0.000000e+000 0.000000e+000 -1.000000e+000
      outer loop
         vertex -4.076488e+001 -3.484533e+002 0.000000e+000
         vertex -2.366387e+001 -3.454380e+002 0.000000e+000
         vertex -3.208247e+001 -3.476937e+002 0.000000e+000
      endloop
   endfacet
   facet normal 0.000000e+000 0.000000e+000 -1.000000e+000
      outer loop
         vertex 8.475512e+000 -3.071357e+002 0.000000e+000
         vertex 6.219755e+000 -3.155543e+002 0.000000e+000
         vertex -4.944728e+001 -3.476937e+002 0.000000e+000
      endloop
   endfacet
   facet normal 0.000000e+000 0.000000e+000 -1.000000e+000
      outer loop
         vertex -4.944728e+001 -3.476937e+002 0.000000e+000
         vertex 6.219755e+000 -3.155543e+002 0.000000e+000
         vertex 2.536394e+000 -3.234533e+002 0.000000e+000
      endloop
   endfacet
   facet normal 0.000000e+000 0.000000e+000 -1.000000e+000
      outer loop
         vertex -4.944728e+001 -3.476937e+002 0.000000e+000
         vertex 2.536394e+000 -3.234533e+002 0.000000e+000
         vertex -2.462654e+000 -3.305927e+002 0.000000e+000
      endloop
   endfacet
   facet normal 0.000000e+000 0.000000e+000 -1.000000e+000
      outer loop
         vertex -4.026157e+002 -1.463965e+002 0.000000e+000
         vertex -4.087785e+002 -1.402337e+002 0.000000e+000
         vertex -3.954763e+002 -6.479306e+001 0.000000e+000
      endloop
   endfacet
   facet normal 0.000000e+000 0.000000e+000 -1.000000e+000
      outer loop
         vertex -3.954763e+002 -6.479306e+001 0.000000e+000
         vertex -4.087785e+002 -1.402337e+002 0.000000e+000
         vertex -4.137776e+002 -1.330943e+002 0.000000e+000
      endloop
   endfacet
   facet normal 0.000000e+000 0.000000e+000 -1.000000e+000
      outer loop
         vertex -3.954763e+002 -6.479306e+001 0.000000e+000
         vertex -4.137776e+002 -1.330943e+002 0.000000e+000
         vertex -4.174609e+002 -1.251953e+002 0.000000e+000
      endloop
   endfacet
   facet normal 0.000000e+000 0.000000e+000 -1.000000e+000
      outer loop
         vertex -1.576488e+001 1.255659e+002 0.000000e+000
         vertex -6.576488e+001 -3.417546e+002 0.000000e+000
         vertex -2.366387e+001 1.292493e+002 0.000000e+000
      endloop
   endfacet
   facet normal 0.000000e+000 0.000000e+000 -1.000000e+000
      outer loop
         vertex -2.366387e+001 1.292493e+002 0.000000e+000
         vertex -6.576488e+001 -3.417546e+002 0.000000e+000
         vertex -3.208247e+001 1.315050e+002 0.000000e+000
      endloop
   endfacet
   facet normal 0.000000e+000 0.000000e+000 -1.000000e+000
      outer loop
         vertex -4.174609e+002 -1.251953e+002 0.000000e+000
         vertex -4.197167e+002 -1.167767e+002 0.000000e+000
         vertex -3.954763e+002 -6.479306e+001 0.000000e+000
      endloop
   endfacet
   facet normal 0.000000e+000 0.000000e+000 -1.000000e+000
      outer loop
         vertex -3.954763e+002 -6.479306e+001 0.000000e+000
         vertex -4.197167e+002 -1.167767e+002 0.000000e+000
         vertex -4.204763e+002 -1.080943e+002 0.000000e+000
      endloop
   endfacet
   facet normal 0.000000e+000 0.000000e+000 -1.000000e+000
      outer loop
         vertex -3.954763e+002 -6.479306e+001 0.000000e+000
         vertex -4.204763e+002 -1.080943e+002 0.000000e+000
         vertex -4.197167e+002 -9.941192e+001 0.000000e+000
      endloop
   endfacet
   facet normal 0.000000e+000 0.000000e+000 -1.000000e+000
      outer loop
         vertex -4.197167e+002 -9.941192e+001 0.000000e+000
         vertex -4.174609e+002 -9.099332e+001 0.000000e+000
         vertex -3.954763e+002 -6.479306e+001 0.000000e+000
      endloop
   endfacet
   facet normal 0.000000e+000 0.000000e+000 -1.000000e+000
      outer loop
         vertex -3.954763e+002 -6.479306e+001 0.000000e+000
         vertex -4.174609e+002 -9.099332e+001 0.000000e+000
         vertex -4.137776e+002 -8.309433e+001 0.000000e+000
      endloop
   endfacet
   facet normal 0.000000e+000 0.000000e+000 -1.000000e+000
      outer loop
         vertex -3.954763e+002 -6.479306e+001 0.000000e+000
         vertex -4.137776e+002 -8.309433e+001 0.000000e+000
         vertex -4.026157e+002 -6.979211e+001 0.000000e+000
      endloop
   endfacet
   facet normal 0.000000e+000 0.000000e+000 -1.000000e+000
      outer loop
         vertex -4.026157e+002 -6.979211e+001 0.000000e+000
         vertex -4.137776e+002 -8.309433e+001 0.000000e+000
         vertex -4.087785e+002 -7.595494e+001 0.000000e+000
      endloop
   endfacet
   facet normal 0.000000e+000 0.000000e+000 -1.000000e+000
      outer loop
         vertex -5.786588e+001 1.292493e+002 0.000000e+000
         vertex -4.944728e+001 1.315050e+002 0.000000e+000
         vertex -6.576488e+001 -3.417546e+002 0.000000e+000
      endloop
   endfacet
   facet normal 0.000000e+000 0.000000e+000 -1.000000e+000
      outer loop
         vertex -6.576488e+001 -3.417546e+002 0.000000e+000
         vertex -4.944728e+001 1.315050e+002 0.000000e+000
         vertex -4.076488e+001 1.322647e+002 0.000000e+000
      endloop
   endfacet
   facet normal 0.000000e+000 0.000000e+000 -1.000000e+000
      outer loop
         vertex -6.576488e+001 -3.417546e+002 0.000000e+000
         vertex -4.076488e+001 1.322647e+002 0.000000e+000
         vertex -3.208247e+001 1.315050e+002 0.000000e+000
      endloop
   endfacet
   facet normal 0.000000e+000 0.000000e+000 -1.000000e+000
      outer loop
         vertex -4.944728e+001 -3.476937e+002 0.000000e+000
         vertex -5.786588e+001 -3.454380e+002 0.000000e+000
         vertex 9.235124e+000 -2.984533e+002 0.000000e+000
      endloop
   endfacet
   facet normal 0.000000e+000 0.000000e+000 -1.000000e+000
      outer loop
         vertex 9.235124e+000 -2.984533e+002 0.000000e+000
         vertex -5.786588e+001 -3.454380e+002 0.000000e+000
         vertex -6.576488e+001 -3.417546e+002 0.000000e+000
      endloop
   endfacet
   facet normal 0.000000e+000 0.000000e+000 -1.000000e+000
      outer loop
         vertex 9.235124e+000 -2.984533e+002 0.000000e+000
         vertex -6.576488e+001 -3.417546e+002 0.000000e+000
         vertex 9.235124e+000 8.226466e+001 0.000000e+000
      endloop
   endfacet
   facet normal 0.000000e+000 0.000000e+000 -1.000000e+000
      outer loop
         vertex 9.235124e+000 8.226466e+001 0.000000e+000
         vertex -6.576488e+001 -3.417546e+002 0.000000e+000
         vertex -1.576488e+001 1.255659e+002 0.000000e+000
      endloop
   endfacet
   facet normal 0.000000e+000 0.000000e+000 -1.000000e+000
      outer loop
         vertex 9.235124e+000 8.226466e+001 0.000000e+000
         vertex -1.576488e+001 1.255659e+002 0.000000e+000
         vertex 8.475512e+000 9.094707e+001 0.000000e+000
      endloop
   endfacet
   facet normal 0.000000e+000 0.000000e+000 -1.000000e+000
      outer loop
         vertex 8.475512e+000 9.094707e+001 0.000000e+000
         vertex -1.576488e+001 1.255659e+002 0.000000e+000
         vertex -8.625495e+000 1.205669e+002 0.000000e+000
      endloop
   endfacet
   facet normal 0.000000e+000 0.000000e+000 -1.000000e+000
      outer loop
         vertex -8.625495e+000 1.205669e+002 0.000000e+000
         vertex -2.462654e+000 1.144040e+002 0.000000e+000
         vertex 8.475512e+000 9.094707e+001 0.000000e+000
      endloop
   endfacet
   facet normal 0.000000e+000 0.000000e+000 -1.000000e+000
      outer loop
         vertex 8.475512e+000 9.094707e+001 0.000000e+000
         vertex -2.462654e+000 1.144040e+002 0.000000e+000
         vertex 2.536394e+000 1.072647e+002 0.000000e+000
      endloop
   endfacet
   facet normal 0.000000e+000 0.000000e+000 -1.000000e+000
      outer loop
         vertex 8.475512e+000 9.094707e+001 0.000000e+000
         vertex 2.536394e+000 1.072647e+002 0.000000e+000
         vertex 6.219755e+000 9.936567e+001 0.000000e+000
      endloop
   endfacet
   facet normal -4.488580e-001 8.936031e-001 0.000000e+000
      outer loop
         vertex -6.576488e+001 1.255659e+002 0.000000e+000
         vertex -6.576488e+001 1.255659e+002 5.000000e+000
         vertex -5.786588e+001 1.292493e+002 5.000000e+000
      endloop
   endfacet
   facet normal -3.960194e-001 9.182422e-001 0.000000e+000
      outer loop
         vertex -6.576488e+001 1.255659e+002 0.000000e+000
         vertex -5.786588e+001 1.292493e+002 5.000000e+000
         vertex -5.786588e+001 1.292493e+002 0.000000e+000
      endloop
   endfacet
   facet normal -2.868663e-001 9.579706e-001 0.000000e+000
      outer loop
         vertex -5.786588e+001 1.292493e+002 0.000000e+000
         vertex -5.786588e+001 1.292493e+002 5.000000e+000
         vertex -4.944728e+001 1.315050e+002 5.000000e+000
      endloop
   endfacet
   facet normal -2.305519e-001 9.730600e-001 0.000000e+000
      outer loop
         vertex -5.786588e+001 1.292493e+002 0.000000e+000
         vertex -4.944728e+001 1.315050e+002 5.000000e+000
         vertex -4.944728e+001 1.315050e+002 0.000000e+000
      endloop
   endfacet
   facet normal -1.161583e-001 9.932307e-001 0.000000e+000
      outer loop
         vertex -4.944728e+001 1.315050e+002 0.000000e+000
         vertex -4.944728e+001 1.315050e+002 5.000000e+000
         vertex -4.076488e+001 1.322647e+002 5.000000e+000
      endloop
   endfacet
   facet normal -5.807913e-002 9.983119e-001 0.000000e+000
      outer loop
         vertex -4.944728e+001 1.315050e+002 0.000000e+000
         vertex -4.076488e+001 1.322647e+002 5.000000e+000
         vertex -4.076488e+001 1.322647e+002 0.000000e+000
      endloop
   endfacet
   facet normal 3.432471e-003 9.999941e-001 0.000000e+000
      outer loop
         vertex -4.076488e+001 1.322647e+002 0.000000e+000
         vertex -4.076488e+001 1.322647e+002 5.000000e+000
         vertex -4.025045e+001 1.322197e+002 5.000000e+000
      endloop
   endfacet
   facet normal 6.151165e-002 9.981064e-001 0.000000e+000
      outer loop
         vertex -4.076488e+001 1.322647e+002 0.000000e+000
         vertex -4.025045e+001 1.322197e+002 5.000000e+000
         vertex -3.208247e+001 1.315050e+002 0.000000e+000
      endloop
   endfacet
   facet normal 1.195559e-001 9.928275e-001 0.000000e+000
      outer loop
         vertex -4.025045e+001 1.322197e+002 5.000000e+000
         vertex -3.208247e+001 1.315050e+002 5.000000e+000
         vertex -3.208247e+001 1.315050e+002 0.000000e+000
      endloop
   endfacet
   facet normal 2.305519e-001 9.730600e-001 0.000000e+000
      outer loop
         vertex -3.208247e+001 1.315050e+002 0.000000e+000
         vertex -3.208247e+001 1.315050e+002 5.000000e+000
         vertex -2.366387e+001 1.292493e+002 5.000000e+000
      endloop
   endfacet
   facet normal 2.868663e-001 9.579706e-001 0.000000e+000
      outer loop
         vertex -3.208247e+001 1.315050e+002 0.000000e+000
         vertex -2.366387e+001 1.292493e+002 5.000000e+000
         vertex -2.366387e+001 1.292493e+002 0.000000e+000
      endloop
   endfacet
   facet normal 3.960194e-001 9.182422e-001 0.000000e+000
      outer loop
         vertex -2.366387e+001 1.292493e+002 0.000000e+000
         vertex -2.366387e+001 1.292493e+002 5.000000e+000
         vertex -1.576488e+001 1.255659e+002 5.000000e+000
      endloop
   endfacet
   facet normal 4.488580e-001 8.936031e-001 0.000000e+000
      outer loop
         vertex -2.366387e+001 1.292493e+002 0.000000e+000
         vertex -1.576488e+001 1.255659e+002 5.000000e+000
         vertex -1.576488e+001 1.255659e+002 0.000000e+000
      endloop
   endfacet
   facet normal 5.494540e-001 8.355240e-001 0.000000e+000
      outer loop
         vertex -1.576488e+001 1.255659e+002 0.000000e+000
         vertex -1.576488e+001 1.255659e+002 5.000000e+000
         vertex -8.625495e+000 1.205669e+002 5.000000e+000
      endloop
   endfacet
   facet normal 5.972114e-001 8.020838e-001 0.000000e+000
      outer loop
         vertex -1.576488e+001 1.255659e+002 0.000000e+000
         vertex -8.625495e+000 1.205669e+002 5.000000e+000
         vertex -8.625495e+000 1.205669e+002 0.000000e+000
      endloop
   endfacet
   facet normal 6.861938e-001 7.274188e-001 0.000000e+000
      outer loop
         vertex -8.625495e+000 1.205669e+002 0.000000e+000
         vertex -8.625495e+000 1.205669e+002 5.000000e+000
         vertex -2.462654e+000 1.144040e+002 5.000000e+000
      endloop
   endfacet
   facet normal 7.274188e-001 6.861938e-001 0.000000e+000
      outer loop
         vertex -8.625495e+000 1.205669e+002 0.000000e+000
         vertex -2.462654e+000 1.144040e+002 5.000000e+000
         vertex -2.462654e+000 1.144040e+002 0.000000e+000
      endloop
   endfacet
   facet normal 8.020838e-001 5.972114e-001 0.000000e+000
      outer loop
         vertex -2.462654e+000 1.144040e+002 0.000000e+000
         vertex -2.462654e+000 1.144040e+002 5.000000e+000
         vertex 2.536394e+000 1.072647e+002 5.000000e+000
      endloop
   endfacet
   facet normal 8.355240e-001 5.494540e-001 0.000000e+000
      outer loop
         vertex -2.462654e+000 1.144040e+002 0.000000e+000
         vertex 2.536394e+000 1.072647e+002 5.000000e+000
         vertex 2.536394e+000 1.072647e+002 0.000000e+000
      endloop
   endfacet
   facet normal 8.936031e-001 4.488580e-001 0.000000e+000
      outer loop
         vertex 2.536394e+000 1.072647e+002 0.000000e+000
         vertex 2.536394e+000 1.072647e+002 5.000000e+000
         vertex 6.219755e+000 9.936567e+001 5.000000e+000
      endloop
   endfacet
   facet normal 9.182422e-001 3.960194e-001 0.000000e+000
      outer loop
         vertex 2.536394e+000 1.072647e+002 0.000000e+000
         vertex 6.219755e+000 9.936567e+001 5.000000e+000
         vertex 6.219755e+000 9.936567e+001 0.000000e+000
      endloop
   endfacet
   facet normal 9.579706e-001 2.868663e-001 0.000000e+000
      outer loop
         vertex 6.219755e+000 9.936567e+001 0.000000e+000
         vertex 6.219755e+000 9.936567e+001 5.000000e+000
         vertex 8.475512e+000 9.094707e+001 5.000000e+000
      endloop
   endfacet
   facet normal 9.730600e-001 2.305519e-001 0.000000e+000
      outer loop
         vertex 6.219755e+000 9.936567e+001 0.000000e+000
         vertex 8.475512e+000 9.094707e+001 5.000000e+000
         vertex 8.475512e+000 9.094707e+001 0.000000e+000
      endloop
   endfacet
   facet normal 9.932307e-001 1.161583e-001 0.000000e+000
      outer loop
         vertex 8.475512e+000 9.094707e+001 0.000000e+000
         vertex 8.475512e+000 9.094707e+001 5.000000e+000
         vertex 9.235124e+000 8.226466e+001 5.000000e+000
      endloop
   endfacet
   facet normal 9.983119e-001 5.807913e-002 0.000000e+000
      outer loop
         vertex 8.475512e+000 9.094707e+001 0.000000e+000
         vertex 9.235124e+000 8.226466e+001 5.000000e+000
         vertex 9.235124e+000 8.226466e+001 0.000000e+000
      endloop
   endfacet
   facet normal -5.486099e-001 -8.360784e-001 0.000000e+000
      outer loop
         vertex -3.954763e+002 -1.513956e+002 5.000000e+000
         vertex -4.024907e+002 -1.464841e+002 5.000000e+000
         vertex -3.954763e+002 -1.513956e+002 0.000000e+000
      endloop
   endfacet
   facet normal -5.963969e-001 -8.026897e-001 0.000000e+000
      outer loop
         vertex -3.954763e+002 -1.513956e+002 0.000000e+000
         vertex -4.024907e+002 -1.464841e+002 5.000000e+000
         vertex -4.026157e+002 -1.463965e+002 0.000000e+000
      endloop
   endfacet
   facet normal -5.486099e-001 8.360784e-001 0.000000e+000
      outer loop
         vertex -3.954763e+002 -6.479306e+001 5.000000e+000
         vertex -3.954763e+002 -6.479306e+001 0.000000e+000
         vertex -4.024907e+002 -6.970461e+001 5.000000e+000
      endloop
   endfacet
   facet normal -5.963969e-001 8.026897e-001 0.000000e+000
      outer loop
         vertex -4.024907e+002 -6.970461e+001 5.000000e+000
         vertex -3.954763e+002 -6.479306e+001 0.000000e+000
         vertex -4.026157e+002 -6.979211e+001 0.000000e+000
      endloop
   endfacet
   facet normal -6.420110e-001 7.666954e-001 0.000000e+000
      outer loop
         vertex -4.024907e+002 -6.970461e+001 5.000000e+000
         vertex -4.026157e+002 -6.979211e+001 0.000000e+000
         vertex -4.026157e+002 -6.979211e+001 5.000000e+000
      endloop
   endfacet
   facet normal -6.861938e-001 7.274188e-001 0.000000e+000
      outer loop
         vertex -4.026157e+002 -6.979211e+001 5.000000e+000
         vertex -4.026157e+002 -6.979211e+001 0.000000e+000
         vertex -4.087785e+002 -7.595494e+001 0.000000e+000
      endloop
   endfacet
   facet normal -7.274188e-001 6.861938e-001 0.000000e+000
      outer loop
         vertex -4.026157e+002 -6.979211e+001 5.000000e+000
         vertex -4.087785e+002 -7.595494e+001 0.000000e+000
         vertex -4.087785e+002 -7.595494e+001 5.000000e+000
      endloop
   endfacet
   facet normal -8.020838e-001 5.972114e-001 0.000000e+000
      outer loop
         vertex -4.087785e+002 -7.595494e+001 5.000000e+000
         vertex -4.087785e+002 -7.595494e+001 0.000000e+000
         vertex -4.137776e+002 -8.309433e+001 0.000000e+000
      endloop
   endfacet
   facet normal -8.355240e-001 5.494540e-001 0.000000e+000
      outer loop
         vertex -4.087785e+002 -7.595494e+001 5.000000e+000
         vertex -4.137776e+002 -8.309433e+001 0.000000e+000
         vertex -4.137776e+002 -8.309433e+001 5.000000e+000
      endloop
   endfacet
   facet normal -8.936031e-001 4.488580e-001 0.000000e+000
      outer loop
         vertex -4.137776e+002 -8.309433e+001 5.000000e+000
         vertex -4.137776e+002 -8.309433e+001 0.000000e+000
         vertex -4.174609e+002 -9.099332e+001 0.000000e+000
      endloop
   endfacet
   facet normal -9.182422e-001 3.960194e-001 0.000000e+000
      outer loop
         vertex -4.137776e+002 -8.309433e+001 5.000000e+000
         vertex -4.174609e+002 -9.099332e+001 0.000000e+000
         vertex -4.174609e+002 -9.099332e+001 5.000000e+000
      endloop
   endfacet
   facet normal -9.579706e-001 2.868663e-001 0.000000e+000
      outer loop
         vertex -4.174609e+002 -9.099332e+001 5.000000e+000
         vertex -4.174609e+002 -9.099332e+001 0.000000e+000
         vertex -4.197167e+002 -9.941192e+001 0.000000e+000
      endloop
   endfacet
   facet normal -9.730600e-001 2.305519e-001 0.000000e+000
      outer loop
         vertex -4.174609e+002 -9.099332e+001 5.000000e+000
         vertex -4.197167e+002 -9.941192e+001 0.000000e+000
         vertex -4.197167e+002 -9.941192e+001 5.000000e+000
      endloop
   endfacet
   facet normal -9.932307e-001 1.161583e-001 0.000000e+000
      outer loop
         vertex -4.197167e+002 -9.941192e+001 5.000000e+000
         vertex -4.197167e+002 -9.941192e+001 0.000000e+000
         vertex -4.204763e+002 -1.080943e+002 0.000000e+000
      endloop
   endfacet
   facet normal -9.983119e-001 5.807913e-002 0.000000e+000
      outer loop
         vertex -4.197167e+002 -9.941192e+001 5.000000e+000
         vertex -4.204763e+002 -1.080943e+002 0.000000e+000
         vertex -4.204763e+002 -1.080943e+002 5.000000e+000
      endloop
   endfacet
   facet normal -9.983119e-001 -5.807913e-002 0.000000e+000
      outer loop
         vertex -4.204763e+002 -1.080943e+002 5.000000e+000
         vertex -4.204763e+002 -1.080943e+002 0.000000e+000
         vertex -4.197167e+002 -1.167767e+002 0.000000e+000
      endloop
   endfacet
   facet normal -9.932307e-001 -1.161583e-001 0.000000e+000
      outer loop
         vertex -4.204763e+002 -1.080943e+002 5.000000e+000
         vertex -4.197167e+002 -1.167767e+002 0.000000e+000
         vertex -4.197167e+002 -1.167767e+002 5.000000e+000
      endloop
   endfacet
   facet normal -9.730600e-001 -2.305519e-001 0.000000e+000
      outer loop
         vertex -4.197167e+002 -1.167767e+002 5.000000e+000
         vertex -4.197167e+002 -1.167767e+002 0.000000e+000
         vertex -4.174609e+002 -1.251953e+002 0.000000e+000
      endloop
   endfacet
   facet normal -9.579706e-001 -2.868663e-001 0.000000e+000
      outer loop
         vertex -4.197167e+002 -1.167767e+002 5.000000e+000
         vertex -4.174609e+002 -1.251953e+002 0.000000e+000
         vertex -4.174609e+002 -1.251953e+002 5.000000e+000
      endloop
   endfacet
   facet normal -9.182422e-001 -3.960194e-001 0.000000e+000
      outer loop
         vertex -4.174609e+002 -1.251953e+002 5.000000e+000
         vertex -4.174609e+002 -1.251953e+002 0.000000e+000
         vertex -4.137776e+002 -1.330943e+002 0.000000e+000
      endloop
   endfacet
   facet normal -8.936031e-001 -4.488580e-001 0.000000e+000
      outer loop
         vertex -4.174609e+002 -1.251953e+002 5.000000e+000
         vertex -4.137776e+002 -1.330943e+002 0.000000e+000
         vertex -4.137776e+002 -1.330943e+002 5.000000e+000
      endloop
   endfacet
   facet normal -8.355240e-001 -5.494540e-001 0.000000e+000
      outer loop
         vertex -4.137776e+002 -1.330943e+002 5.000000e+000
         vertex -4.137776e+002 -1.330943e+002 0.000000e+000
         vertex -4.087785e+002 -1.402337e+002 0.000000e+000
      endloop
   endfacet
   facet normal -8.020838e-001 -5.972114e-001 0.000000e+000
      outer loop
         vertex -4.137776e+002 -1.330943e+002 5.000000e+000
         vertex -4.087785e+002 -1.402337e+002 0.000000e+000
         vertex -4.087785e+002 -1.402337e+002 5.000000e+000
      endloop
   endfacet
   facet normal -7.274188e-001 -6.861938e-001 0.000000e+000
      outer loop
         vertex -4.087785e+002 -1.402337e+002 5.000000e+000
         vertex -4.087785e+002 -1.402337e+002 0.000000e+000
         vertex -4.026157e+002 -1.463965e+002 0.000000e+000
      endloop
   endfacet
   facet normal -6.861938e-001 -7.274188e-001 0.000000e+000
      outer loop
         vertex -4.087785e+002 -1.402337e+002 5.000000e+000
         vertex -4.026157e+002 -1.463965e+002 0.000000e+000
         vertex -4.026157e+002 -1.463965e+002 5.000000e+000
      endloop
   endfacet
   facet normal -6.420110e-001 -7.666954e-001 0.000000e+000
      outer loop
         vertex -4.026157e+002 -1.463965e+002 5.000000e+000
         vertex -4.026157e+002 -1.463965e+002 0.000000e+000
         vertex -4.024907e+002 -1.464841e+002 5.000000e+000
      endloop
   endfacet
   facet normal -4.488580e-001 -8.936031e-001 0.000000e+000
      outer loop
         vertex -6.576488e+001 -3.417546e+002 5.000000e+000
         vertex -6.576488e+001 -3.417546e+002 0.000000e+000
         vertex -5.786588e+001 -3.454380e+002 0.000000e+000
      endloop
   endfacet
   facet normal -3.960194e-001 -9.182422e-001 0.000000e+000
      outer loop
         vertex -6.576488e+001 -3.417546e+002 5.000000e+000
         vertex -5.786588e+001 -3.454380e+002 0.000000e+000
         vertex -5.786588e+001 -3.454380e+002 5.000000e+000
      endloop
   endfacet
   facet normal -2.868663e-001 -9.579706e-001 0.000000e+000
      outer loop
         vertex -5.786588e+001 -3.454380e+002 5.000000e+000
         vertex -5.786588e+001 -3.454380e+002 0.000000e+000
         vertex -4.944728e+001 -3.476937e+002 0.000000e+000
      endloop
   endfacet
   facet normal -2.305519e-001 -9.730600e-001 0.000000e+000
      outer loop
         vertex -5.786588e+001 -3.454380e+002 5.000000e+000
         vertex -4.944728e+001 -3.476937e+002 0.000000e+000
         vertex -4.944728e+001 -3.476937e+002 5.000000e+000
      endloop
   endfacet
   facet normal -1.161583e-001 -9.932307e-001 0.000000e+000
      outer loop
         vertex -4.944728e+001 -3.476937e+002 5.000000e+000
         vertex -4.944728e+001 -3.476937e+002 0.000000e+000
         vertex -4.076488e+001 -3.484533e+002 0.000000e+000
      endloop
   endfacet
   facet normal -5.807913e-002 -9.983119e-001 0.000000e+000
      outer loop
         vertex -4.944728e+001 -3.476937e+002 5.000000e+000
         vertex -4.076488e+001 -3.484533e+002 0.000000e+000
         vertex -4.076488e+001 -3.484533e+002 5.000000e+000
      endloop
   endfacet
   facet normal 3.432471e-003 -9.999941e-001 0.000000e+000
      outer loop
         vertex -4.076488e+001 -3.484533e+002 5.000000e+000
         vertex -4.076488e+001 -3.484533e+002 0.000000e+000
         vertex -4.025045e+001 -3.484083e+002 5.000000e+000
      endloop
   endfacet
   facet normal 6.151165e-002 -9.981064e-001 0.000000e+000
      outer loop
         vertex -4.025045e+001 -3.484083e+002 5.000000e+000
         vertex -4.076488e+001 -3.484533e+002 0.000000e+000
         vertex -3.208247e+001 -3.476937e+002 0.000000e+000
      endloop
   endfacet
   facet normal 1.195559e-001 -9.928275e-001 0.000000e+000
      outer loop
         vertex -4.025045e+001 -3.484083e+002 5.000000e+000
         vertex -3.208247e+001 -3.476937e+002 0.000000e+000
         vertex -3.208247e+001 -3.476937e+002 5.000000e+000
      endloop
   endfacet
   facet normal 2.305519e-001 -9.730600e-001 0.000000e+000
      outer loop
         vertex -3.208247e+001 -3.476937e+002 5.000000e+000
         vertex -3.208247e+001 -3.476937e+002 0.000000e+000
         vertex -2.366387e+001 -3.454380e+002 0.000000e+000
      endloop
   endfacet
   facet normal 2.868663e-001 -9.579706e-001 0.000000e+000
      outer loop
         vertex -3.208247e+001 -3.476937e+002 5.000000e+000
         vertex -2.366387e+001 -3.454380e+002 0.000000e+000
         vertex -2.366387e+001 -3.454380e+002 5.000000e+000
      endloop
   endfacet
   facet normal 3.960194e-001 -9.182422e-001 0.000000e+000
      outer loop
         vertex -2.366387e+001 -3.454380e+002 5.000000e+000
         vertex -2.366387e+001 -3.454380e+002 0.000000e+000
         vertex -1.576488e+001 -3.417546e+002 0.000000e+000
      endloop
   endfacet
   facet normal 4.488580e-001 -8.936031e-001 0.000000e+000
      outer loop
         vertex -2.366387e+001 -3.454380e+002 5.000000e+000
         vertex -1.576488e+001 -3.417546e+002 0.000000e+000
         vertex -1.576488e+001 -3.417546e+002 5.000000e+000
      endloop
   endfacet
   facet normal 5.097438e-001 -8.603262e-001 0.000000e+000
      outer loop
         vertex -1.576488e+001 -3.417546e+002 5.000000e+000
         vertex -1.576488e+001 -3.417546e+002 0.000000e+000
         vertex -1.437610e+001 -3.407821e+002 5.000000e+000
      endloop
   endfacet
   facet normal 5.588692e-001 -8.292558e-001 0.000000e+000
      outer loop
         vertex -1.437610e+001 -3.407821e+002 5.000000e+000
         vertex -1.576488e+001 -3.417546e+002 0.000000e+000
         vertex -8.625495e+000 -3.367556e+002 0.000000e+000
      endloop
   endfacet
   facet normal 6.062026e-001 -7.953103e-001 0.000000e+000
      outer loop
         vertex -1.437610e+001 -3.407821e+002 5.000000e+000
         vertex -8.625495e+000 -3.367556e+002 0.000000e+000
         vertex -8.625495e+000 -3.367556e+002 5.000000e+000
      endloop
   endfacet
   facet normal 6.861938e-001 -7.274188e-001 0.000000e+000
      outer loop
         vertex -8.625495e+000 -3.367556e+002 5.000000e+000
         vertex -8.625495e+000 -3.367556e+002 0.000000e+000
         vertex -2.462654e+000 -3.305927e+002 0.000000e+000
      endloop
   endfacet
   facet normal 7.274188e-001 -6.861938e-001 0.000000e+000
      outer loop
         vertex -8.625495e+000 -3.367556e+002 5.000000e+000
         vertex -2.462654e+000 -3.305927e+002 0.000000e+000
         vertex -2.462654e+000 -3.305927e+002 5.000000e+000
      endloop
   endfacet
   facet normal 8.020838e-001 -5.972114e-001 0.000000e+000
      outer loop
         vertex -2.462654e+000 -3.305927e+002 5.000000e+000
         vertex -2.462654e+000 -3.305927e+002 0.000000e+000
         vertex 2.536394e+000 -3.234533e+002 0.000000e+000
      endloop
   endfacet
   facet normal 8.355240e-001 -5.494540e-001 0.000000e+000
      outer loop
         vertex -2.462654e+000 -3.305927e+002 5.000000e+000
         vertex 2.536394e+000 -3.234533e+002 0.000000e+000
         vertex 2.536394e+000 -3.234533e+002 5.000000e+000
      endloop
   endfacet
   facet normal 8.936031e-001 -4.488580e-001 0.000000e+000
      outer loop
         vertex 2.536394e+000 -3.234533e+002 5.000000e+000
         vertex 2.536394e+000 -3.234533e+002 0.000000e+000
         vertex 6.219755e+000 -3.155543e+002 0.000000e+000
      endloop
   endfacet
   facet normal 9.182422e-001 -3.960194e-001 0.000000e+000
      outer loop
         vertex 2.536394e+000 -3.234533e+002 5.000000e+000
         vertex 6.219755e+000 -3.155543e+002 0.000000e+000
         vertex 6.219755e+000 -3.155543e+002 5.000000e+000
      endloop
   endfacet
   facet normal 9.579706e-001 -2.868663e-001 0.000000e+000
      outer loop
         vertex 6.219755e+000 -3.155543e+002 5.000000e+000
         vertex 6.219755e+000 -3.155543e+002 0.000000e+000
         vertex 8.475512e+000 -3.071357e+002 0.000000e+000
      endloop
   endfacet
   facet normal 9.730600e-001 -2.305519e-001 0.000000e+000
      outer loop
         vertex 6.219755e+000 -3.155543e+002 5.000000e+000
         vertex 8.475512e+000 -3.071357e+002 0.000000e+000
         vertex 8.475512e+000 -3.071357e+002 5.000000e+000
      endloop
   endfacet
   facet normal 9.932307e-001 -1.161583e-001 0.000000e+000
      outer loop
         vertex 8.475512e+000 -3.071357e+002 5.000000e+000
         vertex 8.475512e+000 -3.071357e+002 0.000000e+000
         vertex 9.235124e+000 -2.984533e+002 0.000000e+000
      endloop
   endfacet
   facet normal 9.983119e-001 -5.807913e-002 0.000000e+000
      outer loop
         vertex 8.475512e+000 -3.071357e+002 5.000000e+000
         vertex 9.235124e+000 -2.984533e+002 0.000000e+000
         vertex 9.235124e+000 -2.984533e+002 5.000000e+000
      endloop
   endfacet
   facet normal 5.337611e-016 -1.000000e+000 0.000000e+000
      outer loop
         vertex 5.235125e+000 6.690568e+001 2.000000e+001
         vertex -2.076488e+001 6.690568e+001 2.000000e+001
         vertex 5.235125e+000 6.690568e+001 5.000000e+000
      endloop
   endfacet
   facet normal 5.337611e-016 -1.000000e+000 0.000000e+000
      outer loop
         vertex 5.235125e+000 6.690568e+001 5.000000e+000
         vertex -2.076488e+001 6.690568e+001 2.000000e+001
         vertex -2.076488e+001 6.690568e+001 5.000000e+000
      endloop
   endfacet
   facet normal 1.000000e+000 0.000000e+000 0.000000e+000
      outer loop
         vertex 5.235125e+000 7.190567e+001 2.000000e+001
         vertex 5.235125e+000 6.690568e+001 2.000000e+001
         vertex 5.235125e+000 7.190567e+001 5.000000e+000
      endloop
   endfacet
   facet normal 1.000000e+000 0.000000e+000 0.000000e+000
      outer loop
         vertex 5.235125e+000 7.190567e+001 5.000000e+000
         vertex 5.235125e+000 6.690568e+001 2.000000e+001
         vertex 5.235125e+000 6.690568e+001 5.000000e+000
      endloop
   endfacet
   facet normal 0.000000e+000 1.000000e+000 0.000000e+000
      outer loop
         vertex -2.076488e+001 7.190567e+001 5.000000e+000
         vertex -2.076488e+001 7.190567e+001 2.000000e+001
         vertex 5.235125e+000 7.190567e+001 5.000000e+000
      endloop
   endfacet
   facet normal 0.000000e+000 1.000000e+000 0.000000e+000
      outer loop
         vertex 5.235125e+000 7.190567e+001 5.000000e+000
         vertex -2.076488e+001 7.190567e+001 2.000000e+001
         vertex 5.235125e+000 7.190567e+001 2.000000e+001
      endloop
   endfacet
   facet normal -1.000000e+000 0.000000e+000 0.000000e+000
      outer loop
         vertex -2.076488e+001 6.690568e+001 2.000000e+001
         vertex -2.076488e+001 7.190567e+001 2.000000e+001
         vertex -2.076488e+001 6.690568e+001 5.000000e+000
      endloop
   endfacet
   facet normal -1.000000e+000 0.000000e+000 0.000000e+000
      outer loop
         vertex -2.076488e+001 6.690568e+001 5.000000e+000
         vertex -2.076488e+001 7.190567e+001 2.000000e+001
         vertex -2.076488e+001 7.190567e+001 5.000000e+000
      endloop
   endfacet
   facet normal 0.000000e+000 0.000000e+000 1.000000e+000
      outer loop
         vertex 5.235125e+000 7.190567e+001 2.000000e+001
         vertex -2.076488e+001 7.190567e+001 2.000000e+001
         vertex 5.235125e+000 6.690568e+001 2.000000e+001
      endloop
   endfacet
   facet normal 0.000000e+000 0.000000e+000 1.000000e+000
      outer loop
         vertex 5.235125e+000 6.690568e+001 2.000000e+001
         vertex -2.076488e+001 7.190567e+001 2.000000e+001
         vertex -2.076488e+001 6.690568e+001 2.000000e+001
      endloop
   endfacet
   facet normal 8.660254e-001 5.000000e-001 0.000000e+000
      outer loop
         vertex -7.273602e+001 1.169223e+002 2.000000e+001
         vertex -5.973602e+001 9.440567e+001 2.000000e+001
         vertex -7.273602e+001 1.169223e+002 5.000000e+000
      endloop
   endfacet
   facet normal 8.660254e-001 5.000000e-001 0.000000e+000
      outer loop
         vertex -7.273602e+001 1.169223e+002 5.000000e+000
         vertex -5.973602e+001 9.440567e+001 2.000000e+001
         vertex -5.973602e+001 9.440567e+001 5.000000e+000
      endloop
   endfacet
   facet normal -5.000000e-001 8.660254e-001 0.000000e+000
      outer loop
         vertex -7.706615e+001 1.144223e+002 2.000000e+001
         vertex -7.273602e+001 1.169223e+002 2.000000e+001
         vertex -7.706615e+001 1.144223e+002 5.000000e+000
      endloop
   endfacet
   facet normal -5.000000e-001 8.660254e-001 0.000000e+000
      outer loop
         vertex -7.706615e+001 1.144223e+002 5.000000e+000
         vertex -7.273602e+001 1.169223e+002 2.000000e+001
         vertex -7.273602e+001 1.169223e+002 5.000000e+000
      endloop
   endfacet
   facet normal -8.660254e-001 -5.000000e-001 0.000000e+000
      outer loop
         vertex -6.406615e+001 9.190568e+001 5.000000e+000
         vertex -6.406615e+001 9.190568e+001 2.000000e+001
         vertex -7.706615e+001 1.144223e+002 5.000000e+000
      endloop
   endfacet
   facet normal -8.660254e-001 -5.000000e-001 0.000000e+000
      outer loop
         vertex -7.706615e+001 1.144223e+002 5.000000e+000
         vertex -6.406615e+001 9.190568e+001 2.000000e+001
         vertex -7.706615e+001 1.144223e+002 2.000000e+001
      endloop
   endfacet
   facet normal 5.000000e-001 -8.660254e-001 0.000000e+000
      outer loop
         vertex -5.973602e+001 9.440567e+001 5.000000e+000
         vertex -5.973602e+001 9.440567e+001 2.000000e+001
         vertex -6.406615e+001 9.190568e+001 5.000000e+000
      endloop
   endfacet
   facet normal 5.000000e-001 -8.660254e-001 0.000000e+000
      outer loop
         vertex -6.406615e+001 9.190568e+001 5.000000e+000
         vertex -5.973602e+001 9.440567e+001 2.000000e+001
         vertex -6.406615e+001 9.190568e+001 2.000000e+001
      endloop
   endfacet
   facet normal 0.000000e+000 0.000000e+000 1.000000e+000
      outer loop
         vertex -7.706615e+001 1.144223e+002 2.000000e+001
         vertex -6.406615e+001 9.190568e+001 2.000000e+001
         vertex -7.273602e+001 1.169223e+002 2.000000e+001
      endloop
   endfacet
   facet normal 0.000000e+000 0.000000e+000 1.000000e+000
      outer loop
         vertex -7.273602e+001 1.169223e+002 2.000000e+001
         vertex -6.406615e+001 9.190568e+001 2.000000e+001
         vertex -5.973602e+001 9.440567e+001 2.000000e+001
      endloop
   endfacet
   facet normal 8.660254e-001 5.000000e-001 0.000000e+000
      outer loop
         vertex -3.801750e+002 -6.057766e+001 2.000000e+001
         vertex -3.671750e+002 -8.309433e+001 2.000000e+001
         vertex -3.801750e+002 -6.057766e+001 5.000000e+000
      endloop
   endfacet
   facet normal 8.660254e-001 5.000000e-001 0.000000e+000
      outer loop
         vertex -3.801750e+002 -6.057766e+001 5.000000e+000
         vertex -3.671750e+002 -8.309433e+001 2.000000e+001
         vertex -3.671750e+002 -8.309433e+001 5.000000e+000
      endloop
   endfacet
   facet normal -5.000000e-001 8.660254e-001 0.000000e+000
      outer loop
         vertex -3.845052e+002 -6.307767e+001 2.000000e+001
         vertex -3.801750e+002 -6.057766e+001 2.000000e+001
         vertex -3.845052e+002 -6.307767e+001 5.000000e+000
      endloop
   endfacet
   facet normal -5.000000e-001 8.660254e-001 0.000000e+000
      outer loop
         vertex -3.845052e+002 -6.307767e+001 5.000000e+000
         vertex -3.801750e+002 -6.057766e+001 2.000000e+001
         vertex -3.801750e+002 -6.057766e+001 5.000000e+000
      endloop
   endfacet
   facet normal -8.660254e-001 -5.000000e-001 0.000000e+000
      outer loop
         vertex -3.715052e+002 -8.559433e+001 5.000000e+000
         vertex -3.715052e+002 -8.559433e+001 2.000000e+001
         vertex -3.845052e+002 -6.307767e+001 5.000000e+000
      endloop
   endfacet
   facet normal -8.660254e-001 -5.000000e-001 0.000000e+000
      outer loop
         vertex -3.845052e+002 -6.307767e+001 5.000000e+000
         vertex -3.715052e+002 -8.559433e+001 2.000000e+001
         vertex -3.845052e+002 -6.307767e+001 2.000000e+001
      endloop
   endfacet
   facet normal 5.000000e-001 -8.660254e-001 0.000000e+000
      outer loop
         vertex -3.671750e+002 -8.309433e+001 5.000000e+000
         vertex -3.671750e+002 -8.309433e+001 2.000000e+001
         vertex -3.715052e+002 -8.559433e+001 5.000000e+000
      endloop
   endfacet
   facet normal 5.000000e-001 -8.660254e-001 0.000000e+000
      outer loop
         vertex -3.715052e+002 -8.559433e+001 5.000000e+000
         vertex -3.671750e+002 -8.309433e+001 2.000000e+001
         vertex -3.715052e+002 -8.559433e+001 2.000000e+001
      endloop
   endfacet
   facet normal 0.000000e+000 0.000000e+000 1.000000e+000
      outer loop
         vertex -3.845052e+002 -6.307767e+001 2.000000e+001
         vertex -3.715052e+002 -8.559433e+001 2.000000e+001
         vertex -3.801750e+002 -6.057766e+001 2.000000e+001
      endloop
   endfacet
   facet normal 0.000000e+000 0.000000e+000 1.000000e+000
      outer loop
         vertex -3.801750e+002 -6.057766e+001 2.000000e+001
         vertex -3.715052e+002 -8.559433e+001 2.000000e+001
         vertex -3.671750e+002 -8.309433e+001 2.000000e+001
      endloop
   endfacet
   facet normal -8.660254e-001 5.000000e-001 0.000000e+000
      outer loop
         vertex -3.845052e+002 -1.531110e+002 2.000000e+001
         vertex -3.715052e+002 -1.305943e+002 2.000000e+001
         vertex -3.845052e+002 -1.531110e+002 5.000000e+000
      endloop
   endfacet
   facet normal -8.660254e-001 5.000000e-001 0.000000e+000
      outer loop
         vertex -3.845052e+002 -1.531110e+002 5.000000e+000
         vertex -3.715052e+002 -1.305943e+002 2.000000e+001
         vertex -3.715052e+002 -1.305943e+002 5.000000e+000
      endloop
   endfacet
   facet normal -5.000000e-001 -8.660254e-001 0.000000e+000
      outer loop
         vertex -3.801750e+002 -1.556110e+002 2.000000e+001
         vertex -3.845052e+002 -1.531110e+002 2.000000e+001
         vertex -3.801750e+002 -1.556110e+002 5.000000e+000
      endloop
   endfacet
   facet normal -5.000000e-001 -8.660254e-001 0.000000e+000
      outer loop
         vertex -3.801750e+002 -1.556110e+002 5.000000e+000
         vertex -3.845052e+002 -1.531110e+002 2.000000e+001
         vertex -3.845052e+002 -1.531110e+002 5.000000e+000
      endloop
   endfacet
   facet normal 8.660254e-001 -5.000000e-001 0.000000e+000
      outer loop
         vertex -3.671750e+002 -1.330943e+002 5.000000e+000
         vertex -3.671750e+002 -1.330943e+002 2.000000e+001
         vertex -3.801750e+002 -1.556110e+002 5.000000e+000
      endloop
   endfacet
   facet normal 8.660254e-001 -5.000000e-001 0.000000e+000
      outer loop
         vertex -3.801750e+002 -1.556110e+002 5.000000e+000
         vertex -3.671750e+002 -1.330943e+002 2.000000e+001
         vertex -3.801750e+002 -1.556110e+002 2.000000e+001
      endloop
   endfacet
   facet normal 5.000000e-001 8.660254e-001 0.000000e+000
      outer loop
         vertex -3.715052e+002 -1.305943e+002 5.000000e+000
         vertex -3.715052e+002 -1.305943e+002 2.000000e+001
         vertex -3.671750e+002 -1.330943e+002 5.000000e+000
      endloop
   endfacet
   facet normal 5.000000e-001 8.660254e-001 0.000000e+000
      outer loop
         vertex -3.671750e+002 -1.330943e+002 5.000000e+000
         vertex -3.715052e+002 -1.305943e+002 2.000000e+001
         vertex -3.671750e+002 -1.330943e+002 2.000000e+001
      endloop
   endfacet
   facet normal 0.000000e+000 0.000000e+000 1.000000e+000
      outer loop
         vertex -3.801750e+002 -1.556110e+002 2.000000e+001
         vertex -3.671750e+002 -1.330943e+002 2.000000e+001
         vertex -3.845052e+002 -1.531110e+002 2.000000e+001
      endloop
   endfacet
   facet normal 0.000000e+000 0.000000e+000 1.000000e+000
      outer loop
         vertex -3.845052e+002 -1.531110e+002 2.000000e+001
         vertex -3.671750e+002 -1.330943e+002 2.000000e+001
         vertex -3.715052e+002 -1.305943e+002 2.000000e+001
      endloop
   endfacet
   facet normal -8.660254e-001 5.000000e-001 0.000000e+000
      outer loop
         vertex -7.706615e+001 -3.306110e+002 2.000000e+001
         vertex -6.406615e+001 -3.080943e+002 2.000000e+001
         vertex -7.706615e+001 -3.306110e+002 5.000000e+000
      endloop
   endfacet
   facet normal -8.660254e-001 5.000000e-001 0.000000e+000
      outer loop
         vertex -7.706615e+001 -3.306110e+002 5.000000e+000
         vertex -6.406615e+001 -3.080943e+002 2.000000e+001
         vertex -6.406615e+001 -3.080943e+002 5.000000e+000
      endloop
   endfacet
   facet normal -5.000000e-001 -8.660254e-001 0.000000e+000
      outer loop
         vertex -7.273602e+001 -3.331110e+002 2.000000e+001
         vertex -7.706615e+001 -3.306110e+002 2.000000e+001
         vertex -7.273602e+001 -3.331110e+002 5.000000e+000
      endloop
   endfacet
   facet normal -5.000000e-001 -8.660254e-001 0.000000e+000
      outer loop
         vertex -7.273602e+001 -3.331110e+002 5.000000e+000
         vertex -7.706615e+001 -3.306110e+002 2.000000e+001
         vertex -7.706615e+001 -3.306110e+002 5.000000e+000
      endloop
   endfacet
   facet normal 8.660254e-001 -5.000000e-001 0.000000e+000
      outer loop
         vertex -5.973602e+001 -3.105943e+002 5.000000e+000
         vertex -5.973602e+001 -3.105943e+002 2.000000e+001
         vertex -7.273602e+001 -3.331110e+002 5.000000e+000
      endloop
   endfacet
   facet normal 8.660254e-001 -5.000000e-001 0.000000e+000
      outer loop
         vertex -7.273602e+001 -3.331110e+002 5.000000e+000
         vertex -5.973602e+001 -3.105943e+002 2.000000e+001
         vertex -7.273602e+001 -3.331110e+002 2.000000e+001
      endloop
   endfacet
   facet normal 5.000000e-001 8.660254e-001 0.000000e+000
      outer loop
         vertex -6.406615e+001 -3.080943e+002 5.000000e+000
         vertex -6.406615e+001 -3.080943e+002 2.000000e+001
         vertex -5.973602e+001 -3.105943e+002 5.000000e+000
      endloop
   endfacet
   facet normal 5.000000e-001 8.660254e-001 0.000000e+000
      outer loop
         vertex -5.973602e+001 -3.105943e+002 5.000000e+000
         vertex -6.406615e+001 -3.080943e+002 2.000000e+001
         vertex -5.973602e+001 -3.105943e+002 2.000000e+001
      endloop
   endfacet
   facet normal 0.000000e+000 0.000000e+000 1.000000e+000
      outer loop
         vertex -7.273602e+001 -3.331110e+002 2.000000e+001
         vertex -5.973602e+001 -3.105943e+002 2.000000e+001
         vertex -7.706615e+001 -3.306110e+002 2.000000e+001
      endloop
   endfacet
   facet normal 0.000000e+000 0.000000e+000 1.000000e+000
      outer loop
         vertex -7.706615e+001 -3.306110e+002 2.000000e+001
         vertex -5.973602e+001 -3.105943e+002 2.000000e+001
         vertex -6.406615e+001 -3.080943e+002 2.000000e+001
      endloop
   endfacet
   facet normal 1.000000e+000 0.000000e+000 0.000000e+000
      outer loop
         vertex 5.235125e+000 -2.830943e+002 5.000000e+000
         vertex 5.235125e+000 -2.830943e+002 2.000000e+001
         vertex 5.235125e+000 -2.880943e+002 5.000000e+000
      endloop
   endfacet
   facet normal 1.000000e+000 0.000000e+000 0.000000e+000
      outer loop
         vertex 5.235125e+000 -2.880943e+002 5.000000e+000
         vertex 5.235125e+000 -2.830943e+002 2.000000e+001
         vertex 5.235125e+000 -2.880943e+002 2.000000e+001
      endloop
   endfacet
   facet normal 2.135044e-015 1.000000e+000 0.000000e+000
      outer loop
         vertex -2.076488e+001 -2.830943e+002 5.000000e+000
         vertex -2.076488e+001 -2.830943e+002 2.000000e+001
         vertex 5.235125e+000 -2.830943e+002 5.000000e+000
      endloop
   endfacet
   facet normal 2.135044e-015 1.000000e+000 0.000000e+000
      outer loop
         vertex 5.235125e+000 -2.830943e+002 5.000000e+000
         vertex -2.076488e+001 -2.830943e+002 2.000000e+001
         vertex 5.235125e+000 -2.830943e+002 2.000000e+001
      endloop
   endfacet
   facet normal -1.000000e+000 6.938894e-016 0.000000e+000
      outer loop
         vertex -2.076488e+001 -2.880943e+002 2.000000e+001
         vertex -2.076488e+001 -2.830943e+002 2.000000e+001
         vertex -2.076488e+001 -2.880943e+002 5.000000e+000
      endloop
   endfacet
   facet normal -1.000000e+000 6.938894e-016 0.000000e+000
      outer loop
         vertex -2.076488e+001 -2.880943e+002 5.000000e+000
         vertex -2.076488e+001 -2.830943e+002 2.000000e+001
         vertex -2.076488e+001 -2.830943e+002 5.000000e+000
      endloop
   endfacet
   facet normal 0.000000e+000 -1.000000e+000 0.000000e+000
      outer loop
         vertex 5.235125e+000 -2.880943e+002 2.000000e+001
         vertex -2.076488e+001 -2.880943e+002 2.000000e+001
         vertex 5.235125e+000 -2.880943e+002 5.000000e+000
      endloop
   endfacet
   facet normal 0.000000e+000 -1.000000e+000 0.000000e+000
      outer loop
         vertex 5.235125e+000 -2.880943e+002 5.000000e+000
         vertex -2.076488e+001 -2.880943e+002 2.000000e+001
         vertex -2.076488e+001 -2.880943e+002 5.000000e+000
      endloop
   endfacet
   facet normal 0.000000e+000 0.000000e+000 1.000000e+000
      outer loop
         vertex -2.076488e+001 -2.830943e+002 2.000000e+001
         vertex -2.076488e+001 -2.880943e+002 2.000000e+001
         vertex 5.235125e+000 -2.830943e+002 2.000000e+001
      endloop
   endfacet
   facet normal 0.000000e+000 0.000000e+000 1.000000e+000
      outer loop
         vertex 5.235125e+000 -2.830943e+002 2.000000e+001
         vertex -2.076488e+001 -2.880943e+002 2.000000e+001
         vertex 5.235125e+000 -2.880943e+002 2.000000e+001
      endloop
   endfacet
endsolid