solid Test2_Default_sldprt
   facet normal -1.000000e+000 0.000000e+000 0.000000e+000
      outer loop
         vertex -2.500000e+001 -5.000000e+000 3.000000e+001
         vertex -2.500000e+001 5.000000e+000 3.000000e+001
         vertex -2.500000e+001 -5.000000e+000 0.000000e+000
      endloop
   endfacet
   facet normal -1.000000e+000 0.000000e+000 0.000000e+000
      outer loop
         vertex -2.500000e+001 -5.000000e+000 0.000000e+000
         vertex -2.500000e+001 5.000000e+000 3.000000e+001
         vertex -2.500000e+001 5.000000e+000 0.000000e+000
      endloop
   endfacet
   facet normal 1.387779e-016 -1.000000e+000 0.000000e+000
      outer loop
         vertex 2.500000e+001 -5.000000e+000 3.000000e+001
         vertex -2.500000e+001 -5.000000e+000 3.000000e+001
         vertex 2.500000e+001 -5.000000e+000 0.000000e+000
      endloop
   endfacet
   facet normal 1.387779e-016 -1.000000e+000 0.000000e+000
      outer loop
         vertex 2.500000e+001 -5.000000e+000 0.000000e+000
         vertex -2.500000e+001 -5.000000e+000 3.000000e+001
         vertex -2.500000e+001 -5.000000e+000 0.000000e+000
      endloop
   endfacet
   facet normal 1.000000e+000 0.000000e+000 0.000000e+000
      outer loop
         vertex 2.500000e+001 5.000000e+000 3.000000e+001
         vertex 2.500000e+001 -5.000000e+000 3.000000e+001
         vertex 2.500000e+001 5.000000e+000 0.000000e+000
      endloop
   endfacet
   facet normal 1.000000e+000 0.000000e+000 0.000000e+000
      outer loop
         vertex 2.500000e+001 5.000000e+000 0.000000e+000
         vertex 2.500000e+001 -5.000000e+000 3.000000e+001
         vertex 2.500000e+001 -5.000000e+000 0.000000e+000
      endloop
   endfacet
   facet normal -1.387779e-016 1.000000e+000 0.000000e+000
      outer loop
         vertex -2.500000e+001 5.000000e+000 3.000000e+001
         vertex 2.500000e+001 5.000000e+000 3.000000e+001
         vertex -2.500000e+001 5.000000e+000 0.000000e+000
      endloop
   endfacet
   facet normal -1.387779e-016 1.000000e+000 0.000000e+000
      outer loop
         vertex -2.500000e+001 5.000000e+000 0.000000e+000
         vertex 2.500000e+001 5.000000e+000 3.000000e+001
         vertex 2.500000e+001 5.000000e+000 0.000000e+000
      endloop
   endfacet
   facet normal 0.000000e+000 0.000000e+000 1.000000e+000
      outer loop
         vertex 2.500000e+001 -5.000000e+000 3.000000e+001
         vertex 2.500000e+001 5.000000e+000 3.000000e+001
         vertex -2.500000e+001 -5.000000e+000 3.000000e+001
      endloop
   endfacet
   facet normal 0.000000e+000 0.000000e+000 1.000000e+000
      outer loop
         vertex -2.500000e+001 -5.000000e+000 3.000000e+001
         vertex 2.500000e+001 5.000000e+000 3.000000e+001
         vertex -2.500000e+001 5.000000e+000 3.000000e+001
      endloop
   endfacet
   facet normal 0.000000e+000 0.000000e+000 -1.000000e+000
      outer loop
         vertex 2.500000e+001 5.000000e+000 0.000000e+000
         vertex 2.500000e+001 -5.000000e+000 0.000000e+000
         vertex -2.500000e+001 5.000000e+000 0.000000e+000
      endloop
   endfacet
   facet normal 0.000000e+000 0.000000e+000 -1.000000e+000
      outer loop
         vertex -2.500000e+001 5.000000e+000 0.000000e+000
         vertex 2.500000e+001 -5.000000e+000 0.000000e+000
         vertex -2.500000e+001 -5.000000e+000 0.000000e+000
      endloop
   endfacet
endsolid