solid Test1_Default_sldprt
   facet normal -1.000000e+000 0.000000e+000 0.000000e+000
      outer loop
         vertex -7.500000e+001 2.500000e+001 1.000000e+001
         vertex -7.500000e+001 2.500000e+001 0.000000e+000
         vertex -7.500000e+001 -2.500000e+001 1.000000e+001
      endloop
   endfacet
   facet normal -1.000000e+000 0.000000e+000 0.000000e+000
      outer loop
         vertex -7.500000e+001 -2.500000e+001 1.000000e+001
         vertex -7.500000e+001 2.500000e+001 0.000000e+000
         vertex -7.500000e+001 -2.500000e+001 0.000000e+000
      endloop
   endfacet
   facet normal 1.387779e-016 -1.000000e+000 0.000000e+000
      outer loop
         vertex -7.500000e+001 -2.500000e+001 1.000000e+001
         vertex -7.500000e+001 -2.500000e+001 0.000000e+000
         vertex 6.500000e+001 -2.500000e+001 1.000000e+001
      endloop
   endfacet
   facet normal 1.387779e-016 -1.000000e+000 0.000000e+000
      outer loop
         vertex 6.500000e+001 -2.500000e+001 1.000000e+001
         vertex -7.500000e+001 -2.500000e+001 0.000000e+000
         vertex 7.500000e+001 -2.500000e+001 0.000000e+000
      endloop
   endfacet
   facet normal 1.387779e-016 -1.000000e+000 0.000000e+000
      outer loop
         vertex 6.500000e+001 -2.500000e+001 1.000000e+001
         vertex 7.500000e+001 -2.500000e+001 0.000000e+000
         vertex 6.500000e+001 -2.500000e+001 5.000000e+001
      endloop
   endfacet
   facet normal 1.387779e-016 -1.000000e+000 0.000000e+000
      outer loop
         vertex 6.500000e+001 -2.500000e+001 5.000000e+001
         vertex 7.500000e+001 -2.500000e+001 0.000000e+000
         vertex 7.500000e+001 -2.500000e+001 5.000000e+001
      endloop
   endfacet
   facet normal 1.000000e+000 0.000000e+000 0.000000e+000
      outer loop
         vertex 7.500000e+001 2.500000e+001 5.000000e+001
         vertex 7.500000e+001 -2.500000e+001 5.000000e+001
         vertex 7.500000e+001 2.500000e+001 0.000000e+000
      endloop
   endfacet
   facet normal 1.000000e+000 0.000000e+000 0.000000e+000
      outer loop
         vertex 7.500000e+001 2.500000e+001 0.000000e+000
         vertex 7.500000e+001 -2.500000e+001 5.000000e+001
         vertex 7.500000e+001 -2.500000e+001 0.000000e+000
      endloop
   endfacet
   facet normal -1.387779e-016 1.000000e+000 0.000000e+000
      outer loop
         vertex 6.500000e+001 2.500000e+001 5.000000e+001
         vertex 7.500000e+001 2.500000e+001 5.000000e+001
         vertex 6.500000e+001 2.500000e+001 1.000000e+001
      endloop
   endfacet
   facet normal -1.387779e-016 1.000000e+000 0.000000e+000
      outer loop
         vertex 6.500000e+001 2.500000e+001 1.000000e+001
         vertex 7.500000e+001 2.500000e+001 5.000000e+001
         vertex 7.500000e+001 2.500000e+001 0.000000e+000
      endloop
   endfacet
   facet normal -1.387779e-016 1.000000e+000 0.000000e+000
      outer loop
         vertex 6.500000e+001 2.500000e+001 1.000000e+001
         vertex 7.500000e+001 2.500000e+001 0.000000e+000
         vertex -7.500000e+001 2.500000e+001 1.000000e+001
      endloop
   endfacet
   facet normal -1.387779e-016 1.000000e+000 0.000000e+000
      outer loop
         vertex -7.500000e+001 2.500000e+001 1.000000e+001
         vertex 7.500000e+001 2.500000e+001 0.000000e+000
         vertex -7.500000e+001 2.500000e+001 0.000000e+000
      endloop
   endfacet
   facet normal 0.000000e+000 0.000000e+000 1.000000e+000
      outer loop
         vertex 7.500000e+001 -2.500000e+001 5.000000e+001
         vertex 7.500000e+001 2.500000e+001 5.000000e+001
         vertex 6.500000e+001 -2.500000e+001 5.000000e+001
      endloop
   endfacet
   facet normal 0.000000e+000 0.000000e+000 1.000000e+000
      outer loop
         vertex 6.500000e+001 -2.500000e+001 5.000000e+001
         vertex 7.500000e+001 2.500000e+001 5.000000e+001
         vertex 6.500000e+001 2.500000e+001 5.000000e+001
      endloop
   endfacet
   facet normal 0.000000e+000 0.000000e+000 -1.000000e+000
      outer loop
         vertex 7.500000e+001 2.500000e+001 0.000000e+000
         vertex 7.500000e+001 -2.500000e+001 0.000000e+000
         vertex -7.500000e+001 2.500000e+001 0.000000e+000
      endloop
   endfacet
   facet normal 0.000000e+000 0.000000e+000 -1.000000e+000
      outer loop
         vertex -7.500000e+001 2.500000e+001 0.000000e+000
         vertex 7.500000e+001 -2.500000e+001 0.000000e+000
         vertex -7.500000e+001 -2.500000e+001 0.000000e+000
      endloop
   endfacet
   facet normal -1.000000e+000 -1.387779e-016 0.000000e+000
      outer loop
         vertex 6.500000e+001 2.500000e+001 5.000000e+001
         vertex 6.500000e+001 2.500000e+001 1.000000e+001
         vertex 6.500000e+001 -2.500000e+001 5.000000e+001
      endloop
   endfacet
   facet normal -1.000000e+000 -1.387779e-016 0.000000e+000
      outer loop
         vertex 6.500000e+001 -2.500000e+001 5.000000e+001
         vertex 6.500000e+001 2.500000e+001 1.000000e+001
         vertex 6.500000e+001 -2.500000e+001 1.000000e+001
      endloop
   endfacet
   facet normal 0.000000e+000 0.000000e+000 1.000000e+000
      outer loop
         vertex 6.500000e+001 2.500000e+001 1.000000e+001
         vertex -7.500000e+001 2.500000e+001 1.000000e+001
         vertex 6.500000e+001 -2.500000e+001 1.000000e+001
      endloop
   endfacet
   facet normal 0.000000e+000 0.000000e+000 1.000000e+000
      outer loop
         vertex 6.500000e+001 -2.500000e+001 1.000000e+001
         vertex -7.500000e+001 2.500000e+001 1.000000e+001
         vertex -7.500000e+001 -2.500000e+001 1.000000e+001
      endloop
   endfacet
endsolid