solid Thanh truot_Default_sldprt
   facet normal -9.932307e-001 1.161583e-001 0.000000e+000
      outer loop
         vertex -3.000000e+000 0.000000e+000 0.000000e+000
         vertex -2.954423e+000 5.209445e-001 2.100000e+002
         vertex -2.954423e+000 5.209445e-001 0.000000e+000
      endloop
   endfacet
   facet normal -9.730600e-001 2.305519e-001 0.000000e+000
      outer loop
         vertex -2.954423e+000 5.209445e-001 0.000000e+000
         vertex -2.954423e+000 5.209445e-001 2.100000e+002
         vertex -2.819078e+000 1.026060e+000 2.100000e+002
      endloop
   endfacet
   facet normal -9.579706e-001 2.868663e-001 0.000000e+000
      outer loop
         vertex -2.954423e+000 5.209445e-001 0.000000e+000
         vertex -2.819078e+000 1.026060e+000 2.100000e+002
         vertex -2.819078e+000 1.026060e+000 0.000000e+000
      endloop
   endfacet
   facet normal -9.182422e-001 3.960194e-001 0.000000e+000
      outer loop
         vertex -2.819078e+000 1.026060e+000 0.000000e+000
         vertex -2.819078e+000 1.026060e+000 2.100000e+002
         vertex -2.598076e+000 1.500000e+000 2.100000e+002
      endloop
   endfacet
   facet normal -8.936031e-001 4.488580e-001 0.000000e+000
      outer loop
         vertex -2.819078e+000 1.026060e+000 0.000000e+000
         vertex -2.598076e+000 1.500000e+000 2.100000e+002
         vertex -2.598076e+000 1.500000e+000 0.000000e+000
      endloop
   endfacet
   facet normal -8.355240e-001 5.494540e-001 0.000000e+000
      outer loop
         vertex -2.598076e+000 1.500000e+000 0.000000e+000
         vertex -2.598076e+000 1.500000e+000 2.100000e+002
         vertex -2.298133e+000 1.928363e+000 2.100000e+002
      endloop
   endfacet
   facet normal -8.020838e-001 5.972114e-001 0.000000e+000
      outer loop
         vertex -2.598076e+000 1.500000e+000 0.000000e+000
         vertex -2.298133e+000 1.928363e+000 2.100000e+002
         vertex -2.298133e+000 1.928363e+000 0.000000e+000
      endloop
   endfacet
   facet normal -7.274188e-001 6.861938e-001 0.000000e+000
      outer loop
         vertex -2.298133e+000 1.928363e+000 0.000000e+000
         vertex -2.298133e+000 1.928363e+000 2.100000e+002
         vertex -1.928363e+000 2.298133e+000 2.100000e+002
      endloop
   endfacet
   facet normal -6.861938e-001 7.274188e-001 0.000000e+000
      outer loop
         vertex -2.298133e+000 1.928363e+000 0.000000e+000
         vertex -1.928363e+000 2.298133e+000 2.100000e+002
         vertex -1.928363e+000 2.298133e+000 0.000000e+000
      endloop
   endfacet
   facet normal -5.972114e-001 8.020838e-001 0.000000e+000
      outer loop
         vertex -1.928363e+000 2.298133e+000 0.000000e+000
         vertex -1.928363e+000 2.298133e+000 2.100000e+002
         vertex -1.500000e+000 2.598076e+000 2.100000e+002
      endloop
   endfacet
   facet normal -5.494540e-001 8.355240e-001 0.000000e+000
      outer loop
         vertex -1.928363e+000 2.298133e+000 0.000000e+000
         vertex -1.500000e+000 2.598076e+000 2.100000e+002
         vertex -1.500000e+000 2.598076e+000 0.000000e+000
      endloop
   endfacet
   facet normal -4.488580e-001 8.936031e-001 0.000000e+000
      outer loop
         vertex -1.500000e+000 2.598076e+000 0.000000e+000
         vertex -1.500000e+000 2.598076e+000 2.100000e+002
         vertex -1.026060e+000 2.819078e+000 2.100000e+002
      endloop
   endfacet
   facet normal -3.960194e-001 9.182422e-001 0.000000e+000
      outer loop
         vertex -1.500000e+000 2.598076e+000 0.000000e+000
         vertex -1.026060e+000 2.819078e+000 2.100000e+002
         vertex -1.026060e+000 2.819078e+000 0.000000e+000
      endloop
   endfacet
   facet normal -2.868663e-001 9.579706e-001 0.000000e+000
      outer loop
         vertex -1.026060e+000 2.819078e+000 0.000000e+000
         vertex -1.026060e+000 2.819078e+000 2.100000e+002
         vertex -5.209445e-001 2.954423e+000 2.100000e+002
      endloop
   endfacet
   facet normal -2.305519e-001 9.730600e-001 0.000000e+000
      outer loop
         vertex -1.026060e+000 2.819078e+000 0.000000e+000
         vertex -5.209445e-001 2.954423e+000 2.100000e+002
         vertex -5.209445e-001 2.954423e+000 0.000000e+000
      endloop
   endfacet
   facet normal -1.161583e-001 9.932307e-001 0.000000e+000
      outer loop
         vertex -5.209445e-001 2.954423e+000 0.000000e+000
         vertex -5.209445e-001 2.954423e+000 2.100000e+002
         vertex -1.836970e-016 3.000000e+000 2.100000e+002
      endloop
   endfacet
   facet normal -5.807913e-002 9.983119e-001 0.000000e+000
      outer loop
         vertex -5.209445e-001 2.954423e+000 0.000000e+000
         vertex -1.836970e-016 3.000000e+000 2.100000e+002
         vertex -1.836970e-016 3.000000e+000 0.000000e+000
      endloop
   endfacet
   facet normal 5.807913e-002 9.983119e-001 0.000000e+000
      outer loop
         vertex -1.836970e-016 3.000000e+000 0.000000e+000
         vertex -1.836970e-016 3.000000e+000 2.100000e+002
         vertex 5.209445e-001 2.954423e+000 2.100000e+002
      endloop
   endfacet
   facet normal 1.161583e-001 9.932307e-001 0.000000e+000
      outer loop
         vertex -1.836970e-016 3.000000e+000 0.000000e+000
         vertex 5.209445e-001 2.954423e+000 2.100000e+002
         vertex 5.209445e-001 2.954423e+000 0.000000e+000
      endloop
   endfacet
   facet normal 2.305519e-001 9.730600e-001 0.000000e+000
      outer loop
         vertex 5.209445e-001 2.954423e+000 0.000000e+000
         vertex 5.209445e-001 2.954423e+000 2.100000e+002
         vertex 1.026060e+000 2.819078e+000 2.100000e+002
      endloop
   endfacet
   facet normal 2.868663e-001 9.579706e-001 0.000000e+000
      outer loop
         vertex 5.209445e-001 2.954423e+000 0.000000e+000
         vertex 1.026060e+000 2.819078e+000 2.100000e+002
         vertex 1.026060e+000 2.819078e+000 0.000000e+000
      endloop
   endfacet
   facet normal 3.960194e-001 9.182422e-001 0.000000e+000
      outer loop
         vertex 1.026060e+000 2.819078e+000 0.000000e+000
         vertex 1.026060e+000 2.819078e+000 2.100000e+002
         vertex 1.500000e+000 2.598076e+000 2.100000e+002
      endloop
   endfacet
   facet normal 4.488580e-001 8.936031e-001 0.000000e+000
      outer loop
         vertex 1.026060e+000 2.819078e+000 0.000000e+000
         vertex 1.500000e+000 2.598076e+000 2.100000e+002
         vertex 1.500000e+000 2.598076e+000 0.000000e+000
      endloop
   endfacet
   facet normal 5.494540e-001 8.355240e-001 0.000000e+000
      outer loop
         vertex 1.500000e+000 2.598076e+000 0.000000e+000
         vertex 1.500000e+000 2.598076e+000 2.100000e+002
         vertex 1.928363e+000 2.298133e+000 2.100000e+002
      endloop
   endfacet
   facet normal 5.972114e-001 8.020838e-001 0.000000e+000
      outer loop
         vertex 1.500000e+000 2.598076e+000 0.000000e+000
         vertex 1.928363e+000 2.298133e+000 2.100000e+002
         vertex 1.928363e+000 2.298133e+000 0.000000e+000
      endloop
   endfacet
   facet normal 6.861938e-001 7.274188e-001 0.000000e+000
      outer loop
         vertex 1.928363e+000 2.298133e+000 0.000000e+000
         vertex 1.928363e+000 2.298133e+000 2.100000e+002
         vertex 2.298133e+000 1.928363e+000 2.100000e+002
      endloop
   endfacet
   facet normal 7.274188e-001 6.861938e-001 0.000000e+000
      outer loop
         vertex 1.928363e+000 2.298133e+000 0.000000e+000
         vertex 2.298133e+000 1.928363e+000 2.100000e+002
         vertex 2.298133e+000 1.928363e+000 0.000000e+000
      endloop
   endfacet
   facet normal 8.020838e-001 5.972114e-001 0.000000e+000
      outer loop
         vertex 2.298133e+000 1.928363e+000 0.000000e+000
         vertex 2.298133e+000 1.928363e+000 2.100000e+002
         vertex 2.598076e+000 1.500000e+000 2.100000e+002
      endloop
   endfacet
   facet normal 8.355240e-001 5.494540e-001 0.000000e+000
      outer loop
         vertex 2.298133e+000 1.928363e+000 0.000000e+000
         vertex 2.598076e+000 1.500000e+000 2.100000e+002
         vertex 2.598076e+000 1.500000e+000 0.000000e+000
      endloop
   endfacet
   facet normal 8.936031e-001 4.488580e-001 0.000000e+000
      outer loop
         vertex 2.598076e+000 1.500000e+000 0.000000e+000
         vertex 2.598076e+000 1.500000e+000 2.100000e+002
         vertex 2.819078e+000 1.026060e+000 2.100000e+002
      endloop
   endfacet
   facet normal 9.182422e-001 3.960194e-001 0.000000e+000
      outer loop
         vertex 2.598076e+000 1.500000e+000 0.000000e+000
         vertex 2.819078e+000 1.026060e+000 2.100000e+002
         vertex 2.819078e+000 1.026060e+000 0.000000e+000
      endloop
   endfacet
   facet normal 9.579706e-001 2.868663e-001 0.000000e+000
      outer loop
         vertex 2.819078e+000 1.026060e+000 0.000000e+000
         vertex 2.819078e+000 1.026060e+000 2.100000e+002
         vertex 2.954423e+000 5.209445e-001 2.100000e+002
      endloop
   endfacet
   facet normal 9.730600e-001 2.305519e-001 0.000000e+000
      outer loop
         vertex 2.819078e+000 1.026060e+000 0.000000e+000
         vertex 2.954423e+000 5.209445e-001 2.100000e+002
         vertex 2.954423e+000 5.209445e-001 0.000000e+000
      endloop
   endfacet
   facet normal 9.932307e-001 1.161583e-001 0.000000e+000
      outer loop
         vertex 2.954423e+000 5.209445e-001 0.000000e+000
         vertex 2.954423e+000 5.209445e-001 2.100000e+002
         vertex 3.000000e+000 3.673940e-016 2.100000e+002
      endloop
   endfacet
   facet normal 9.983119e-001 5.807913e-002 0.000000e+000
      outer loop
         vertex 2.954423e+000 5.209445e-001 0.000000e+000
         vertex 3.000000e+000 3.673940e-016 2.100000e+002
         vertex 3.000000e+000 3.673940e-016 0.000000e+000
      endloop
   endfacet
   facet normal 9.983119e-001 -5.807913e-002 0.000000e+000
      outer loop
         vertex 3.000000e+000 3.673940e-016 0.000000e+000
         vertex 3.000000e+000 3.673940e-016 2.100000e+002
         vertex 2.954423e+000 -5.209445e-001 2.100000e+002
      endloop
   endfacet
   facet normal 9.932307e-001 -1.161583e-001 0.000000e+000
      outer loop
         vertex 3.000000e+000 3.673940e-016 0.000000e+000
         vertex 2.954423e+000 -5.209445e-001 2.100000e+002
         vertex 2.954423e+000 -5.209445e-001 0.000000e+000
      endloop
   endfacet
   facet normal 9.730600e-001 -2.305519e-001 0.000000e+000
      outer loop
         vertex 2.954423e+000 -5.209445e-001 0.000000e+000
         vertex 2.954423e+000 -5.209445e-001 2.100000e+002
         vertex 2.819078e+000 -1.026060e+000 2.100000e+002
      endloop
   endfacet
   facet normal 9.579706e-001 -2.868663e-001 0.000000e+000
      outer loop
         vertex 2.954423e+000 -5.209445e-001 0.000000e+000
         vertex 2.819078e+000 -1.026060e+000 2.100000e+002
         vertex 2.819078e+000 -1.026060e+000 0.000000e+000
      endloop
   endfacet
   facet normal 9.182422e-001 -3.960194e-001 0.000000e+000
      outer loop
         vertex 2.819078e+000 -1.026060e+000 0.000000e+000
         vertex 2.819078e+000 -1.026060e+000 2.100000e+002
         vertex 2.598076e+000 -1.500000e+000 2.100000e+002
      endloop
   endfacet
   facet normal 8.936031e-001 -4.488580e-001 0.000000e+000
      outer loop
         vertex 2.819078e+000 -1.026060e+000 0.000000e+000
         vertex 2.598076e+000 -1.500000e+000 2.100000e+002
         vertex 2.598076e+000 -1.500000e+000 0.000000e+000
      endloop
   endfacet
   facet normal 8.355240e-001 -5.494540e-001 0.000000e+000
      outer loop
         vertex 2.598076e+000 -1.500000e+000 0.000000e+000
         vertex 2.598076e+000 -1.500000e+000 2.100000e+002
         vertex 2.298133e+000 -1.928363e+000 2.100000e+002
      endloop
   endfacet
   facet normal 8.020838e-001 -5.972114e-001 0.000000e+000
      outer loop
         vertex 2.598076e+000 -1.500000e+000 0.000000e+000
         vertex 2.298133e+000 -1.928363e+000 2.100000e+002
         vertex 2.298133e+000 -1.928363e+000 0.000000e+000
      endloop
   endfacet
   facet normal 7.274188e-001 -6.861938e-001 0.000000e+000
      outer loop
         vertex 2.298133e+000 -1.928363e+000 0.000000e+000
         vertex 2.298133e+000 -1.928363e+000 2.100000e+002
         vertex 1.928363e+000 -2.298133e+000 2.100000e+002
      endloop
   endfacet
   facet normal 6.861938e-001 -7.274188e-001 0.000000e+000
      outer loop
         vertex 2.298133e+000 -1.928363e+000 0.000000e+000
         vertex 1.928363e+000 -2.298133e+000 2.100000e+002
         vertex 1.928363e+000 -2.298133e+000 0.000000e+000
      endloop
   endfacet
   facet normal 5.972114e-001 -8.020838e-001 0.000000e+000
      outer loop
         vertex 1.928363e+000 -2.298133e+000 0.000000e+000
         vertex 1.928363e+000 -2.298133e+000 2.100000e+002
         vertex 1.500000e+000 -2.598076e+000 2.100000e+002
      endloop
   endfacet
   facet normal 5.494540e-001 -8.355240e-001 0.000000e+000
      outer loop
         vertex 1.928363e+000 -2.298133e+000 0.000000e+000
         vertex 1.500000e+000 -2.598076e+000 2.100000e+002
         vertex 1.500000e+000 -2.598076e+000 0.000000e+000
      endloop
   endfacet
   facet normal 4.488580e-001 -8.936031e-001 0.000000e+000
      outer loop
         vertex 1.500000e+000 -2.598076e+000 0.000000e+000
         vertex 1.500000e+000 -2.598076e+000 2.100000e+002
         vertex 1.026060e+000 -2.819078e+000 2.100000e+002
      endloop
   endfacet
   facet normal 3.960194e-001 -9.182422e-001 0.000000e+000
      outer loop
         vertex 1.500000e+000 -2.598076e+000 0.000000e+000
         vertex 1.026060e+000 -2.819078e+000 2.100000e+002
         vertex 1.026060e+000 -2.819078e+000 0.000000e+000
      endloop
   endfacet
   facet normal 2.868663e-001 -9.579706e-001 0.000000e+000
      outer loop
         vertex 1.026060e+000 -2.819078e+000 0.000000e+000
         vertex 1.026060e+000 -2.819078e+000 2.100000e+002
         vertex 5.209445e-001 -2.954423e+000 2.100000e+002
      endloop
   endfacet
   facet normal 2.305519e-001 -9.730600e-001 0.000000e+000
      outer loop
         vertex 1.026060e+000 -2.819078e+000 0.000000e+000
         vertex 5.209445e-001 -2.954423e+000 2.100000e+002
         vertex 5.209445e-001 -2.954423e+000 0.000000e+000
      endloop
   endfacet
   facet normal 1.161583e-001 -9.932307e-001 0.000000e+000
      outer loop
         vertex 5.209445e-001 -2.954423e+000 0.000000e+000
         vertex 5.209445e-001 -2.954423e+000 2.100000e+002
         vertex 5.510910e-016 -3.000000e+000 2.100000e+002
      endloop
   endfacet
   facet normal 5.807913e-002 -9.983119e-001 0.000000e+000
      outer loop
         vertex 5.209445e-001 -2.954423e+000 0.000000e+000
         vertex 5.510910e-016 -3.000000e+000 2.100000e+002
         vertex 5.510910e-016 -3.000000e+000 0.000000e+000
      endloop
   endfacet
   facet normal -5.807913e-002 -9.983119e-001 0.000000e+000
      outer loop
         vertex 5.510910e-016 -3.000000e+000 0.000000e+000
         vertex 5.510910e-016 -3.000000e+000 2.100000e+002
         vertex -5.209445e-001 -2.954423e+000 2.100000e+002
      endloop
   endfacet
   facet normal -1.161583e-001 -9.932307e-001 0.000000e+000
      outer loop
         vertex 5.510910e-016 -3.000000e+000 0.000000e+000
         vertex -5.209445e-001 -2.954423e+000 2.100000e+002
         vertex -5.209445e-001 -2.954423e+000 0.000000e+000
      endloop
   endfacet
   facet normal -2.305519e-001 -9.730600e-001 0.000000e+000
      outer loop
         vertex -5.209445e-001 -2.954423e+000 0.000000e+000
         vertex -5.209445e-001 -2.954423e+000 2.100000e+002
         vertex -1.026060e+000 -2.819078e+000 2.100000e+002
      endloop
   endfacet
   facet normal -2.868663e-001 -9.579706e-001 0.000000e+000
      outer loop
         vertex -5.209445e-001 -2.954423e+000 0.000000e+000
         vertex -1.026060e+000 -2.819078e+000 2.100000e+002
         vertex -1.026060e+000 -2.819078e+000 0.000000e+000
      endloop
   endfacet
   facet normal -3.960194e-001 -9.182422e-001 0.000000e+000
      outer loop
         vertex -1.026060e+000 -2.819078e+000 0.000000e+000
         vertex -1.026060e+000 -2.819078e+000 2.100000e+002
         vertex -1.500000e+000 -2.598076e+000 2.100000e+002
      endloop
   endfacet
   facet normal -4.488580e-001 -8.936031e-001 0.000000e+000
      outer loop
         vertex -1.026060e+000 -2.819078e+000 0.000000e+000
         vertex -1.500000e+000 -2.598076e+000 2.100000e+002
         vertex -1.500000e+000 -2.598076e+000 0.000000e+000
      endloop
   endfacet
   facet normal -5.494540e-001 -8.355240e-001 0.000000e+000
      outer loop
         vertex -1.500000e+000 -2.598076e+000 0.000000e+000
         vertex -1.500000e+000 -2.598076e+000 2.100000e+002
         vertex -1.928363e+000 -2.298133e+000 2.100000e+002
      endloop
   endfacet
   facet normal -5.972114e-001 -8.020838e-001 0.000000e+000
      outer loop
         vertex -1.500000e+000 -2.598076e+000 0.000000e+000
         vertex -1.928363e+000 -2.298133e+000 2.100000e+002
         vertex -1.928363e+000 -2.298133e+000 0.000000e+000
      endloop
   endfacet
   facet normal -6.861938e-001 -7.274188e-001 0.000000e+000
      outer loop
         vertex -1.928363e+000 -2.298133e+000 0.000000e+000
         vertex -1.928363e+000 -2.298133e+000 2.100000e+002
         vertex -2.298133e+000 -1.928363e+000 2.100000e+002
      endloop
   endfacet
   facet normal -7.274188e-001 -6.861938e-001 0.000000e+000
      outer loop
         vertex -1.928363e+000 -2.298133e+000 0.000000e+000
         vertex -2.298133e+000 -1.928363e+000 2.100000e+002
         vertex -2.298133e+000 -1.928363e+000 0.000000e+000
      endloop
   endfacet
   facet normal -8.020838e-001 -5.972114e-001 0.000000e+000
      outer loop
         vertex -2.298133e+000 -1.928363e+000 0.000000e+000
         vertex -2.298133e+000 -1.928363e+000 2.100000e+002
         vertex -2.598076e+000 -1.500000e+000 2.100000e+002
      endloop
   endfacet
   facet normal -8.355240e-001 -5.494540e-001 0.000000e+000
      outer loop
         vertex -2.298133e+000 -1.928363e+000 0.000000e+000
         vertex -2.598076e+000 -1.500000e+000 2.100000e+002
         vertex -2.598076e+000 -1.500000e+000 0.000000e+000
      endloop
   endfacet
   facet normal -8.936031e-001 -4.488580e-001 0.000000e+000
      outer loop
         vertex -2.598076e+000 -1.500000e+000 0.000000e+000
         vertex -2.598076e+000 -1.500000e+000 2.100000e+002
         vertex -2.819078e+000 -1.026060e+000 2.100000e+002
      endloop
   endfacet
   facet normal -9.182422e-001 -3.960194e-001 0.000000e+000
      outer loop
         vertex -2.598076e+000 -1.500000e+000 0.000000e+000
         vertex -2.819078e+000 -1.026060e+000 2.100000e+002
         vertex -2.819078e+000 -1.026060e+000 0.000000e+000
      endloop
   endfacet
   facet normal -9.579706e-001 -2.868663e-001 0.000000e+000
      outer loop
         vertex -2.819078e+000 -1.026060e+000 0.000000e+000
         vertex -2.819078e+000 -1.026060e+000 2.100000e+002
         vertex -2.954423e+000 -5.209445e-001 2.100000e+002
      endloop
   endfacet
   facet normal -9.730600e-001 -2.305519e-001 0.000000e+000
      outer loop
         vertex -2.819078e+000 -1.026060e+000 0.000000e+000
         vertex -2.954423e+000 -5.209445e-001 2.100000e+002
         vertex -2.954423e+000 -5.209445e-001 0.000000e+000
      endloop
   endfacet
   facet normal -9.932307e-001 -1.161583e-001 0.000000e+000
      outer loop
         vertex -2.954423e+000 -5.209445e-001 0.000000e+000
         vertex -2.954423e+000 -5.209445e-001 2.100000e+002
         vertex -3.000000e+000 0.000000e+000 2.100000e+002
      endloop
   endfacet
   facet normal -9.983119e-001 -5.807913e-002 0.000000e+000
      outer loop
         vertex -2.954423e+000 -5.209445e-001 0.000000e+000
         vertex -3.000000e+000 0.000000e+000 2.100000e+002
         vertex -3.000000e+000 0.000000e+000 0.000000e+000
      endloop
   endfacet
   facet normal -9.983119e-001 5.807913e-002 0.000000e+000
      outer loop
         vertex -3.000000e+000 0.000000e+000 0.000000e+000
         vertex -3.000000e+000 0.000000e+000 2.100000e+002
         vertex -2.954423e+000 5.209445e-001 2.100000e+002
      endloop
   endfacet
   facet normal 0.000000e+000 0.000000e+000 1.000000e+000
      outer loop
         vertex 2.819078e+000 -1.026060e+000 2.100000e+002
         vertex 2.954423e+000 -5.209445e-001 2.100000e+002
         vertex 0.000000e+000 0.000000e+000 2.100000e+002
      endloop
   endfacet
   facet normal 0.000000e+000 0.000000e+000 1.000000e+000
      outer loop
         vertex 0.000000e+000 0.000000e+000 2.100000e+002
         vertex 2.954423e+000 -5.209445e-001 2.100000e+002
         vertex 3.000000e+000 3.673940e-016 2.100000e+002
      endloop
   endfacet
   facet normal 0.000000e+000 0.000000e+000 1.000000e+000
      outer loop
         vertex 0.000000e+000 0.000000e+000 2.100000e+002
         vertex 3.000000e+000 3.673940e-016 2.100000e+002
         vertex 2.954423e+000 5.209445e-001 2.100000e+002
      endloop
   endfacet
   facet normal 0.000000e+000 0.000000e+000 1.000000e+000
      outer loop
         vertex 1.928363e+000 -2.298133e+000 2.100000e+002
         vertex 2.298133e+000 -1.928363e+000 2.100000e+002
         vertex 0.000000e+000 0.000000e+000 2.100000e+002
      endloop
   endfacet
   facet normal 0.000000e+000 0.000000e+000 1.000000e+000
      outer loop
         vertex 0.000000e+000 0.000000e+000 2.100000e+002
         vertex 2.298133e+000 -1.928363e+000 2.100000e+002
         vertex 2.598076e+000 -1.500000e+000 2.100000e+002
      endloop
   endfacet
   facet normal 0.000000e+000 0.000000e+000 1.000000e+000
      outer loop
         vertex 0.000000e+000 0.000000e+000 2.100000e+002
         vertex 2.598076e+000 -1.500000e+000 2.100000e+002
         vertex 2.819078e+000 -1.026060e+000 2.100000e+002
      endloop
   endfacet
   facet normal 0.000000e+000 0.000000e+000 1.000000e+000
      outer loop
         vertex 5.209445e-001 -2.954423e+000 2.100000e+002
         vertex 1.026060e+000 -2.819078e+000 2.100000e+002
         vertex 0.000000e+000 0.000000e+000 2.100000e+002
      endloop
   endfacet
   facet normal 0.000000e+000 0.000000e+000 1.000000e+000
      outer loop
         vertex 0.000000e+000 0.000000e+000 2.100000e+002
         vertex 1.026060e+000 -2.819078e+000 2.100000e+002
         vertex 1.500000e+000 -2.598076e+000 2.100000e+002
      endloop
   endfacet
   facet normal 0.000000e+000 0.000000e+000 1.000000e+000
      outer loop
         vertex 0.000000e+000 0.000000e+000 2.100000e+002
         vertex 1.500000e+000 -2.598076e+000 2.100000e+002
         vertex 1.928363e+000 -2.298133e+000 2.100000e+002
      endloop
   endfacet
   facet normal 0.000000e+000 0.000000e+000 1.000000e+000
      outer loop
         vertex -1.026060e+000 -2.819078e+000 2.100000e+002
         vertex -5.209445e-001 -2.954423e+000 2.100000e+002
         vertex 0.000000e+000 0.000000e+000 2.100000e+002
      endloop
   endfacet
   facet normal 0.000000e+000 0.000000e+000 1.000000e+000
      outer loop
         vertex 0.000000e+000 0.000000e+000 2.100000e+002
         vertex -5.209445e-001 -2.954423e+000 2.100000e+002
         vertex 5.510910e-016 -3.000000e+000 2.100000e+002
      endloop
   endfacet
   facet normal 0.000000e+000 0.000000e+000 1.000000e+000
      outer loop
         vertex 0.000000e+000 0.000000e+000 2.100000e+002
         vertex 5.510910e-016 -3.000000e+000 2.100000e+002
         vertex 5.209445e-001 -2.954423e+000 2.100000e+002
      endloop
   endfacet
   facet normal 0.000000e+000 0.000000e+000 1.000000e+000
      outer loop
         vertex -2.298133e+000 -1.928363e+000 2.100000e+002
         vertex -1.928363e+000 -2.298133e+000 2.100000e+002
         vertex 0.000000e+000 0.000000e+000 2.100000e+002
      endloop
   endfacet
   facet normal 0.000000e+000 0.000000e+000 1.000000e+000
      outer loop
         vertex 0.000000e+000 0.000000e+000 2.100000e+002
         vertex -1.928363e+000 -2.298133e+000 2.100000e+002
         vertex -1.500000e+000 -2.598076e+000 2.100000e+002
      endloop
   endfacet
   facet normal 0.000000e+000 0.000000e+000 1.000000e+000
      outer loop
         vertex 0.000000e+000 0.000000e+000 2.100000e+002
         vertex -1.500000e+000 -2.598076e+000 2.100000e+002
         vertex -1.026060e+000 -2.819078e+000 2.100000e+002
      endloop
   endfacet
   facet normal 0.000000e+000 0.000000e+000 1.000000e+000
      outer loop
         vertex -2.954423e+000 -5.209445e-001 2.100000e+002
         vertex -2.819078e+000 -1.026060e+000 2.100000e+002
         vertex 0.000000e+000 0.000000e+000 2.100000e+002
      endloop
   endfacet
   facet normal 0.000000e+000 0.000000e+000 1.000000e+000
      outer loop
         vertex 0.000000e+000 0.000000e+000 2.100000e+002
         vertex -2.819078e+000 -1.026060e+000 2.100000e+002
         vertex -2.598076e+000 -1.500000e+000 2.100000e+002
      endloop
   endfacet
   facet normal 0.000000e+000 0.000000e+000 1.000000e+000
      outer loop
         vertex 0.000000e+000 0.000000e+000 2.100000e+002
         vertex -2.598076e+000 -1.500000e+000 2.100000e+002
         vertex -2.298133e+000 -1.928363e+000 2.100000e+002
      endloop
   endfacet
   facet normal 0.000000e+000 0.000000e+000 1.000000e+000
      outer loop
         vertex -2.819078e+000 1.026060e+000 2.100000e+002
         vertex -2.954423e+000 5.209445e-001 2.100000e+002
         vertex 0.000000e+000 0.000000e+000 2.100000e+002
      endloop
   endfacet
   facet normal 0.000000e+000 0.000000e+000 1.000000e+000
      outer loop
         vertex 0.000000e+000 0.000000e+000 2.100000e+002
         vertex -2.954423e+000 5.209445e-001 2.100000e+002
         vertex -3.000000e+000 0.000000e+000 2.100000e+002
      endloop
   endfacet
   facet normal 0.000000e+000 0.000000e+000 1.000000e+000
      outer loop
         vertex 0.000000e+000 0.000000e+000 2.100000e+002
         vertex -3.000000e+000 0.000000e+000 2.100000e+002
         vertex -2.954423e+000 -5.209445e-001 2.100000e+002
      endloop
   endfacet
   facet normal 0.000000e+000 0.000000e+000 1.000000e+000
      outer loop
         vertex -1.928363e+000 2.298133e+000 2.100000e+002
         vertex -2.298133e+000 1.928363e+000 2.100000e+002
         vertex 0.000000e+000 0.000000e+000 2.100000e+002
      endloop
   endfacet
   facet normal 0.000000e+000 0.000000e+000 1.000000e+000
      outer loop
         vertex 0.000000e+000 0.000000e+000 2.100000e+002
         vertex -2.298133e+000 1.928363e+000 2.100000e+002
         vertex -2.598076e+000 1.500000e+000 2.100000e+002
      endloop
   endfacet
   facet normal 0.000000e+000 0.000000e+000 1.000000e+000
      outer loop
         vertex 0.000000e+000 0.000000e+000 2.100000e+002
         vertex -2.598076e+000 1.500000e+000 2.100000e+002
         vertex -2.819078e+000 1.026060e+000 2.100000e+002
      endloop
   endfacet
   facet normal 0.000000e+000 0.000000e+000 1.000000e+000
      outer loop
         vertex -5.209445e-001 2.954423e+000 2.100000e+002
         vertex -1.026060e+000 2.819078e+000 2.100000e+002
         vertex 0.000000e+000 0.000000e+000 2.100000e+002
      endloop
   endfacet
   facet normal 0.000000e+000 0.000000e+000 1.000000e+000
      outer loop
         vertex 0.000000e+000 0.000000e+000 2.100000e+002
         vertex -1.026060e+000 2.819078e+000 2.100000e+002
         vertex -1.500000e+000 2.598076e+000 2.100000e+002
      endloop
   endfacet
   facet normal 0.000000e+000 0.000000e+000 1.000000e+000
      outer loop
         vertex 0.000000e+000 0.000000e+000 2.100000e+002
         vertex -1.500000e+000 2.598076e+000 2.100000e+002
         vertex -1.928363e+000 2.298133e+000 2.100000e+002
      endloop
   endfacet
   facet normal 0.000000e+000 0.000000e+000 1.000000e+000
      outer loop
         vertex 1.026060e+000 2.819078e+000 2.100000e+002
         vertex 5.209445e-001 2.954423e+000 2.100000e+002
         vertex 0.000000e+000 0.000000e+000 2.100000e+002
      endloop
   endfacet
   facet normal 0.000000e+000 0.000000e+000 1.000000e+000
      outer loop
         vertex 0.000000e+000 0.000000e+000 2.100000e+002
         vertex 5.209445e-001 2.954423e+000 2.100000e+002
         vertex -1.836970e-016 3.000000e+000 2.100000e+002
      endloop
   endfacet
   facet normal 0.000000e+000 0.000000e+000 1.000000e+000
      outer loop
         vertex 0.000000e+000 0.000000e+000 2.100000e+002
         vertex -1.836970e-016 3.000000e+000 2.100000e+002
         vertex -5.209445e-001 2.954423e+000 2.100000e+002
      endloop
   endfacet
   facet normal 0.000000e+000 0.000000e+000 1.000000e+000
      outer loop
         vertex 2.298133e+000 1.928363e+000 2.100000e+002
         vertex 1.928363e+000 2.298133e+000 2.100000e+002
         vertex 0.000000e+000 0.000000e+000 2.100000e+002
      endloop
   endfacet
   facet normal 0.000000e+000 0.000000e+000 1.000000e+000
      outer loop
         vertex 0.000000e+000 0.000000e+000 2.100000e+002
         vertex 1.928363e+000 2.298133e+000 2.100000e+002
         vertex 1.500000e+000 2.598076e+000 2.100000e+002
      endloop
   endfacet
   facet normal 0.000000e+000 0.000000e+000 1.000000e+000
      outer loop
         vertex 0.000000e+000 0.000000e+000 2.100000e+002
         vertex 1.500000e+000 2.598076e+000 2.100000e+002
         vertex 1.026060e+000 2.819078e+000 2.100000e+002
      endloop
   endfacet
   facet normal 0.000000e+000 0.000000e+000 1.000000e+000
      outer loop
         vertex 2.954423e+000 5.209445e-001 2.100000e+002
         vertex 2.819078e+000 1.026060e+000 2.100000e+002
         vertex 0.000000e+000 0.000000e+000 2.100000e+002
      endloop
   endfacet
   facet normal 0.000000e+000 0.000000e+000 1.000000e+000
      outer loop
         vertex 0.000000e+000 0.000000e+000 2.100000e+002
         vertex 2.819078e+000 1.026060e+000 2.100000e+002
         vertex 2.598076e+000 1.500000e+000 2.100000e+002
      endloop
   endfacet
   facet normal 0.000000e+000 0.000000e+000 1.000000e+000
      outer loop
         vertex 0.000000e+000 0.000000e+000 2.100000e+002
         vertex 2.598076e+000 1.500000e+000 2.100000e+002
         vertex 2.298133e+000 1.928363e+000 2.100000e+002
      endloop
   endfacet
   facet normal 0.000000e+000 0.000000e+000 -1.000000e+000
      outer loop
         vertex 2.819078e+000 1.026060e+000 0.000000e+000
         vertex 2.954423e+000 5.209445e-001 0.000000e+000
         vertex 0.000000e+000 0.000000e+000 0.000000e+000
      endloop
   endfacet
   facet normal 0.000000e+000 0.000000e+000 -1.000000e+000
      outer loop
         vertex 0.000000e+000 0.000000e+000 0.000000e+000
         vertex 2.954423e+000 5.209445e-001 0.000000e+000
         vertex 3.000000e+000 1.102182e-015 0.000000e+000
      endloop
   endfacet
   facet normal 0.000000e+000 0.000000e+000 -1.000000e+000
      outer loop
         vertex 0.000000e+000 0.000000e+000 0.000000e+000
         vertex 3.000000e+000 1.102182e-015 0.000000e+000
         vertex 2.954423e+000 -5.209445e-001 0.000000e+000
      endloop
   endfacet
   facet normal 0.000000e+000 0.000000e+000 -1.000000e+000
      outer loop
         vertex 1.928363e+000 2.298133e+000 0.000000e+000
         vertex 2.298133e+000 1.928363e+000 0.000000e+000
         vertex 0.000000e+000 0.000000e+000 0.000000e+000
      endloop
   endfacet
   facet normal 0.000000e+000 0.000000e+000 -1.000000e+000
      outer loop
         vertex 0.000000e+000 0.000000e+000 0.000000e+000
         vertex 2.298133e+000 1.928363e+000 0.000000e+000
         vertex 2.598076e+000 1.500000e+000 0.000000e+000
      endloop
   endfacet
   facet normal 0.000000e+000 0.000000e+000 -1.000000e+000
      outer loop
         vertex 0.000000e+000 0.000000e+000 0.000000e+000
         vertex 2.598076e+000 1.500000e+000 0.000000e+000
         vertex 2.819078e+000 1.026060e+000 0.000000e+000
      endloop
   endfacet
   facet normal 0.000000e+000 0.000000e+000 -1.000000e+000
      outer loop
         vertex 5.209445e-001 2.954423e+000 0.000000e+000
         vertex 1.026060e+000 2.819078e+000 0.000000e+000
         vertex 0.000000e+000 0.000000e+000 0.000000e+000
      endloop
   endfacet
   facet normal 0.000000e+000 0.000000e+000 -1.000000e+000
      outer loop
         vertex 0.000000e+000 0.000000e+000 0.000000e+000
         vertex 1.026060e+000 2.819078e+000 0.000000e+000
         vertex 1.500000e+000 2.598076e+000 0.000000e+000
      endloop
   endfacet
   facet normal 0.000000e+000 0.000000e+000 -1.000000e+000
      outer loop
         vertex 0.000000e+000 0.000000e+000 0.000000e+000
         vertex 1.500000e+000 2.598076e+000 0.000000e+000
         vertex 1.928363e+000 2.298133e+000 0.000000e+000
      endloop
   endfacet
   facet normal 0.000000e+000 0.000000e+000 -1.000000e+000
      outer loop
         vertex -1.026060e+000 2.819078e+000 0.000000e+000
         vertex -5.209445e-001 2.954423e+000 0.000000e+000
         vertex 0.000000e+000 0.000000e+000 0.000000e+000
      endloop
   endfacet
   facet normal 0.000000e+000 0.000000e+000 -1.000000e+000
      outer loop
         vertex 0.000000e+000 0.000000e+000 0.000000e+000
         vertex -5.209445e-001 2.954423e+000 0.000000e+000
         vertex -1.836970e-016 3.000000e+000 0.000000e+000
      endloop
   endfacet
   facet normal 0.000000e+000 0.000000e+000 -1.000000e+000
      outer loop
         vertex 0.000000e+000 0.000000e+000 0.000000e+000
         vertex -1.836970e-016 3.000000e+000 0.000000e+000
         vertex 5.209445e-001 2.954423e+000 0.000000e+000
      endloop
   endfacet
   facet normal 0.000000e+000 0.000000e+000 -1.000000e+000
      outer loop
         vertex -2.298133e+000 1.928363e+000 0.000000e+000
         vertex -1.928363e+000 2.298133e+000 0.000000e+000
         vertex 0.000000e+000 0.000000e+000 0.000000e+000
      endloop
   endfacet
   facet normal 0.000000e+000 0.000000e+000 -1.000000e+000
      outer loop
         vertex 0.000000e+000 0.000000e+000 0.000000e+000
         vertex -1.928363e+000 2.298133e+000 0.000000e+000
         vertex -1.500000e+000 2.598076e+000 0.000000e+000
      endloop
   endfacet
   facet normal 0.000000e+000 0.000000e+000 -1.000000e+000
      outer loop
         vertex 0.000000e+000 0.000000e+000 0.000000e+000
         vertex -1.500000e+000 2.598076e+000 0.000000e+000
         vertex -1.026060e+000 2.819078e+000 0.000000e+000
      endloop
   endfacet
   facet normal 0.000000e+000 0.000000e+000 -1.000000e+000
      outer loop
         vertex -2.954423e+000 5.209445e-001 0.000000e+000
         vertex -2.819078e+000 1.026060e+000 0.000000e+000
         vertex 0.000000e+000 0.000000e+000 0.000000e+000
      endloop
   endfacet
   facet normal 0.000000e+000 0.000000e+000 -1.000000e+000
      outer loop
         vertex 0.000000e+000 0.000000e+000 0.000000e+000
         vertex -2.819078e+000 1.026060e+000 0.000000e+000
         vertex -2.598076e+000 1.500000e+000 0.000000e+000
      endloop
   endfacet
   facet normal 0.000000e+000 0.000000e+000 -1.000000e+000
      outer loop
         vertex 0.000000e+000 0.000000e+000 0.000000e+000
         vertex -2.598076e+000 1.500000e+000 0.000000e+000
         vertex -2.298133e+000 1.928363e+000 0.000000e+000
      endloop
   endfacet
   facet normal 0.000000e+000 0.000000e+000 -1.000000e+000
      outer loop
         vertex -2.819078e+000 -1.026060e+000 0.000000e+000
         vertex -2.954423e+000 -5.209445e-001 0.000000e+000
         vertex 0.000000e+000 0.000000e+000 0.000000e+000
      endloop
   endfacet
   facet normal 0.000000e+000 0.000000e+000 -1.000000e+000
      outer loop
         vertex 0.000000e+000 0.000000e+000 0.000000e+000
         vertex -2.954423e+000 -5.209445e-001 0.000000e+000
         vertex -3.000000e+000 0.000000e+000 0.000000e+000
      endloop
   endfacet
   facet normal 0.000000e+000 0.000000e+000 -1.000000e+000
      outer loop
         vertex 0.000000e+000 0.000000e+000 0.000000e+000
         vertex -3.000000e+000 0.000000e+000 0.000000e+000
         vertex -2.954423e+000 5.209445e-001 0.000000e+000
      endloop
   endfacet
   facet normal 0.000000e+000 0.000000e+000 -1.000000e+000
      outer loop
         vertex -1.928363e+000 -2.298133e+000 0.000000e+000
         vertex -2.298133e+000 -1.928363e+000 0.000000e+000
         vertex 0.000000e+000 0.000000e+000 0.000000e+000
      endloop
   endfacet
   facet normal 0.000000e+000 0.000000e+000 -1.000000e+000
      outer loop
         vertex 0.000000e+000 0.000000e+000 0.000000e+000
         vertex -2.298133e+000 -1.928363e+000 0.000000e+000
         vertex -2.598076e+000 -1.500000e+000 0.000000e+000
      endloop
   endfacet
   facet normal 0.000000e+000 0.000000e+000 -1.000000e+000
      outer loop
         vertex 0.000000e+000 0.000000e+000 0.000000e+000
         vertex -2.598076e+000 -1.500000e+000 0.000000e+000
         vertex -2.819078e+000 -1.026060e+000 0.000000e+000
      endloop
   endfacet
   facet normal 0.000000e+000 0.000000e+000 -1.000000e+000
      outer loop
         vertex -5.209445e-001 -2.954423e+000 0.000000e+000
         vertex -1.026060e+000 -2.819078e+000 0.000000e+000
         vertex 0.000000e+000 0.000000e+000 0.000000e+000
      endloop
   endfacet
   facet normal 0.000000e+000 0.000000e+000 -1.000000e+000
      outer loop
         vertex 0.000000e+000 0.000000e+000 0.000000e+000
         vertex -1.026060e+000 -2.819078e+000 0.000000e+000
         vertex -1.500000e+000 -2.598076e+000 0.000000e+000
      endloop
   endfacet
   facet normal 0.000000e+000 0.000000e+000 -1.000000e+000
      outer loop
         vertex 0.000000e+000 0.000000e+000 0.000000e+000
         vertex -1.500000e+000 -2.598076e+000 0.000000e+000
         vertex -1.928363e+000 -2.298133e+000 0.000000e+000
      endloop
   endfacet
   facet normal 0.000000e+000 0.000000e+000 -1.000000e+000
      outer loop
         vertex 1.026060e+000 -2.819078e+000 0.000000e+000
         vertex 5.209445e-001 -2.954423e+000 0.000000e+000
         vertex 0.000000e+000 0.000000e+000 0.000000e+000
      endloop
   endfacet
   facet normal 0.000000e+000 0.000000e+000 -1.000000e+000
      outer loop
         vertex 0.000000e+000 0.000000e+000 0.000000e+000
         vertex 5.209445e-001 -2.954423e+000 0.000000e+000
         vertex 5.510910e-016 -3.000000e+000 0.000000e+000
      endloop
   endfacet
   facet normal 0.000000e+000 0.000000e+000 -1.000000e+000
      outer loop
         vertex 0.000000e+000 0.000000e+000 0.000000e+000
         vertex 5.510910e-016 -3.000000e+000 0.000000e+000
         vertex -5.209445e-001 -2.954423e+000 0.000000e+000
      endloop
   endfacet
   facet normal 0.000000e+000 0.000000e+000 -1.000000e+000
      outer loop
         vertex 2.298133e+000 -1.928363e+000 0.000000e+000
         vertex 1.928363e+000 -2.298133e+000 0.000000e+000
         vertex 0.000000e+000 0.000000e+000 0.000000e+000
      endloop
   endfacet
   facet normal 0.000000e+000 0.000000e+000 -1.000000e+000
      outer loop
         vertex 0.000000e+000 0.000000e+000 0.000000e+000
         vertex 1.928363e+000 -2.298133e+000 0.000000e+000
         vertex 1.500000e+000 -2.598076e+000 0.000000e+000
      endloop
   endfacet
   facet normal 0.000000e+000 0.000000e+000 -1.000000e+000
      outer loop
         vertex 0.000000e+000 0.000000e+000 0.000000e+000
         vertex 1.500000e+000 -2.598076e+000 0.000000e+000
         vertex 1.026060e+000 -2.819078e+000 0.000000e+000
      endloop
   endfacet
   facet normal 0.000000e+000 0.000000e+000 -1.000000e+000
      outer loop
         vertex 2.954423e+000 -5.209445e-001 0.000000e+000
         vertex 2.819078e+000 -1.026060e+000 0.000000e+000
         vertex 0.000000e+000 0.000000e+000 0.000000e+000
      endloop
   endfacet
   facet normal 0.000000e+000 0.000000e+000 -1.000000e+000
      outer loop
         vertex 0.000000e+000 0.000000e+000 0.000000e+000
         vertex 2.819078e+000 -1.026060e+000 0.000000e+000
         vertex 2.598076e+000 -1.500000e+000 0.000000e+000
      endloop
   endfacet
   facet normal 0.000000e+000 0.000000e+000 -1.000000e+000
      outer loop
         vertex 0.000000e+000 0.000000e+000 0.000000e+000
         vertex 2.598076e+000 -1.500000e+000 0.000000e+000
         vertex 2.298133e+000 -1.928363e+000 0.000000e+000
      endloop
   endfacet
endsolid