solid TrucChinh200_Default_sldprt
   facet normal -1.000000e+000 0.000000e+000 0.000000e+000
      outer loop
         vertex -3.100000e+000 1.736482e-001 2.109848e+002
         vertex -3.100000e+000 0.000000e+000 2.110000e+002
         vertex -3.100000e+000 3.100000e+000 2.200000e+002
      endloop
   endfacet
   facet normal -1.000000e+000 0.000000e+000 0.000000e+000
      outer loop
         vertex -3.100000e+000 -3.420202e-001 1.093969e+001
         vertex -3.100000e+000 -5.000000e-001 1.086603e+001
         vertex -3.100000e+000 -3.100000e+000 2.200000e+002
      endloop
   endfacet
   facet normal -1.000000e+000 0.000000e+000 0.000000e+000
      outer loop
         vertex -3.100000e+000 6.427876e-001 1.076604e+001
         vertex -3.100000e+000 5.000000e-001 1.086603e+001
         vertex -3.100000e+000 0.000000e+000 2.090000e+002
      endloop
   endfacet
   facet normal -1.000000e+000 0.000000e+000 0.000000e+000
      outer loop
         vertex -3.100000e+000 0.000000e+000 2.090000e+002
         vertex -3.100000e+000 5.000000e-001 1.086603e+001
         vertex -3.100000e+000 3.420202e-001 1.093969e+001
      endloop
   endfacet
   facet normal -1.000000e+000 0.000000e+000 0.000000e+000
      outer loop
         vertex -3.100000e+000 3.420202e-001 1.093969e+001
         vertex -3.100000e+000 1.736482e-001 1.098481e+001
         vertex -3.100000e+000 0.000000e+000 2.090000e+002
      endloop
   endfacet
   facet normal -1.000000e+000 0.000000e+000 0.000000e+000
      outer loop
         vertex -3.100000e+000 0.000000e+000 2.090000e+002
         vertex -3.100000e+000 1.736482e-001 1.098481e+001
         vertex -3.100000e+000 0.000000e+000 1.100000e+001
      endloop
   endfacet
   facet normal -1.000000e+000 0.000000e+000 0.000000e+000
      outer loop
         vertex -3.100000e+000 0.000000e+000 2.090000e+002
         vertex -3.100000e+000 0.000000e+000 1.100000e+001
         vertex -3.100000e+000 -1.736482e-001 2.090152e+002
      endloop
   endfacet
   facet normal -1.000000e+000 0.000000e+000 0.000000e+000
      outer loop
         vertex -3.100000e+000 3.100000e+000 2.200000e+002
         vertex -3.100000e+000 0.000000e+000 2.110000e+002
         vertex -3.100000e+000 -3.100000e+000 2.200000e+002
      endloop
   endfacet
   facet normal -1.000000e+000 0.000000e+000 0.000000e+000
      outer loop
         vertex -3.100000e+000 -5.000000e-001 1.086603e+001
         vertex -3.100000e+000 -6.427876e-001 1.076604e+001
         vertex -3.100000e+000 -3.100000e+000 2.200000e+002
      endloop
   endfacet
   facet normal -1.000000e+000 0.000000e+000 0.000000e+000
      outer loop
         vertex -3.100000e+000 -3.100000e+000 2.200000e+002
         vertex -3.100000e+000 -6.427876e-001 1.076604e+001
         vertex -3.100000e+000 -7.660444e-001 1.064279e+001
      endloop
   endfacet
   facet normal -1.000000e+000 0.000000e+000 0.000000e+000
      outer loop
         vertex -3.100000e+000 -3.100000e+000 2.200000e+002
         vertex -3.100000e+000 -7.660444e-001 1.064279e+001
         vertex -3.100000e+000 -8.660254e-001 1.050000e+001
      endloop
   endfacet
   facet normal -1.000000e+000 0.000000e+000 0.000000e+000
      outer loop
         vertex -3.100000e+000 -9.848077e-001 9.826352e+000
         vertex -3.100000e+000 -9.396926e-001 9.657980e+000
         vertex -3.100000e+000 -3.100000e+000 0.000000e+000
      endloop
   endfacet
   facet normal -1.000000e+000 0.000000e+000 0.000000e+000
      outer loop
         vertex -3.100000e+000 -3.100000e+000 0.000000e+000
         vertex -3.100000e+000 -9.396926e-001 9.657980e+000
         vertex -3.100000e+000 -8.660254e-001 9.500000e+000
      endloop
   endfacet
   facet normal -1.000000e+000 0.000000e+000 0.000000e+000
      outer loop
         vertex -3.100000e+000 -3.100000e+000 0.000000e+000
         vertex -3.100000e+000 -8.660254e-001 9.500000e+000
         vertex -3.100000e+000 -7.660444e-001 9.357212e+000
      endloop
   endfacet
   facet normal -1.000000e+000 0.000000e+000 0.000000e+000
      outer loop
         vertex -3.100000e+000 -6.427876e-001 2.092339e+002
         vertex -3.100000e+000 -5.000000e-001 2.091340e+002
         vertex -3.100000e+000 0.000000e+000 1.100000e+001
      endloop
   endfacet
   facet normal -1.000000e+000 0.000000e+000 0.000000e+000
      outer loop
         vertex -3.100000e+000 0.000000e+000 1.100000e+001
         vertex -3.100000e+000 -5.000000e-001 2.091340e+002
         vertex -3.100000e+000 -3.420202e-001 2.090603e+002
      endloop
   endfacet
   facet normal -1.000000e+000 0.000000e+000 0.000000e+000
      outer loop
         vertex -3.100000e+000 0.000000e+000 1.100000e+001
         vertex -3.100000e+000 -3.420202e-001 2.090603e+002
         vertex -3.100000e+000 -1.736482e-001 2.090152e+002
      endloop
   endfacet
   facet normal -1.000000e+000 0.000000e+000 0.000000e+000
      outer loop
         vertex -3.100000e+000 -8.660254e-001 1.050000e+001
         vertex -3.100000e+000 -9.396926e-001 1.034202e+001
         vertex -3.100000e+000 -3.100000e+000 2.200000e+002
      endloop
   endfacet
   facet normal -1.000000e+000 0.000000e+000 0.000000e+000
      outer loop
         vertex -3.100000e+000 -3.100000e+000 2.200000e+002
         vertex -3.100000e+000 -9.396926e-001 1.034202e+001
         vertex -3.100000e+000 -9.848077e-001 1.017365e+001
      endloop
   endfacet
   facet normal -1.000000e+000 0.000000e+000 0.000000e+000
      outer loop
         vertex -3.100000e+000 -3.100000e+000 2.200000e+002
         vertex -3.100000e+000 -9.848077e-001 1.017365e+001
         vertex -3.100000e+000 -3.100000e+000 0.000000e+000
      endloop
   endfacet
   facet normal -1.000000e+000 0.000000e+000 0.000000e+000
      outer loop
         vertex -3.100000e+000 -3.100000e+000 0.000000e+000
         vertex -3.100000e+000 -9.848077e-001 1.017365e+001
         vertex -3.100000e+000 -1.000000e+000 1.000000e+001
      endloop
   endfacet
   facet normal -1.000000e+000 0.000000e+000 0.000000e+000
      outer loop
         vertex -3.100000e+000 -3.100000e+000 0.000000e+000
         vertex -3.100000e+000 -1.000000e+000 1.000000e+001
         vertex -3.100000e+000 -9.848077e-001 9.826352e+000
      endloop
   endfacet
   facet normal -1.000000e+000 0.000000e+000 0.000000e+000
      outer loop
         vertex -3.100000e+000 3.420202e-001 9.060308e+000
         vertex -3.100000e+000 5.000000e-001 9.133975e+000
         vertex -3.100000e+000 3.100000e+000 0.000000e+000
      endloop
   endfacet
   facet normal -1.000000e+000 0.000000e+000 0.000000e+000
      outer loop
         vertex -3.100000e+000 3.100000e+000 0.000000e+000
         vertex -3.100000e+000 5.000000e-001 9.133975e+000
         vertex -3.100000e+000 6.427876e-001 9.233955e+000
      endloop
   endfacet
   facet normal -1.000000e+000 0.000000e+000 0.000000e+000
      outer loop
         vertex -3.100000e+000 3.100000e+000 0.000000e+000
         vertex -3.100000e+000 6.427876e-001 9.233955e+000
         vertex -3.100000e+000 7.660444e-001 9.357212e+000
      endloop
   endfacet
   facet normal -1.000000e+000 0.000000e+000 0.000000e+000
      outer loop
         vertex -3.100000e+000 0.000000e+000 2.110000e+002
         vertex -3.100000e+000 -1.736482e-001 2.109848e+002
         vertex -3.100000e+000 -3.100000e+000 2.200000e+002
      endloop
   endfacet
   facet normal -1.000000e+000 0.000000e+000 0.000000e+000
      outer loop
         vertex -3.100000e+000 -3.100000e+000 2.200000e+002
         vertex -3.100000e+000 -1.736482e-001 2.109848e+002
         vertex -3.100000e+000 -3.420202e-001 2.109397e+002
      endloop
   endfacet
   facet normal -1.000000e+000 0.000000e+000 0.000000e+000
      outer loop
         vertex -3.100000e+000 -3.100000e+000 2.200000e+002
         vertex -3.100000e+000 -3.420202e-001 2.109397e+002
         vertex -3.100000e+000 -5.000000e-001 2.108660e+002
      endloop
   endfacet
   facet normal -1.000000e+000 0.000000e+000 0.000000e+000
      outer loop
         vertex -3.100000e+000 -5.000000e-001 2.108660e+002
         vertex -3.100000e+000 -6.427876e-001 2.107661e+002
         vertex -3.100000e+000 -3.100000e+000 2.200000e+002
      endloop
   endfacet
   facet normal -1.000000e+000 0.000000e+000 0.000000e+000
      outer loop
         vertex -3.100000e+000 -3.100000e+000 2.200000e+002
         vertex -3.100000e+000 -6.427876e-001 2.107661e+002
         vertex -3.100000e+000 -7.660444e-001 2.106428e+002
      endloop
   endfacet
   facet normal -1.000000e+000 0.000000e+000 0.000000e+000
      outer loop
         vertex -3.100000e+000 -3.100000e+000 2.200000e+002
         vertex -3.100000e+000 -7.660444e-001 2.106428e+002
         vertex -3.100000e+000 -8.660254e-001 2.105000e+002
      endloop
   endfacet
   facet normal -1.000000e+000 0.000000e+000 0.000000e+000
      outer loop
         vertex -3.100000e+000 -7.660444e-001 9.357212e+000
         vertex -3.100000e+000 -6.427876e-001 9.233955e+000
         vertex -3.100000e+000 -3.100000e+000 0.000000e+000
      endloop
   endfacet
   facet normal -1.000000e+000 0.000000e+000 0.000000e+000
      outer loop
         vertex -3.100000e+000 -3.100000e+000 0.000000e+000
         vertex -3.100000e+000 -6.427876e-001 9.233955e+000
         vertex -3.100000e+000 -5.000000e-001 9.133975e+000
      endloop
   endfacet
   facet normal -1.000000e+000 0.000000e+000 0.000000e+000
      outer loop
         vertex -3.100000e+000 -3.100000e+000 0.000000e+000
         vertex -3.100000e+000 -5.000000e-001 9.133975e+000
         vertex -3.100000e+000 -3.420202e-001 9.060308e+000
      endloop
   endfacet
   facet normal -1.000000e+000 0.000000e+000 0.000000e+000
      outer loop
         vertex -3.100000e+000 -8.660254e-001 2.105000e+002
         vertex -3.100000e+000 -9.396926e-001 2.103420e+002
         vertex -3.100000e+000 -3.100000e+000 2.200000e+002
      endloop
   endfacet
   facet normal -1.000000e+000 0.000000e+000 0.000000e+000
      outer loop
         vertex -3.100000e+000 -3.100000e+000 2.200000e+002
         vertex -3.100000e+000 -9.396926e-001 2.103420e+002
         vertex -3.100000e+000 -9.848077e-001 2.101736e+002
      endloop
   endfacet
   facet normal -1.000000e+000 0.000000e+000 0.000000e+000
      outer loop
         vertex -3.100000e+000 -3.100000e+000 2.200000e+002
         vertex -3.100000e+000 -9.848077e-001 2.101736e+002
         vertex -3.100000e+000 -1.000000e+000 2.100000e+002
      endloop
   endfacet
   facet normal -1.000000e+000 0.000000e+000 0.000000e+000
      outer loop
         vertex -3.100000e+000 -1.000000e+000 2.100000e+002
         vertex -3.100000e+000 -9.848077e-001 2.098264e+002
         vertex -3.100000e+000 -3.100000e+000 2.200000e+002
      endloop
   endfacet
   facet normal -1.000000e+000 0.000000e+000 0.000000e+000
      outer loop
         vertex -3.100000e+000 -3.100000e+000 2.200000e+002
         vertex -3.100000e+000 -9.848077e-001 2.098264e+002
         vertex -3.100000e+000 -1.736482e-001 1.098481e+001
      endloop
   endfacet
   facet normal -1.000000e+000 0.000000e+000 0.000000e+000
      outer loop
         vertex -3.100000e+000 -3.100000e+000 2.200000e+002
         vertex -3.100000e+000 -1.736482e-001 1.098481e+001
         vertex -3.100000e+000 -3.420202e-001 1.093969e+001
      endloop
   endfacet
   facet normal -1.000000e+000 0.000000e+000 0.000000e+000
      outer loop
         vertex -3.100000e+000 -9.848077e-001 2.098264e+002
         vertex -3.100000e+000 -9.396926e-001 2.096580e+002
         vertex -3.100000e+000 -1.736482e-001 1.098481e+001
      endloop
   endfacet
   facet normal -1.000000e+000 0.000000e+000 0.000000e+000
      outer loop
         vertex -3.100000e+000 -1.736482e-001 1.098481e+001
         vertex -3.100000e+000 -9.396926e-001 2.096580e+002
         vertex -3.100000e+000 -8.660254e-001 2.095000e+002
      endloop
   endfacet
   facet normal -1.000000e+000 0.000000e+000 0.000000e+000
      outer loop
         vertex -3.100000e+000 -1.736482e-001 1.098481e+001
         vertex -3.100000e+000 -8.660254e-001 2.095000e+002
         vertex -3.100000e+000 0.000000e+000 1.100000e+001
      endloop
   endfacet
   facet normal -1.000000e+000 0.000000e+000 0.000000e+000
      outer loop
         vertex -3.100000e+000 0.000000e+000 1.100000e+001
         vertex -3.100000e+000 -8.660254e-001 2.095000e+002
         vertex -3.100000e+000 -7.660444e-001 2.093572e+002
      endloop
   endfacet
   facet normal -1.000000e+000 0.000000e+000 0.000000e+000
      outer loop
         vertex -3.100000e+000 0.000000e+000 1.100000e+001
         vertex -3.100000e+000 -7.660444e-001 2.093572e+002
         vertex -3.100000e+000 -6.427876e-001 2.092339e+002
      endloop
   endfacet
   facet normal -1.000000e+000 0.000000e+000 0.000000e+000
      outer loop
         vertex -3.100000e+000 7.660444e-001 9.357212e+000
         vertex -3.100000e+000 8.660254e-001 9.500000e+000
         vertex -3.100000e+000 3.100000e+000 0.000000e+000
      endloop
   endfacet
   facet normal -1.000000e+000 0.000000e+000 0.000000e+000
      outer loop
         vertex -3.100000e+000 3.100000e+000 0.000000e+000
         vertex -3.100000e+000 8.660254e-001 9.500000e+000
         vertex -3.100000e+000 9.396926e-001 9.657980e+000
      endloop
   endfacet
   facet normal -1.000000e+000 0.000000e+000 0.000000e+000
      outer loop
         vertex -3.100000e+000 3.100000e+000 0.000000e+000
         vertex -3.100000e+000 9.396926e-001 9.657980e+000
         vertex -3.100000e+000 9.848077e-001 9.826352e+000
      endloop
   endfacet
   facet normal -1.000000e+000 0.000000e+000 0.000000e+000
      outer loop
         vertex -3.100000e+000 9.848077e-001 9.826352e+000
         vertex -3.100000e+000 1.000000e+000 1.000000e+001
         vertex -3.100000e+000 3.100000e+000 0.000000e+000
      endloop
   endfacet
   facet normal -1.000000e+000 0.000000e+000 0.000000e+000
      outer loop
         vertex -3.100000e+000 3.100000e+000 0.000000e+000
         vertex -3.100000e+000 1.000000e+000 1.000000e+001
         vertex -3.100000e+000 9.848077e-001 1.017365e+001
      endloop
   endfacet
   facet normal -1.000000e+000 0.000000e+000 0.000000e+000
      outer loop
         vertex -3.100000e+000 3.100000e+000 0.000000e+000
         vertex -3.100000e+000 9.848077e-001 1.017365e+001
         vertex -3.100000e+000 3.100000e+000 2.200000e+002
      endloop
   endfacet
   facet normal -1.000000e+000 0.000000e+000 0.000000e+000
      outer loop
         vertex -3.100000e+000 3.100000e+000 2.200000e+002
         vertex -3.100000e+000 9.848077e-001 1.017365e+001
         vertex -3.100000e+000 9.396926e-001 1.034202e+001
      endloop
   endfacet
   facet normal -1.000000e+000 0.000000e+000 0.000000e+000
      outer loop
         vertex -3.100000e+000 3.100000e+000 2.200000e+002
         vertex -3.100000e+000 9.396926e-001 1.034202e+001
         vertex -3.100000e+000 8.660254e-001 1.050000e+001
      endloop
   endfacet
   facet normal -1.000000e+000 0.000000e+000 0.000000e+000
      outer loop
         vertex -3.100000e+000 1.736482e-001 2.090152e+002
         vertex -3.100000e+000 3.420202e-001 2.090603e+002
         vertex -3.100000e+000 8.660254e-001 1.050000e+001
      endloop
   endfacet
   facet normal -1.000000e+000 0.000000e+000 0.000000e+000
      outer loop
         vertex -3.100000e+000 8.660254e-001 1.050000e+001
         vertex -3.100000e+000 3.420202e-001 2.090603e+002
         vertex -3.100000e+000 5.000000e-001 2.091340e+002
      endloop
   endfacet
   facet normal -1.000000e+000 0.000000e+000 0.000000e+000
      outer loop
         vertex -3.100000e+000 5.000000e-001 2.091340e+002
         vertex -3.100000e+000 6.427876e-001 2.092339e+002
         vertex -3.100000e+000 8.660254e-001 1.050000e+001
      endloop
   endfacet
   facet normal -1.000000e+000 0.000000e+000 0.000000e+000
      outer loop
         vertex -3.100000e+000 8.660254e-001 1.050000e+001
         vertex -3.100000e+000 6.427876e-001 2.092339e+002
         vertex -3.100000e+000 7.660444e-001 2.093572e+002
      endloop
   endfacet
   facet normal -1.000000e+000 0.000000e+000 0.000000e+000
      outer loop
         vertex -3.100000e+000 8.660254e-001 1.050000e+001
         vertex -3.100000e+000 7.660444e-001 2.093572e+002
         vertex -3.100000e+000 8.660254e-001 2.095000e+002
      endloop
   endfacet
   facet normal -1.000000e+000 0.000000e+000 0.000000e+000
      outer loop
         vertex -3.100000e+000 -3.420202e-001 9.060308e+000
         vertex -3.100000e+000 -1.736482e-001 9.015192e+000
         vertex -3.100000e+000 -3.100000e+000 0.000000e+000
      endloop
   endfacet
   facet normal -1.000000e+000 0.000000e+000 0.000000e+000
      outer loop
         vertex -3.100000e+000 -3.100000e+000 0.000000e+000
         vertex -3.100000e+000 -1.736482e-001 9.015192e+000
         vertex -3.100000e+000 0.000000e+000 9.000000e+000
      endloop
   endfacet
   facet normal -1.000000e+000 0.000000e+000 0.000000e+000
      outer loop
         vertex -3.100000e+000 -3.100000e+000 0.000000e+000
         vertex -3.100000e+000 0.000000e+000 9.000000e+000
         vertex -3.100000e+000 3.100000e+000 0.000000e+000
      endloop
   endfacet
   facet normal -1.000000e+000 0.000000e+000 0.000000e+000
      outer loop
         vertex -3.100000e+000 3.100000e+000 0.000000e+000
         vertex -3.100000e+000 0.000000e+000 9.000000e+000
         vertex -3.100000e+000 1.736482e-001 9.015192e+000
      endloop
   endfacet
   facet normal -1.000000e+000 0.000000e+000 0.000000e+000
      outer loop
         vertex -3.100000e+000 3.100000e+000 0.000000e+000
         vertex -3.100000e+000 1.736482e-001 9.015192e+000
         vertex -3.100000e+000 3.420202e-001 9.060308e+000
      endloop
   endfacet
   facet normal -1.000000e+000 0.000000e+000 0.000000e+000
      outer loop
         vertex -3.100000e+000 1.736482e-001 2.090152e+002
         vertex -3.100000e+000 8.660254e-001 1.050000e+001
         vertex -3.100000e+000 0.000000e+000 2.090000e+002
      endloop
   endfacet
   facet normal -1.000000e+000 0.000000e+000 0.000000e+000
      outer loop
         vertex -3.100000e+000 0.000000e+000 2.090000e+002
         vertex -3.100000e+000 8.660254e-001 1.050000e+001
         vertex -3.100000e+000 7.660444e-001 1.064279e+001
      endloop
   endfacet
   facet normal -1.000000e+000 0.000000e+000 0.000000e+000
      outer loop
         vertex -3.100000e+000 0.000000e+000 2.090000e+002
         vertex -3.100000e+000 7.660444e-001 1.064279e+001
         vertex -3.100000e+000 6.427876e-001 1.076604e+001
      endloop
   endfacet
   facet normal -1.000000e+000 0.000000e+000 0.000000e+000
      outer loop
         vertex -3.100000e+000 3.100000e+000 2.200000e+002
         vertex -3.100000e+000 9.848077e-001 2.101736e+002
         vertex -3.100000e+000 9.396926e-001 2.103420e+002
      endloop
   endfacet
   facet normal -1.000000e+000 0.000000e+000 0.000000e+000
      outer loop
         vertex -3.100000e+000 9.396926e-001 2.103420e+002
         vertex -3.100000e+000 8.660254e-001 2.105000e+002
         vertex -3.100000e+000 3.100000e+000 2.200000e+002
      endloop
   endfacet
   facet normal -1.000000e+000 0.000000e+000 0.000000e+000
      outer loop
         vertex -3.100000e+000 3.100000e+000 2.200000e+002
         vertex -3.100000e+000 8.660254e-001 2.105000e+002
         vertex -3.100000e+000 7.660444e-001 2.106428e+002
      endloop
   endfacet
   facet normal -1.000000e+000 0.000000e+000 0.000000e+000
      outer loop
         vertex -3.100000e+000 3.100000e+000 2.200000e+002
         vertex -3.100000e+000 7.660444e-001 2.106428e+002
         vertex -3.100000e+000 6.427876e-001 2.107661e+002
      endloop
   endfacet
   facet normal -1.000000e+000 0.000000e+000 0.000000e+000
      outer loop
         vertex -3.100000e+000 6.427876e-001 2.107661e+002
         vertex -3.100000e+000 5.000000e-001 2.108660e+002
         vertex -3.100000e+000 3.100000e+000 2.200000e+002
      endloop
   endfacet
   facet normal -1.000000e+000 0.000000e+000 0.000000e+000
      outer loop
         vertex -3.100000e+000 3.100000e+000 2.200000e+002
         vertex -3.100000e+000 5.000000e-001 2.108660e+002
         vertex -3.100000e+000 3.420202e-001 2.109397e+002
      endloop
   endfacet
   facet normal -1.000000e+000 0.000000e+000 0.000000e+000
      outer loop
         vertex -3.100000e+000 3.100000e+000 2.200000e+002
         vertex -3.100000e+000 3.420202e-001 2.109397e+002
         vertex -3.100000e+000 1.736482e-001 2.109848e+002
      endloop
   endfacet
   facet normal -1.000000e+000 0.000000e+000 0.000000e+000
      outer loop
         vertex -3.100000e+000 8.660254e-001 2.095000e+002
         vertex -3.100000e+000 9.396926e-001 2.096580e+002
         vertex -3.100000e+000 8.660254e-001 1.050000e+001
      endloop
   endfacet
   facet normal -1.000000e+000 0.000000e+000 0.000000e+000
      outer loop
         vertex -3.100000e+000 8.660254e-001 1.050000e+001
         vertex -3.100000e+000 9.396926e-001 2.096580e+002
         vertex -3.100000e+000 9.848077e-001 2.098264e+002
      endloop
   endfacet
   facet normal -1.000000e+000 0.000000e+000 0.000000e+000
      outer loop
         vertex -3.100000e+000 8.660254e-001 1.050000e+001
         vertex -3.100000e+000 9.848077e-001 2.098264e+002
         vertex -3.100000e+000 3.100000e+000 2.200000e+002
      endloop
   endfacet
   facet normal -1.000000e+000 0.000000e+000 0.000000e+000
      outer loop
         vertex -3.100000e+000 3.100000e+000 2.200000e+002
         vertex -3.100000e+000 9.848077e-001 2.098264e+002
         vertex -3.100000e+000 1.000000e+000 2.100000e+002
      endloop
   endfacet
   facet normal -1.000000e+000 0.000000e+000 0.000000e+000
      outer loop
         vertex -3.100000e+000 3.100000e+000 2.200000e+002
         vertex -3.100000e+000 1.000000e+000 2.100000e+002
         vertex -3.100000e+000 9.848077e-001 2.101736e+002
      endloop
   endfacet
   facet normal 1.398971e-016 -1.000000e+000 0.000000e+000
      outer loop
         vertex 3.100000e+000 -3.100000e+000 2.200000e+002
         vertex -3.100000e+000 -3.100000e+000 2.200000e+002
         vertex 3.100000e+000 -3.100000e+000 0.000000e+000
      endloop
   endfacet
   facet normal 1.398971e-016 -1.000000e+000 0.000000e+000
      outer loop
         vertex 3.100000e+000 -3.100000e+000 0.000000e+000
         vertex -3.100000e+000 -3.100000e+000 2.200000e+002
         vertex -3.100000e+000 -3.100000e+000 0.000000e+000
      endloop
   endfacet
   facet normal 1.000000e+000 0.000000e+000 0.000000e+000
      outer loop
         vertex 3.100000e+000 1.000000e+000 2.100000e+002
         vertex 3.100000e+000 -8.660254e-001 1.050000e+001
         vertex 3.100000e+000 -7.660444e-001 1.064279e+001
      endloop
   endfacet
   facet normal 1.000000e+000 0.000000e+000 0.000000e+000
      outer loop
         vertex 3.100000e+000 3.100000e+000 2.200000e+002
         vertex 3.100000e+000 -1.736482e-001 1.098481e+001
         vertex 3.100000e+000 -4.336809e-016 1.100000e+001
      endloop
   endfacet
   facet normal 1.000000e+000 0.000000e+000 0.000000e+000
      outer loop
         vertex 3.100000e+000 -4.336809e-016 1.100000e+001
         vertex 3.100000e+000 1.736482e-001 1.098481e+001
         vertex 3.100000e+000 3.100000e+000 2.200000e+002
      endloop
   endfacet
   facet normal 1.000000e+000 0.000000e+000 0.000000e+000
      outer loop
         vertex 3.100000e+000 3.100000e+000 2.200000e+002
         vertex 3.100000e+000 1.736482e-001 1.098481e+001
         vertex 3.100000e+000 3.420202e-001 1.093969e+001
      endloop
   endfacet
   facet normal 1.000000e+000 0.000000e+000 0.000000e+000
      outer loop
         vertex 3.100000e+000 3.100000e+000 2.200000e+002
         vertex 3.100000e+000 3.420202e-001 1.093969e+001
         vertex 3.100000e+000 5.000000e-001 1.086603e+001
      endloop
   endfacet
   facet normal 1.000000e+000 0.000000e+000 0.000000e+000
      outer loop
         vertex 3.100000e+000 5.000000e-001 1.086603e+001
         vertex 3.100000e+000 6.427876e-001 1.076604e+001
         vertex 3.100000e+000 3.100000e+000 2.200000e+002
      endloop
   endfacet
   facet normal 1.000000e+000 0.000000e+000 0.000000e+000
      outer loop
         vertex 3.100000e+000 3.100000e+000 2.200000e+002
         vertex 3.100000e+000 6.427876e-001 1.076604e+001
         vertex 3.100000e+000 7.660444e-001 1.064279e+001
      endloop
   endfacet
   facet normal 1.000000e+000 0.000000e+000 0.000000e+000
      outer loop
         vertex 3.100000e+000 3.100000e+000 2.200000e+002
         vertex 3.100000e+000 7.660444e-001 1.064279e+001
         vertex 3.100000e+000 8.660254e-001 1.050000e+001
      endloop
   endfacet
   facet normal 1.000000e+000 0.000000e+000 0.000000e+000
      outer loop
         vertex 3.100000e+000 9.848077e-001 9.826352e+000
         vertex 3.100000e+000 9.396926e-001 9.657980e+000
         vertex 3.100000e+000 3.100000e+000 0.000000e+000
      endloop
   endfacet
   facet normal 1.000000e+000 0.000000e+000 0.000000e+000
      outer loop
         vertex 3.100000e+000 3.100000e+000 0.000000e+000
         vertex 3.100000e+000 9.396926e-001 9.657980e+000
         vertex 3.100000e+000 8.660254e-001 9.500000e+000
      endloop
   endfacet
   facet normal 1.000000e+000 0.000000e+000 0.000000e+000
      outer loop
         vertex 3.100000e+000 8.660254e-001 9.500000e+000
         vertex 3.100000e+000 7.660444e-001 9.357212e+000
         vertex 3.100000e+000 3.100000e+000 0.000000e+000
      endloop
   endfacet
   facet normal 1.000000e+000 0.000000e+000 0.000000e+000
      outer loop
         vertex 3.100000e+000 3.100000e+000 0.000000e+000
         vertex 3.100000e+000 7.660444e-001 9.357212e+000
         vertex 3.100000e+000 6.427876e-001 9.233955e+000
      endloop
   endfacet
   facet normal 1.000000e+000 0.000000e+000 0.000000e+000
      outer loop
         vertex 3.100000e+000 3.100000e+000 0.000000e+000
         vertex 3.100000e+000 6.427876e-001 9.233955e+000
         vertex 3.100000e+000 5.000000e-001 9.133975e+000
      endloop
   endfacet
   facet normal 1.000000e+000 0.000000e+000 0.000000e+000
      outer loop
         vertex 3.100000e+000 0.000000e+000 9.000000e+000
         vertex 3.100000e+000 -3.100000e+000 0.000000e+000
         vertex 3.100000e+000 1.736482e-001 9.015192e+000
      endloop
   endfacet
   facet normal 1.000000e+000 0.000000e+000 0.000000e+000
      outer loop
         vertex 3.100000e+000 1.736482e-001 9.015192e+000
         vertex 3.100000e+000 -3.100000e+000 0.000000e+000
         vertex 3.100000e+000 3.100000e+000 0.000000e+000
      endloop
   endfacet
   facet normal 1.000000e+000 0.000000e+000 0.000000e+000
      outer loop
         vertex 3.100000e+000 1.736482e-001 9.015192e+000
         vertex 3.100000e+000 3.100000e+000 0.000000e+000
         vertex 3.100000e+000 3.420202e-001 9.060308e+000
      endloop
   endfacet
   facet normal 1.000000e+000 0.000000e+000 0.000000e+000
      outer loop
         vertex 3.100000e+000 3.420202e-001 9.060308e+000
         vertex 3.100000e+000 3.100000e+000 0.000000e+000
         vertex 3.100000e+000 5.000000e-001 9.133975e+000
      endloop
   endfacet
   facet normal 1.000000e+000 0.000000e+000 0.000000e+000
      outer loop
         vertex 3.100000e+000 8.660254e-001 1.050000e+001
         vertex 3.100000e+000 9.396926e-001 1.034202e+001
         vertex 3.100000e+000 3.100000e+000 2.200000e+002
      endloop
   endfacet
   facet normal 1.000000e+000 0.000000e+000 0.000000e+000
      outer loop
         vertex 3.100000e+000 3.100000e+000 2.200000e+002
         vertex 3.100000e+000 9.396926e-001 1.034202e+001
         vertex 3.100000e+000 9.848077e-001 1.017365e+001
      endloop
   endfacet
   facet normal 1.000000e+000 0.000000e+000 0.000000e+000
      outer loop
         vertex 3.100000e+000 3.100000e+000 2.200000e+002
         vertex 3.100000e+000 9.848077e-001 1.017365e+001
         vertex 3.100000e+000 3.100000e+000 0.000000e+000
      endloop
   endfacet
   facet normal 1.000000e+000 0.000000e+000 0.000000e+000
      outer loop
         vertex 3.100000e+000 3.100000e+000 0.000000e+000
         vertex 3.100000e+000 9.848077e-001 1.017365e+001
         vertex 3.100000e+000 1.000000e+000 1.000000e+001
      endloop
   endfacet
   facet normal 1.000000e+000 0.000000e+000 0.000000e+000
      outer loop
         vertex 3.100000e+000 3.100000e+000 0.000000e+000
         vertex 3.100000e+000 1.000000e+000 1.000000e+001
         vertex 3.100000e+000 9.848077e-001 9.826352e+000
      endloop
   endfacet
   facet normal 1.000000e+000 0.000000e+000 0.000000e+000
      outer loop
         vertex 3.100000e+000 9.396926e-001 2.096580e+002
         vertex 3.100000e+000 -1.000000e+000 1.000000e+001
         vertex 3.100000e+000 9.848077e-001 2.098264e+002
      endloop
   endfacet
   facet normal 1.000000e+000 0.000000e+000 0.000000e+000
      outer loop
         vertex 3.100000e+000 9.848077e-001 2.098264e+002
         vertex 3.100000e+000 -1.000000e+000 1.000000e+001
         vertex 3.100000e+000 -9.848077e-001 1.017365e+001
      endloop
   endfacet
   facet normal 1.000000e+000 0.000000e+000 0.000000e+000
      outer loop
         vertex 3.100000e+000 9.848077e-001 2.098264e+002
         vertex 3.100000e+000 -9.848077e-001 1.017365e+001
         vertex 3.100000e+000 1.000000e+000 2.100000e+002
      endloop
   endfacet
   facet normal 1.000000e+000 0.000000e+000 0.000000e+000
      outer loop
         vertex 3.100000e+000 1.000000e+000 2.100000e+002
         vertex 3.100000e+000 -9.848077e-001 1.017365e+001
         vertex 3.100000e+000 -9.396926e-001 1.034202e+001
      endloop
   endfacet
   facet normal 1.000000e+000 0.000000e+000 0.000000e+000
      outer loop
         vertex 3.100000e+000 1.000000e+000 2.100000e+002
         vertex 3.100000e+000 -9.396926e-001 1.034202e+001
         vertex 3.100000e+000 -8.660254e-001 1.050000e+001
      endloop
   endfacet
   facet normal 1.000000e+000 0.000000e+000 0.000000e+000
      outer loop
         vertex 3.100000e+000 0.000000e+000 9.000000e+000
         vertex 3.100000e+000 -1.736482e-001 9.015192e+000
         vertex 3.100000e+000 -3.100000e+000 0.000000e+000
      endloop
   endfacet
   facet normal 1.000000e+000 0.000000e+000 0.000000e+000
      outer loop
         vertex 3.100000e+000 -3.100000e+000 0.000000e+000
         vertex 3.100000e+000 -1.736482e-001 9.015192e+000
         vertex 3.100000e+000 -3.420202e-001 9.060308e+000
      endloop
   endfacet
   facet normal 1.000000e+000 0.000000e+000 0.000000e+000
      outer loop
         vertex 3.100000e+000 -3.100000e+000 0.000000e+000
         vertex 3.100000e+000 -3.420202e-001 9.060308e+000
         vertex 3.100000e+000 -5.000000e-001 9.133975e+000
      endloop
   endfacet
   facet normal 1.000000e+000 0.000000e+000 0.000000e+000
      outer loop
         vertex 3.100000e+000 9.396926e-001 2.096580e+002
         vertex 3.100000e+000 8.660254e-001 2.095000e+002
         vertex 3.100000e+000 -1.000000e+000 1.000000e+001
      endloop
   endfacet
   facet normal 1.000000e+000 0.000000e+000 0.000000e+000
      outer loop
         vertex 3.100000e+000 -1.000000e+000 1.000000e+001
         vertex 3.100000e+000 8.660254e-001 2.095000e+002
         vertex 3.100000e+000 7.660444e-001 2.093572e+002
      endloop
   endfacet
   facet normal 1.000000e+000 0.000000e+000 0.000000e+000
      outer loop
         vertex 3.100000e+000 -1.000000e+000 1.000000e+001
         vertex 3.100000e+000 7.660444e-001 2.093572e+002
         vertex 3.100000e+000 6.427876e-001 2.092339e+002
      endloop
   endfacet
   facet normal 1.000000e+000 0.000000e+000 0.000000e+000
      outer loop
         vertex 3.100000e+000 6.427876e-001 2.092339e+002
         vertex 3.100000e+000 5.000000e-001 2.091340e+002
         vertex 3.100000e+000 -1.000000e+000 1.000000e+001
      endloop
   endfacet
   facet normal 1.000000e+000 0.000000e+000 0.000000e+000
      outer loop
         vertex 3.100000e+000 -1.000000e+000 1.000000e+001
         vertex 3.100000e+000 5.000000e-001 2.091340e+002
         vertex 3.100000e+000 3.420202e-001 2.090603e+002
      endloop
   endfacet
   facet normal 1.000000e+000 0.000000e+000 0.000000e+000
      outer loop
         vertex 3.100000e+000 -1.000000e+000 1.000000e+001
         vertex 3.100000e+000 3.420202e-001 2.090603e+002
         vertex 3.100000e+000 1.736482e-001 2.090152e+002
      endloop
   endfacet
   facet normal 1.000000e+000 0.000000e+000 0.000000e+000
      outer loop
         vertex 3.100000e+000 -5.000000e-001 9.133975e+000
         vertex 3.100000e+000 -6.427876e-001 9.233955e+000
         vertex 3.100000e+000 -3.100000e+000 0.000000e+000
      endloop
   endfacet
   facet normal 1.000000e+000 0.000000e+000 0.000000e+000
      outer loop
         vertex 3.100000e+000 -3.100000e+000 0.000000e+000
         vertex 3.100000e+000 -6.427876e-001 9.233955e+000
         vertex 3.100000e+000 -7.660444e-001 9.357212e+000
      endloop
   endfacet
   facet normal 1.000000e+000 0.000000e+000 0.000000e+000
      outer loop
         vertex 3.100000e+000 -3.100000e+000 0.000000e+000
         vertex 3.100000e+000 -7.660444e-001 9.357212e+000
         vertex 3.100000e+000 -8.660254e-001 9.500000e+000
      endloop
   endfacet
   facet normal 1.000000e+000 0.000000e+000 0.000000e+000
      outer loop
         vertex 3.100000e+000 -5.000000e-001 2.091340e+002
         vertex 3.100000e+000 -6.427876e-001 2.092339e+002
         vertex 3.100000e+000 -3.100000e+000 0.000000e+000
      endloop
   endfacet
   facet normal 1.000000e+000 0.000000e+000 0.000000e+000
      outer loop
         vertex 3.100000e+000 -3.100000e+000 0.000000e+000
         vertex 3.100000e+000 -6.427876e-001 2.092339e+002
         vertex 3.100000e+000 -7.660444e-001 2.093572e+002
      endloop
   endfacet
   facet normal 1.000000e+000 0.000000e+000 0.000000e+000
      outer loop
         vertex 3.100000e+000 -3.100000e+000 0.000000e+000
         vertex 3.100000e+000 -7.660444e-001 2.093572e+002
         vertex 3.100000e+000 -8.660254e-001 2.095000e+002
      endloop
   endfacet
   facet normal 1.000000e+000 0.000000e+000 0.000000e+000
      outer loop
         vertex 3.100000e+000 -8.660254e-001 9.500000e+000
         vertex 3.100000e+000 -9.396926e-001 9.657980e+000
         vertex 3.100000e+000 -3.100000e+000 0.000000e+000
      endloop
   endfacet
   facet normal 1.000000e+000 0.000000e+000 0.000000e+000
      outer loop
         vertex 3.100000e+000 -3.100000e+000 0.000000e+000
         vertex 3.100000e+000 -9.396926e-001 9.657980e+000
         vertex 3.100000e+000 -9.848077e-001 9.826352e+000
      endloop
   endfacet
   facet normal 1.000000e+000 0.000000e+000 0.000000e+000
      outer loop
         vertex 3.100000e+000 -3.100000e+000 0.000000e+000
         vertex 3.100000e+000 -9.848077e-001 9.826352e+000
         vertex 3.100000e+000 -1.000000e+000 1.000000e+001
      endloop
   endfacet
   facet normal 1.000000e+000 0.000000e+000 0.000000e+000
      outer loop
         vertex 3.100000e+000 9.396926e-001 2.103420e+002
         vertex 3.100000e+000 9.848077e-001 2.101736e+002
         vertex 3.100000e+000 3.100000e+000 2.200000e+002
      endloop
   endfacet
   facet normal 1.000000e+000 0.000000e+000 0.000000e+000
      outer loop
         vertex 3.100000e+000 3.100000e+000 2.200000e+002
         vertex 3.100000e+000 9.848077e-001 2.101736e+002
         vertex 3.100000e+000 1.000000e+000 2.100000e+002
      endloop
   endfacet
   facet normal 1.000000e+000 0.000000e+000 0.000000e+000
      outer loop
         vertex 3.100000e+000 1.736482e-001 2.090152e+002
         vertex 3.100000e+000 0.000000e+000 2.090000e+002
         vertex 3.100000e+000 -1.000000e+000 1.000000e+001
      endloop
   endfacet
   facet normal 1.000000e+000 0.000000e+000 0.000000e+000
      outer loop
         vertex 3.100000e+000 -1.000000e+000 1.000000e+001
         vertex 3.100000e+000 0.000000e+000 2.090000e+002
         vertex 3.100000e+000 -1.736482e-001 2.090152e+002
      endloop
   endfacet
   facet normal 1.000000e+000 0.000000e+000 0.000000e+000
      outer loop
         vertex 3.100000e+000 -1.000000e+000 1.000000e+001
         vertex 3.100000e+000 -1.736482e-001 2.090152e+002
         vertex 3.100000e+000 -3.100000e+000 0.000000e+000
      endloop
   endfacet
   facet normal 1.000000e+000 0.000000e+000 0.000000e+000
      outer loop
         vertex 3.100000e+000 -3.100000e+000 0.000000e+000
         vertex 3.100000e+000 -1.736482e-001 2.090152e+002
         vertex 3.100000e+000 -3.420202e-001 2.090603e+002
      endloop
   endfacet
   facet normal 1.000000e+000 0.000000e+000 0.000000e+000
      outer loop
         vertex 3.100000e+000 -3.100000e+000 0.000000e+000
         vertex 3.100000e+000 -3.420202e-001 2.090603e+002
         vertex 3.100000e+000 -5.000000e-001 2.091340e+002
      endloop
   endfacet
   facet normal 1.000000e+000 0.000000e+000 0.000000e+000
      outer loop
         vertex 3.100000e+000 -7.660444e-001 2.106428e+002
         vertex 3.100000e+000 -6.427876e-001 2.107661e+002
         vertex 3.100000e+000 -3.100000e+000 2.200000e+002
      endloop
   endfacet
   facet normal 1.000000e+000 0.000000e+000 0.000000e+000
      outer loop
         vertex 3.100000e+000 -3.100000e+000 2.200000e+002
         vertex 3.100000e+000 -6.427876e-001 2.107661e+002
         vertex 3.100000e+000 -5.000000e-001 2.108660e+002
      endloop
   endfacet
   facet normal 1.000000e+000 0.000000e+000 0.000000e+000
      outer loop
         vertex 3.100000e+000 -3.100000e+000 2.200000e+002
         vertex 3.100000e+000 -5.000000e-001 2.108660e+002
         vertex 3.100000e+000 -3.420202e-001 2.109397e+002
      endloop
   endfacet
   facet normal 1.000000e+000 0.000000e+000 0.000000e+000
      outer loop
         vertex 3.100000e+000 6.427876e-001 2.107661e+002
         vertex 3.100000e+000 3.100000e+000 2.200000e+002
         vertex 3.100000e+000 5.000000e-001 2.108660e+002
      endloop
   endfacet
   facet normal 1.000000e+000 0.000000e+000 0.000000e+000
      outer loop
         vertex 3.100000e+000 5.000000e-001 2.108660e+002
         vertex 3.100000e+000 3.100000e+000 2.200000e+002
         vertex 3.100000e+000 3.420202e-001 2.109397e+002
      endloop
   endfacet
   facet normal 1.000000e+000 0.000000e+000 0.000000e+000
      outer loop
         vertex 3.100000e+000 6.427876e-001 2.107661e+002
         vertex 3.100000e+000 7.660444e-001 2.106428e+002
         vertex 3.100000e+000 3.100000e+000 2.200000e+002
      endloop
   endfacet
   facet normal 1.000000e+000 0.000000e+000 0.000000e+000
      outer loop
         vertex 3.100000e+000 3.100000e+000 2.200000e+002
         vertex 3.100000e+000 7.660444e-001 2.106428e+002
         vertex 3.100000e+000 8.660254e-001 2.105000e+002
      endloop
   endfacet
   facet normal 1.000000e+000 0.000000e+000 0.000000e+000
      outer loop
         vertex 3.100000e+000 3.100000e+000 2.200000e+002
         vertex 3.100000e+000 8.660254e-001 2.105000e+002
         vertex 3.100000e+000 9.396926e-001 2.103420e+002
      endloop
   endfacet
   facet normal 1.000000e+000 0.000000e+000 0.000000e+000
      outer loop
         vertex 3.100000e+000 -7.660444e-001 1.064279e+001
         vertex 3.100000e+000 -6.427876e-001 1.076604e+001
         vertex 3.100000e+000 1.000000e+000 2.100000e+002
      endloop
   endfacet
   facet normal 1.000000e+000 0.000000e+000 0.000000e+000
      outer loop
         vertex 3.100000e+000 1.000000e+000 2.100000e+002
         vertex 3.100000e+000 -6.427876e-001 1.076604e+001
         vertex 3.100000e+000 -5.000000e-001 1.086603e+001
      endloop
   endfacet
   facet normal 1.000000e+000 0.000000e+000 0.000000e+000
      outer loop
         vertex 3.100000e+000 1.000000e+000 2.100000e+002
         vertex 3.100000e+000 -5.000000e-001 1.086603e+001
         vertex 3.100000e+000 3.100000e+000 2.200000e+002
      endloop
   endfacet
   facet normal 1.000000e+000 0.000000e+000 0.000000e+000
      outer loop
         vertex 3.100000e+000 3.100000e+000 2.200000e+002
         vertex 3.100000e+000 -5.000000e-001 1.086603e+001
         vertex 3.100000e+000 -3.420202e-001 1.093969e+001
      endloop
   endfacet
   facet normal 1.000000e+000 0.000000e+000 0.000000e+000
      outer loop
         vertex 3.100000e+000 3.100000e+000 2.200000e+002
         vertex 3.100000e+000 -3.420202e-001 1.093969e+001
         vertex 3.100000e+000 -1.736482e-001 1.098481e+001
      endloop
   endfacet
   facet normal 1.000000e+000 0.000000e+000 0.000000e+000
      outer loop
         vertex 3.100000e+000 -9.848077e-001 2.101736e+002
         vertex 3.100000e+000 -9.396926e-001 2.103420e+002
         vertex 3.100000e+000 -3.100000e+000 2.200000e+002
      endloop
   endfacet
   facet normal 1.000000e+000 0.000000e+000 0.000000e+000
      outer loop
         vertex 3.100000e+000 -3.100000e+000 2.200000e+002
         vertex 3.100000e+000 -9.396926e-001 2.103420e+002
         vertex 3.100000e+000 -8.660254e-001 2.105000e+002
      endloop
   endfacet
   facet normal 1.000000e+000 0.000000e+000 0.000000e+000
      outer loop
         vertex 3.100000e+000 -3.100000e+000 2.200000e+002
         vertex 3.100000e+000 -8.660254e-001 2.105000e+002
         vertex 3.100000e+000 -7.660444e-001 2.106428e+002
      endloop
   endfacet
   facet normal 1.000000e+000 0.000000e+000 0.000000e+000
      outer loop
         vertex 3.100000e+000 -8.660254e-001 2.095000e+002
         vertex 3.100000e+000 -9.396926e-001 2.096580e+002
         vertex 3.100000e+000 -3.100000e+000 0.000000e+000
      endloop
   endfacet
   facet normal 1.000000e+000 0.000000e+000 0.000000e+000
      outer loop
         vertex 3.100000e+000 -3.100000e+000 0.000000e+000
         vertex 3.100000e+000 -9.396926e-001 2.096580e+002
         vertex 3.100000e+000 -9.848077e-001 2.098264e+002
      endloop
   endfacet
   facet normal 1.000000e+000 0.000000e+000 0.000000e+000
      outer loop
         vertex 3.100000e+000 -3.100000e+000 0.000000e+000
         vertex 3.100000e+000 -9.848077e-001 2.098264e+002
         vertex 3.100000e+000 -3.100000e+000 2.200000e+002
      endloop
   endfacet
   facet normal 1.000000e+000 0.000000e+000 0.000000e+000
      outer loop
         vertex 3.100000e+000 -3.100000e+000 2.200000e+002
         vertex 3.100000e+000 -9.848077e-001 2.098264e+002
         vertex 3.100000e+000 -1.000000e+000 2.100000e+002
      endloop
   endfacet
   facet normal 1.000000e+000 0.000000e+000 0.000000e+000
      outer loop
         vertex 3.100000e+000 -3.100000e+000 2.200000e+002
         vertex 3.100000e+000 -1.000000e+000 2.100000e+002
         vertex 3.100000e+000 -9.848077e-001 2.101736e+002
      endloop
   endfacet
   facet normal 1.000000e+000 0.000000e+000 0.000000e+000
      outer loop
         vertex 3.100000e+000 -3.420202e-001 2.109397e+002
         vertex 3.100000e+000 -1.736482e-001 2.109848e+002
         vertex 3.100000e+000 -3.100000e+000 2.200000e+002
      endloop
   endfacet
   facet normal 1.000000e+000 0.000000e+000 0.000000e+000
      outer loop
         vertex 3.100000e+000 -3.100000e+000 2.200000e+002
         vertex 3.100000e+000 -1.736482e-001 2.109848e+002
         vertex 3.100000e+000 -4.336809e-016 2.110000e+002
      endloop
   endfacet
   facet normal 1.000000e+000 0.000000e+000 0.000000e+000
      outer loop
         vertex 3.100000e+000 -3.100000e+000 2.200000e+002
         vertex 3.100000e+000 -4.336809e-016 2.110000e+002
         vertex 3.100000e+000 3.100000e+000 2.200000e+002
      endloop
   endfacet
   facet normal 1.000000e+000 0.000000e+000 0.000000e+000
      outer loop
         vertex 3.100000e+000 3.100000e+000 2.200000e+002
         vertex 3.100000e+000 -4.336809e-016 2.110000e+002
         vertex 3.100000e+000 1.736482e-001 2.109848e+002
      endloop
   endfacet
   facet normal 1.000000e+000 0.000000e+000 0.000000e+000
      outer loop
         vertex 3.100000e+000 3.100000e+000 2.200000e+002
         vertex 3.100000e+000 1.736482e-001 2.109848e+002
         vertex 3.100000e+000 3.420202e-001 2.109397e+002
      endloop
   endfacet
   facet normal -1.398971e-016 1.000000e+000 0.000000e+000
      outer loop
         vertex -3.100000e+000 3.100000e+000 2.200000e+002
         vertex 3.100000e+000 3.100000e+000 2.200000e+002
         vertex -3.100000e+000 3.100000e+000 0.000000e+000
      endloop
   endfacet
   facet normal -1.398971e-016 1.000000e+000 0.000000e+000
      outer loop
         vertex -3.100000e+000 3.100000e+000 0.000000e+000
         vertex 3.100000e+000 3.100000e+000 2.200000e+002
         vertex 3.100000e+000 3.100000e+000 0.000000e+000
      endloop
   endfacet
   facet normal 0.000000e+000 0.000000e+000 1.000000e+000
      outer loop
         vertex 3.100000e+000 -3.100000e+000 2.200000e+002
         vertex 3.100000e+000 3.100000e+000 2.200000e+002
         vertex -3.100000e+000 -3.100000e+000 2.200000e+002
      endloop
   endfacet
   facet normal 0.000000e+000 0.000000e+000 1.000000e+000
      outer loop
         vertex -3.100000e+000 -3.100000e+000 2.200000e+002
         vertex 3.100000e+000 3.100000e+000 2.200000e+002
         vertex -3.100000e+000 3.100000e+000 2.200000e+002
      endloop
   endfacet
   facet normal 0.000000e+000 0.000000e+000 -1.000000e+000
      outer loop
         vertex 3.100000e+000 3.100000e+000 0.000000e+000
         vertex 3.100000e+000 -3.100000e+000 0.000000e+000
         vertex -3.100000e+000 3.100000e+000 0.000000e+000
      endloop
   endfacet
   facet normal 0.000000e+000 0.000000e+000 -1.000000e+000
      outer loop
         vertex -3.100000e+000 3.100000e+000 0.000000e+000
         vertex 3.100000e+000 -3.100000e+000 0.000000e+000
         vertex -3.100000e+000 -3.100000e+000 0.000000e+000
      endloop
   endfacet
   facet normal 0.000000e+000 -5.807913e-002 -9.983119e-001
      outer loop
         vertex 3.100000e+000 -2.449294e-016 2.110000e+002
         vertex -3.100000e+000 -2.449294e-016 2.110000e+002
         vertex 3.100000e+000 1.736482e-001 2.109848e+002
      endloop
   endfacet
   facet normal 0.000000e+000 -1.161583e-001 -9.932307e-001
      outer loop
         vertex 3.100000e+000 1.736482e-001 2.109848e+002
         vertex -3.100000e+000 -2.449294e-016 2.110000e+002
         vertex -3.100000e+000 1.736482e-001 2.109848e+002
      endloop
   endfacet
   facet normal 0.000000e+000 -2.305519e-001 -9.730600e-001
      outer loop
         vertex 3.100000e+000 1.736482e-001 2.109848e+002
         vertex -3.100000e+000 1.736482e-001 2.109848e+002
         vertex 3.100000e+000 3.420202e-001 2.109397e+002
      endloop
   endfacet
   facet normal 0.000000e+000 -2.868663e-001 -9.579706e-001
      outer loop
         vertex 3.100000e+000 3.420202e-001 2.109397e+002
         vertex -3.100000e+000 1.736482e-001 2.109848e+002
         vertex -3.100000e+000 3.420202e-001 2.109397e+002
      endloop
   endfacet
   facet normal 0.000000e+000 -3.960194e-001 -9.182422e-001
      outer loop
         vertex 3.100000e+000 3.420202e-001 2.109397e+002
         vertex -3.100000e+000 3.420202e-001 2.109397e+002
         vertex 3.100000e+000 5.000000e-001 2.108660e+002
      endloop
   endfacet
   facet normal 0.000000e+000 -4.488580e-001 -8.936031e-001
      outer loop
         vertex 3.100000e+000 5.000000e-001 2.108660e+002
         vertex -3.100000e+000 3.420202e-001 2.109397e+002
         vertex -3.100000e+000 5.000000e-001 2.108660e+002
      endloop
   endfacet
   facet normal 0.000000e+000 -5.494540e-001 -8.355240e-001
      outer loop
         vertex 3.100000e+000 5.000000e-001 2.108660e+002
         vertex -3.100000e+000 5.000000e-001 2.108660e+002
         vertex 3.100000e+000 6.427876e-001 2.107661e+002
      endloop
   endfacet
   facet normal 0.000000e+000 -5.972114e-001 -8.020838e-001
      outer loop
         vertex 3.100000e+000 6.427876e-001 2.107661e+002
         vertex -3.100000e+000 5.000000e-001 2.108660e+002
         vertex -3.100000e+000 6.427876e-001 2.107661e+002
      endloop
   endfacet
   facet normal 0.000000e+000 -6.861938e-001 -7.274188e-001
      outer loop
         vertex 3.100000e+000 6.427876e-001 2.107661e+002
         vertex -3.100000e+000 6.427876e-001 2.107661e+002
         vertex 3.100000e+000 7.660444e-001 2.106428e+002
      endloop
   endfacet
   facet normal 0.000000e+000 -7.274188e-001 -6.861938e-001
      outer loop
         vertex 3.100000e+000 7.660444e-001 2.106428e+002
         vertex -3.100000e+000 6.427876e-001 2.107661e+002
         vertex -3.100000e+000 7.660444e-001 2.106428e+002
      endloop
   endfacet
   facet normal 0.000000e+000 -8.020838e-001 -5.972114e-001
      outer loop
         vertex 3.100000e+000 7.660444e-001 2.106428e+002
         vertex -3.100000e+000 7.660444e-001 2.106428e+002
         vertex 3.100000e+000 8.660254e-001 2.105000e+002
      endloop
   endfacet
   facet normal 0.000000e+000 -8.355240e-001 -5.494540e-001
      outer loop
         vertex 3.100000e+000 8.660254e-001 2.105000e+002
         vertex -3.100000e+000 7.660444e-001 2.106428e+002
         vertex -3.100000e+000 8.660254e-001 2.105000e+002
      endloop
   endfacet
   facet normal 0.000000e+000 -8.936031e-001 -4.488580e-001
      outer loop
         vertex 3.100000e+000 8.660254e-001 2.105000e+002
         vertex -3.100000e+000 8.660254e-001 2.105000e+002
         vertex 3.100000e+000 9.396926e-001 2.103420e+002
      endloop
   endfacet
   facet normal 0.000000e+000 -9.182422e-001 -3.960194e-001
      outer loop
         vertex 3.100000e+000 9.396926e-001 2.103420e+002
         vertex -3.100000e+000 8.660254e-001 2.105000e+002
         vertex -3.100000e+000 9.396926e-001 2.103420e+002
      endloop
   endfacet
   facet normal 0.000000e+000 -9.579706e-001 -2.868663e-001
      outer loop
         vertex 3.100000e+000 9.396926e-001 2.103420e+002
         vertex -3.100000e+000 9.396926e-001 2.103420e+002
         vertex 3.100000e+000 9.848077e-001 2.101736e+002
      endloop
   endfacet
   facet normal 0.000000e+000 -9.730600e-001 -2.305519e-001
      outer loop
         vertex 3.100000e+000 9.848077e-001 2.101736e+002
         vertex -3.100000e+000 9.396926e-001 2.103420e+002
         vertex -3.100000e+000 9.848077e-001 2.101736e+002
      endloop
   endfacet
   facet normal 0.000000e+000 -9.932307e-001 -1.161583e-001
      outer loop
         vertex 3.100000e+000 9.848077e-001 2.101736e+002
         vertex -3.100000e+000 9.848077e-001 2.101736e+002
         vertex 3.100000e+000 1.000000e+000 2.100000e+002
      endloop
   endfacet
   facet normal 0.000000e+000 -9.983119e-001 -5.807913e-002
      outer loop
         vertex 3.100000e+000 1.000000e+000 2.100000e+002
         vertex -3.100000e+000 9.848077e-001 2.101736e+002
         vertex -3.100000e+000 1.000000e+000 2.100000e+002
      endloop
   endfacet
   facet normal 0.000000e+000 -9.983119e-001 5.807913e-002
      outer loop
         vertex 3.100000e+000 1.000000e+000 2.100000e+002
         vertex -3.100000e+000 1.000000e+000 2.100000e+002
         vertex 3.100000e+000 9.848077e-001 2.098264e+002
      endloop
   endfacet
   facet normal 0.000000e+000 -9.932307e-001 1.161583e-001
      outer loop
         vertex 3.100000e+000 9.848077e-001 2.098264e+002
         vertex -3.100000e+000 1.000000e+000 2.100000e+002
         vertex -3.100000e+000 9.848077e-001 2.098264e+002
      endloop
   endfacet
   facet normal 0.000000e+000 -9.730600e-001 2.305519e-001
      outer loop
         vertex 3.100000e+000 9.848077e-001 2.098264e+002
         vertex -3.100000e+000 9.848077e-001 2.098264e+002
         vertex 3.100000e+000 9.396926e-001 2.096580e+002
      endloop
   endfacet
   facet normal 0.000000e+000 -9.579706e-001 2.868663e-001
      outer loop
         vertex 3.100000e+000 9.396926e-001 2.096580e+002
         vertex -3.100000e+000 9.848077e-001 2.098264e+002
         vertex -3.100000e+000 9.396926e-001 2.096580e+002
      endloop
   endfacet
   facet normal 0.000000e+000 -9.182422e-001 3.960194e-001
      outer loop
         vertex 3.100000e+000 9.396926e-001 2.096580e+002
         vertex -3.100000e+000 9.396926e-001 2.096580e+002
         vertex 3.100000e+000 8.660254e-001 2.095000e+002
      endloop
   endfacet
   facet normal 0.000000e+000 -8.936031e-001 4.488580e-001
      outer loop
         vertex 3.100000e+000 8.660254e-001 2.095000e+002
         vertex -3.100000e+000 9.396926e-001 2.096580e+002
         vertex -3.100000e+000 8.660254e-001 2.095000e+002
      endloop
   endfacet
   facet normal 0.000000e+000 -8.355240e-001 5.494540e-001
      outer loop
         vertex 3.100000e+000 8.660254e-001 2.095000e+002
         vertex -3.100000e+000 8.660254e-001 2.095000e+002
         vertex 3.100000e+000 7.660444e-001 2.093572e+002
      endloop
   endfacet
   facet normal 0.000000e+000 -8.020838e-001 5.972114e-001
      outer loop
         vertex 3.100000e+000 7.660444e-001 2.093572e+002
         vertex -3.100000e+000 8.660254e-001 2.095000e+002
         vertex -3.100000e+000 7.660444e-001 2.093572e+002
      endloop
   endfacet
   facet normal 0.000000e+000 -7.274188e-001 6.861938e-001
      outer loop
         vertex 3.100000e+000 7.660444e-001 2.093572e+002
         vertex -3.100000e+000 7.660444e-001 2.093572e+002
         vertex 3.100000e+000 6.427876e-001 2.092339e+002
      endloop
   endfacet
   facet normal 0.000000e+000 -6.861938e-001 7.274188e-001
      outer loop
         vertex 3.100000e+000 6.427876e-001 2.092339e+002
         vertex -3.100000e+000 7.660444e-001 2.093572e+002
         vertex -3.100000e+000 6.427876e-001 2.092339e+002
      endloop
   endfacet
   facet normal 0.000000e+000 -5.972114e-001 8.020838e-001
      outer loop
         vertex 3.100000e+000 6.427876e-001 2.092339e+002
         vertex -3.100000e+000 6.427876e-001 2.092339e+002
         vertex 3.100000e+000 5.000000e-001 2.091340e+002
      endloop
   endfacet
   facet normal 0.000000e+000 -5.494540e-001 8.355240e-001
      outer loop
         vertex 3.100000e+000 5.000000e-001 2.091340e+002
         vertex -3.100000e+000 6.427876e-001 2.092339e+002
         vertex -3.100000e+000 5.000000e-001 2.091340e+002
      endloop
   endfacet
   facet normal 0.000000e+000 -4.488580e-001 8.936031e-001
      outer loop
         vertex 3.100000e+000 5.000000e-001 2.091340e+002
         vertex -3.100000e+000 5.000000e-001 2.091340e+002
         vertex 3.100000e+000 3.420202e-001 2.090603e+002
      endloop
   endfacet
   facet normal 0.000000e+000 -3.960194e-001 9.182422e-001
      outer loop
         vertex 3.100000e+000 3.420202e-001 2.090603e+002
         vertex -3.100000e+000 5.000000e-001 2.091340e+002
         vertex -3.100000e+000 3.420202e-001 2.090603e+002
      endloop
   endfacet
   facet normal 0.000000e+000 -2.868663e-001 9.579706e-001
      outer loop
         vertex 3.100000e+000 3.420202e-001 2.090603e+002
         vertex -3.100000e+000 3.420202e-001 2.090603e+002
         vertex 3.100000e+000 1.736482e-001 2.090152e+002
      endloop
   endfacet
   facet normal 0.000000e+000 -2.305519e-001 9.730600e-001
      outer loop
         vertex 3.100000e+000 1.736482e-001 2.090152e+002
         vertex -3.100000e+000 3.420202e-001 2.090603e+002
         vertex -3.100000e+000 1.736482e-001 2.090152e+002
      endloop
   endfacet
   facet normal 0.000000e+000 -1.161583e-001 9.932307e-001
      outer loop
         vertex 3.100000e+000 1.736482e-001 2.090152e+002
         vertex -3.100000e+000 1.736482e-001 2.090152e+002
         vertex 3.100000e+000 1.224647e-016 2.090000e+002
      endloop
   endfacet
   facet normal 0.000000e+000 -5.807913e-002 9.983119e-001
      outer loop
         vertex 3.100000e+000 1.224647e-016 2.090000e+002
         vertex -3.100000e+000 1.736482e-001 2.090152e+002
         vertex -3.100000e+000 1.224647e-016 2.090000e+002
      endloop
   endfacet
   facet normal 0.000000e+000 5.807913e-002 9.983119e-001
      outer loop
         vertex 3.100000e+000 1.224647e-016 2.090000e+002
         vertex -3.100000e+000 1.224647e-016 2.090000e+002
         vertex 3.100000e+000 -1.736482e-001 2.090152e+002
      endloop
   endfacet
   facet normal 0.000000e+000 1.161583e-001 9.932307e-001
      outer loop
         vertex 3.100000e+000 -1.736482e-001 2.090152e+002
         vertex -3.100000e+000 1.224647e-016 2.090000e+002
         vertex -3.100000e+000 -1.736482e-001 2.090152e+002
      endloop
   endfacet
   facet normal 0.000000e+000 2.305519e-001 9.730600e-001
      outer loop
         vertex 3.100000e+000 -1.736482e-001 2.090152e+002
         vertex -3.100000e+000 -1.736482e-001 2.090152e+002
         vertex 3.100000e+000 -3.420202e-001 2.090603e+002
      endloop
   endfacet
   facet normal 0.000000e+000 2.868663e-001 9.579706e-001
      outer loop
         vertex 3.100000e+000 -3.420202e-001 2.090603e+002
         vertex -3.100000e+000 -1.736482e-001 2.090152e+002
         vertex -3.100000e+000 -3.420202e-001 2.090603e+002
      endloop
   endfacet
   facet normal 0.000000e+000 3.960194e-001 9.182422e-001
      outer loop
         vertex 3.100000e+000 -3.420202e-001 2.090603e+002
         vertex -3.100000e+000 -3.420202e-001 2.090603e+002
         vertex 3.100000e+000 -5.000000e-001 2.091340e+002
      endloop
   endfacet
   facet normal 0.000000e+000 4.488580e-001 8.936031e-001
      outer loop
         vertex 3.100000e+000 -5.000000e-001 2.091340e+002
         vertex -3.100000e+000 -3.420202e-001 2.090603e+002
         vertex -3.100000e+000 -5.000000e-001 2.091340e+002
      endloop
   endfacet
   facet normal 0.000000e+000 5.494540e-001 8.355240e-001
      outer loop
         vertex 3.100000e+000 -5.000000e-001 2.091340e+002
         vertex -3.100000e+000 -5.000000e-001 2.091340e+002
         vertex 3.100000e+000 -6.427876e-001 2.092339e+002
      endloop
   endfacet
   facet normal 0.000000e+000 5.972114e-001 8.020838e-001
      outer loop
         vertex 3.100000e+000 -6.427876e-001 2.092339e+002
         vertex -3.100000e+000 -5.000000e-001 2.091340e+002
         vertex -3.100000e+000 -6.427876e-001 2.092339e+002
      endloop
   endfacet
   facet normal 0.000000e+000 6.861938e-001 7.274188e-001
      outer loop
         vertex 3.100000e+000 -6.427876e-001 2.092339e+002
         vertex -3.100000e+000 -6.427876e-001 2.092339e+002
         vertex 3.100000e+000 -7.660444e-001 2.093572e+002
      endloop
   endfacet
   facet normal 0.000000e+000 7.274188e-001 6.861938e-001
      outer loop
         vertex 3.100000e+000 -7.660444e-001 2.093572e+002
         vertex -3.100000e+000 -6.427876e-001 2.092339e+002
         vertex -3.100000e+000 -7.660444e-001 2.093572e+002
      endloop
   endfacet
   facet normal 0.000000e+000 8.020838e-001 5.972114e-001
      outer loop
         vertex 3.100000e+000 -7.660444e-001 2.093572e+002
         vertex -3.100000e+000 -7.660444e-001 2.093572e+002
         vertex 3.100000e+000 -8.660254e-001 2.095000e+002
      endloop
   endfacet
   facet normal 0.000000e+000 8.355240e-001 5.494540e-001
      outer loop
         vertex 3.100000e+000 -8.660254e-001 2.095000e+002
         vertex -3.100000e+000 -7.660444e-001 2.093572e+002
         vertex -3.100000e+000 -8.660254e-001 2.095000e+002
      endloop
   endfacet
   facet normal 0.000000e+000 8.936031e-001 4.488580e-001
      outer loop
         vertex 3.100000e+000 -8.660254e-001 2.095000e+002
         vertex -3.100000e+000 -8.660254e-001 2.095000e+002
         vertex 3.100000e+000 -9.396926e-001 2.096580e+002
      endloop
   endfacet
   facet normal 0.000000e+000 9.182422e-001 3.960194e-001
      outer loop
         vertex 3.100000e+000 -9.396926e-001 2.096580e+002
         vertex -3.100000e+000 -8.660254e-001 2.095000e+002
         vertex -3.100000e+000 -9.396926e-001 2.096580e+002
      endloop
   endfacet
   facet normal 0.000000e+000 9.579706e-001 2.868663e-001
      outer loop
         vertex 3.100000e+000 -9.396926e-001 2.096580e+002
         vertex -3.100000e+000 -9.396926e-001 2.096580e+002
         vertex 3.100000e+000 -9.848077e-001 2.098264e+002
      endloop
   endfacet
   facet normal 0.000000e+000 9.730600e-001 2.305519e-001
      outer loop
         vertex 3.100000e+000 -9.848077e-001 2.098264e+002
         vertex -3.100000e+000 -9.396926e-001 2.096580e+002
         vertex -3.100000e+000 -9.848077e-001 2.098264e+002
      endloop
   endfacet
   facet normal 0.000000e+000 9.932307e-001 1.161583e-001
      outer loop
         vertex 3.100000e+000 -9.848077e-001 2.098264e+002
         vertex -3.100000e+000 -9.848077e-001 2.098264e+002
         vertex 3.100000e+000 -1.000000e+000 2.100000e+002
      endloop
   endfacet
   facet normal 0.000000e+000 9.983119e-001 5.807913e-002
      outer loop
         vertex 3.100000e+000 -1.000000e+000 2.100000e+002
         vertex -3.100000e+000 -9.848077e-001 2.098264e+002
         vertex -3.100000e+000 -1.000000e+000 2.100000e+002
      endloop
   endfacet
   facet normal 0.000000e+000 9.983119e-001 -5.807913e-002
      outer loop
         vertex 3.100000e+000 -1.000000e+000 2.100000e+002
         vertex -3.100000e+000 -1.000000e+000 2.100000e+002
         vertex 3.100000e+000 -9.848077e-001 2.101736e+002
      endloop
   endfacet
   facet normal 0.000000e+000 9.932307e-001 -1.161583e-001
      outer loop
         vertex 3.100000e+000 -9.848077e-001 2.101736e+002
         vertex -3.100000e+000 -1.000000e+000 2.100000e+002
         vertex -3.100000e+000 -9.848077e-001 2.101736e+002
      endloop
   endfacet
   facet normal 0.000000e+000 9.730600e-001 -2.305519e-001
      outer loop
         vertex 3.100000e+000 -9.848077e-001 2.101736e+002
         vertex -3.100000e+000 -9.848077e-001 2.101736e+002
         vertex 3.100000e+000 -9.396926e-001 2.103420e+002
      endloop
   endfacet
   facet normal 0.000000e+000 9.579706e-001 -2.868663e-001
      outer loop
         vertex 3.100000e+000 -9.396926e-001 2.103420e+002
         vertex -3.100000e+000 -9.848077e-001 2.101736e+002
         vertex -3.100000e+000 -9.396926e-001 2.103420e+002
      endloop
   endfacet
   facet normal 0.000000e+000 9.182422e-001 -3.960194e-001
      outer loop
         vertex 3.100000e+000 -9.396926e-001 2.103420e+002
         vertex -3.100000e+000 -9.396926e-001 2.103420e+002
         vertex 3.100000e+000 -8.660254e-001 2.105000e+002
      endloop
   endfacet
   facet normal 0.000000e+000 8.936031e-001 -4.488580e-001
      outer loop
         vertex 3.100000e+000 -8.660254e-001 2.105000e+002
         vertex -3.100000e+000 -9.396926e-001 2.103420e+002
         vertex -3.100000e+000 -8.660254e-001 2.105000e+002
      endloop
   endfacet
   facet normal 0.000000e+000 8.355240e-001 -5.494540e-001
      outer loop
         vertex 3.100000e+000 -8.660254e-001 2.105000e+002
         vertex -3.100000e+000 -8.660254e-001 2.105000e+002
         vertex 3.100000e+000 -7.660444e-001 2.106428e+002
      endloop
   endfacet
   facet normal 0.000000e+000 8.020838e-001 -5.972114e-001
      outer loop
         vertex 3.100000e+000 -7.660444e-001 2.106428e+002
         vertex -3.100000e+000 -8.660254e-001 2.105000e+002
         vertex -3.100000e+000 -7.660444e-001 2.106428e+002
      endloop
   endfacet
   facet normal 0.000000e+000 7.274188e-001 -6.861938e-001
      outer loop
         vertex 3.100000e+000 -7.660444e-001 2.106428e+002
         vertex -3.100000e+000 -7.660444e-001 2.106428e+002
         vertex 3.100000e+000 -6.427876e-001 2.107661e+002
      endloop
   endfacet
   facet normal 0.000000e+000 6.861938e-001 -7.274188e-001
      outer loop
         vertex 3.100000e+000 -6.427876e-001 2.107661e+002
         vertex -3.100000e+000 -7.660444e-001 2.106428e+002
         vertex -3.100000e+000 -6.427876e-001 2.107661e+002
      endloop
   endfacet
   facet normal 0.000000e+000 5.972114e-001 -8.020838e-001
      outer loop
         vertex 3.100000e+000 -6.427876e-001 2.107661e+002
         vertex -3.100000e+000 -6.427876e-001 2.107661e+002
         vertex 3.100000e+000 -5.000000e-001 2.108660e+002
      endloop
   endfacet
   facet normal 0.000000e+000 5.494540e-001 -8.355240e-001
      outer loop
         vertex 3.100000e+000 -5.000000e-001 2.108660e+002
         vertex -3.100000e+000 -6.427876e-001 2.107661e+002
         vertex -3.100000e+000 -5.000000e-001 2.108660e+002
      endloop
   endfacet
   facet normal 0.000000e+000 4.488580e-001 -8.936031e-001
      outer loop
         vertex 3.100000e+000 -5.000000e-001 2.108660e+002
         vertex -3.100000e+000 -5.000000e-001 2.108660e+002
         vertex 3.100000e+000 -3.420202e-001 2.109397e+002
      endloop
   endfacet
   facet normal 0.000000e+000 3.960194e-001 -9.182422e-001
      outer loop
         vertex 3.100000e+000 -3.420202e-001 2.109397e+002
         vertex -3.100000e+000 -5.000000e-001 2.108660e+002
         vertex -3.100000e+000 -3.420202e-001 2.109397e+002
      endloop
   endfacet
   facet normal 0.000000e+000 2.868663e-001 -9.579706e-001
      outer loop
         vertex 3.100000e+000 -3.420202e-001 2.109397e+002
         vertex -3.100000e+000 -3.420202e-001 2.109397e+002
         vertex 3.100000e+000 -1.736482e-001 2.109848e+002
      endloop
   endfacet
   facet normal 0.000000e+000 2.305519e-001 -9.730600e-001
      outer loop
         vertex 3.100000e+000 -1.736482e-001 2.109848e+002
         vertex -3.100000e+000 -3.420202e-001 2.109397e+002
         vertex -3.100000e+000 -1.736482e-001 2.109848e+002
      endloop
   endfacet
   facet normal 0.000000e+000 1.161583e-001 -9.932307e-001
      outer loop
         vertex 3.100000e+000 -1.736482e-001 2.109848e+002
         vertex -3.100000e+000 -1.736482e-001 2.109848e+002
         vertex 3.100000e+000 -2.449294e-016 2.110000e+002
      endloop
   endfacet
   facet normal 0.000000e+000 5.807913e-002 -9.983119e-001
      outer loop
         vertex 3.100000e+000 -2.449294e-016 2.110000e+002
         vertex -3.100000e+000 -1.736482e-001 2.109848e+002
         vertex -3.100000e+000 -2.449294e-016 2.110000e+002
      endloop
   endfacet
   facet normal 0.000000e+000 -5.807913e-002 -9.983119e-001
      outer loop
         vertex 3.100000e+000 -2.449294e-016 1.100000e+001
         vertex -3.100000e+000 -2.449294e-016 1.100000e+001
         vertex 3.100000e+000 1.736482e-001 1.098481e+001
      endloop
   endfacet
   facet normal 0.000000e+000 -1.161583e-001 -9.932307e-001
      outer loop
         vertex 3.100000e+000 1.736482e-001 1.098481e+001
         vertex -3.100000e+000 -2.449294e-016 1.100000e+001
         vertex -3.100000e+000 1.736482e-001 1.098481e+001
      endloop
   endfacet
   facet normal 0.000000e+000 -2.305519e-001 -9.730600e-001
      outer loop
         vertex 3.100000e+000 1.736482e-001 1.098481e+001
         vertex -3.100000e+000 1.736482e-001 1.098481e+001
         vertex 3.100000e+000 3.420202e-001 1.093969e+001
      endloop
   endfacet
   facet normal 0.000000e+000 -2.868663e-001 -9.579706e-001
      outer loop
         vertex 3.100000e+000 3.420202e-001 1.093969e+001
         vertex -3.100000e+000 1.736482e-001 1.098481e+001
         vertex -3.100000e+000 3.420202e-001 1.093969e+001
      endloop
   endfacet
   facet normal 0.000000e+000 -3.960194e-001 -9.182422e-001
      outer loop
         vertex 3.100000e+000 3.420202e-001 1.093969e+001
         vertex -3.100000e+000 3.420202e-001 1.093969e+001
         vertex 3.100000e+000 5.000000e-001 1.086603e+001
      endloop
   endfacet
   facet normal 0.000000e+000 -4.488580e-001 -8.936031e-001
      outer loop
         vertex 3.100000e+000 5.000000e-001 1.086603e+001
         vertex -3.100000e+000 3.420202e-001 1.093969e+001
         vertex -3.100000e+000 5.000000e-001 1.086603e+001
      endloop
   endfacet
   facet normal 0.000000e+000 -5.494540e-001 -8.355240e-001
      outer loop
         vertex 3.100000e+000 5.000000e-001 1.086603e+001
         vertex -3.100000e+000 5.000000e-001 1.086603e+001
         vertex 3.100000e+000 6.427876e-001 1.076604e+001
      endloop
   endfacet
   facet normal 0.000000e+000 -5.972114e-001 -8.020838e-001
      outer loop
         vertex 3.100000e+000 6.427876e-001 1.076604e+001
         vertex -3.100000e+000 5.000000e-001 1.086603e+001
         vertex -3.100000e+000 6.427876e-001 1.076604e+001
      endloop
   endfacet
   facet normal 0.000000e+000 -6.861938e-001 -7.274188e-001
      outer loop
         vertex 3.100000e+000 6.427876e-001 1.076604e+001
         vertex -3.100000e+000 6.427876e-001 1.076604e+001
         vertex 3.100000e+000 7.660444e-001 1.064279e+001
      endloop
   endfacet
   facet normal 0.000000e+000 -7.274188e-001 -6.861938e-001
      outer loop
         vertex 3.100000e+000 7.660444e-001 1.064279e+001
         vertex -3.100000e+000 6.427876e-001 1.076604e+001
         vertex -3.100000e+000 7.660444e-001 1.064279e+001
      endloop
   endfacet
   facet normal 0.000000e+000 -8.020838e-001 -5.972114e-001
      outer loop
         vertex 3.100000e+000 7.660444e-001 1.064279e+001
         vertex -3.100000e+000 7.660444e-001 1.064279e+001
         vertex 3.100000e+000 8.660254e-001 1.050000e+001
      endloop
   endfacet
   facet normal 0.000000e+000 -8.355240e-001 -5.494540e-001
      outer loop
         vertex 3.100000e+000 8.660254e-001 1.050000e+001
         vertex -3.100000e+000 7.660444e-001 1.064279e+001
         vertex -3.100000e+000 8.660254e-001 1.050000e+001
      endloop
   endfacet
   facet normal 0.000000e+000 -8.936031e-001 -4.488580e-001
      outer loop
         vertex 3.100000e+000 8.660254e-001 1.050000e+001
         vertex -3.100000e+000 8.660254e-001 1.050000e+001
         vertex 3.100000e+000 9.396926e-001 1.034202e+001
      endloop
   endfacet
   facet normal 0.000000e+000 -9.182422e-001 -3.960194e-001
      outer loop
         vertex 3.100000e+000 9.396926e-001 1.034202e+001
         vertex -3.100000e+000 8.660254e-001 1.050000e+001
         vertex -3.100000e+000 9.396926e-001 1.034202e+001
      endloop
   endfacet
   facet normal 0.000000e+000 -9.579706e-001 -2.868663e-001
      outer loop
         vertex 3.100000e+000 9.396926e-001 1.034202e+001
         vertex -3.100000e+000 9.396926e-001 1.034202e+001
         vertex 3.100000e+000 9.848077e-001 1.017365e+001
      endloop
   endfacet
   facet normal 0.000000e+000 -9.730600e-001 -2.305519e-001
      outer loop
         vertex 3.100000e+000 9.848077e-001 1.017365e+001
         vertex -3.100000e+000 9.396926e-001 1.034202e+001
         vertex -3.100000e+000 9.848077e-001 1.017365e+001
      endloop
   endfacet
   facet normal 0.000000e+000 -9.932307e-001 -1.161583e-001
      outer loop
         vertex 3.100000e+000 9.848077e-001 1.017365e+001
         vertex -3.100000e+000 9.848077e-001 1.017365e+001
         vertex 3.100000e+000 1.000000e+000 1.000000e+001
      endloop
   endfacet
   facet normal 0.000000e+000 -9.983119e-001 -5.807913e-002
      outer loop
         vertex 3.100000e+000 1.000000e+000 1.000000e+001
         vertex -3.100000e+000 9.848077e-001 1.017365e+001
         vertex -3.100000e+000 1.000000e+000 1.000000e+001
      endloop
   endfacet
   facet normal 0.000000e+000 -9.983119e-001 5.807913e-002
      outer loop
         vertex 3.100000e+000 1.000000e+000 1.000000e+001
         vertex -3.100000e+000 1.000000e+000 1.000000e+001
         vertex 3.100000e+000 9.848077e-001 9.826352e+000
      endloop
   endfacet
   facet normal 0.000000e+000 -9.932307e-001 1.161583e-001
      outer loop
         vertex 3.100000e+000 9.848077e-001 9.826352e+000
         vertex -3.100000e+000 1.000000e+000 1.000000e+001
         vertex -3.100000e+000 9.848077e-001 9.826352e+000
      endloop
   endfacet
   facet normal 0.000000e+000 -9.730600e-001 2.305519e-001
      outer loop
         vertex 3.100000e+000 9.848077e-001 9.826352e+000
         vertex -3.100000e+000 9.848077e-001 9.826352e+000
         vertex 3.100000e+000 9.396926e-001 9.657980e+000
      endloop
   endfacet
   facet normal 0.000000e+000 -9.579706e-001 2.868663e-001
      outer loop
         vertex 3.100000e+000 9.396926e-001 9.657980e+000
         vertex -3.100000e+000 9.848077e-001 9.826352e+000
         vertex -3.100000e+000 9.396926e-001 9.657980e+000
      endloop
   endfacet
   facet normal 0.000000e+000 -9.182422e-001 3.960194e-001
      outer loop
         vertex 3.100000e+000 9.396926e-001 9.657980e+000
         vertex -3.100000e+000 9.396926e-001 9.657980e+000
         vertex 3.100000e+000 8.660254e-001 9.500000e+000
      endloop
   endfacet
   facet normal 0.000000e+000 -8.936031e-001 4.488580e-001
      outer loop
         vertex 3.100000e+000 8.660254e-001 9.500000e+000
         vertex -3.100000e+000 9.396926e-001 9.657980e+000
         vertex -3.100000e+000 8.660254e-001 9.500000e+000
      endloop
   endfacet
   facet normal 0.000000e+000 -8.355240e-001 5.494540e-001
      outer loop
         vertex 3.100000e+000 8.660254e-001 9.500000e+000
         vertex -3.100000e+000 8.660254e-001 9.500000e+000
         vertex 3.100000e+000 7.660444e-001 9.357212e+000
      endloop
   endfacet
   facet normal 0.000000e+000 -8.020838e-001 5.972114e-001
      outer loop
         vertex 3.100000e+000 7.660444e-001 9.357212e+000
         vertex -3.100000e+000 8.660254e-001 9.500000e+000
         vertex -3.100000e+000 7.660444e-001 9.357212e+000
      endloop
   endfacet
   facet normal 0.000000e+000 -7.274188e-001 6.861938e-001
      outer loop
         vertex 3.100000e+000 7.660444e-001 9.357212e+000
         vertex -3.100000e+000 7.660444e-001 9.357212e+000
         vertex 3.100000e+000 6.427876e-001 9.233955e+000
      endloop
   endfacet
   facet normal 0.000000e+000 -6.861938e-001 7.274188e-001
      outer loop
         vertex 3.100000e+000 6.427876e-001 9.233955e+000
         vertex -3.100000e+000 7.660444e-001 9.357212e+000
         vertex -3.100000e+000 6.427876e-001 9.233955e+000
      endloop
   endfacet
   facet normal 0.000000e+000 -5.972114e-001 8.020838e-001
      outer loop
         vertex 3.100000e+000 6.427876e-001 9.233955e+000
         vertex -3.100000e+000 6.427876e-001 9.233955e+000
         vertex 3.100000e+000 5.000000e-001 9.133975e+000
      endloop
   endfacet
   facet normal 0.000000e+000 -5.494540e-001 8.355240e-001
      outer loop
         vertex 3.100000e+000 5.000000e-001 9.133975e+000
         vertex -3.100000e+000 6.427876e-001 9.233955e+000
         vertex -3.100000e+000 5.000000e-001 9.133975e+000
      endloop
   endfacet
   facet normal 0.000000e+000 -4.488580e-001 8.936031e-001
      outer loop
         vertex 3.100000e+000 5.000000e-001 9.133975e+000
         vertex -3.100000e+000 5.000000e-001 9.133975e+000
         vertex 3.100000e+000 3.420202e-001 9.060308e+000
      endloop
   endfacet
   facet normal 0.000000e+000 -3.960194e-001 9.182422e-001
      outer loop
         vertex 3.100000e+000 3.420202e-001 9.060308e+000
         vertex -3.100000e+000 5.000000e-001 9.133975e+000
         vertex -3.100000e+000 3.420202e-001 9.060308e+000
      endloop
   endfacet
   facet normal 0.000000e+000 -2.868663e-001 9.579706e-001
      outer loop
         vertex 3.100000e+000 3.420202e-001 9.060308e+000
         vertex -3.100000e+000 3.420202e-001 9.060308e+000
         vertex 3.100000e+000 1.736482e-001 9.015192e+000
      endloop
   endfacet
   facet normal 0.000000e+000 -2.305519e-001 9.730600e-001
      outer loop
         vertex 3.100000e+000 1.736482e-001 9.015192e+000
         vertex -3.100000e+000 3.420202e-001 9.060308e+000
         vertex -3.100000e+000 1.736482e-001 9.015192e+000
      endloop
   endfacet
   facet normal 0.000000e+000 -1.161583e-001 9.932307e-001
      outer loop
         vertex 3.100000e+000 1.736482e-001 9.015192e+000
         vertex -3.100000e+000 1.736482e-001 9.015192e+000
         vertex 3.100000e+000 1.224647e-016 9.000000e+000
      endloop
   endfacet
   facet normal 0.000000e+000 -5.807913e-002 9.983119e-001
      outer loop
         vertex 3.100000e+000 1.224647e-016 9.000000e+000
         vertex -3.100000e+000 1.736482e-001 9.015192e+000
         vertex -3.100000e+000 1.224647e-016 9.000000e+000
      endloop
   endfacet
   facet normal 0.000000e+000 5.807913e-002 9.983119e-001
      outer loop
         vertex 3.100000e+000 1.224647e-016 9.000000e+000
         vertex -3.100000e+000 1.224647e-016 9.000000e+000
         vertex 3.100000e+000 -1.736482e-001 9.015192e+000
      endloop
   endfacet
   facet normal 0.000000e+000 1.161583e-001 9.932307e-001
      outer loop
         vertex 3.100000e+000 -1.736482e-001 9.015192e+000
         vertex -3.100000e+000 1.224647e-016 9.000000e+000
         vertex -3.100000e+000 -1.736482e-001 9.015192e+000
      endloop
   endfacet
   facet normal 0.000000e+000 2.305519e-001 9.730600e-001
      outer loop
         vertex 3.100000e+000 -1.736482e-001 9.015192e+000
         vertex -3.100000e+000 -1.736482e-001 9.015192e+000
         vertex 3.100000e+000 -3.420202e-001 9.060308e+000
      endloop
   endfacet
   facet normal 0.000000e+000 2.868663e-001 9.579706e-001
      outer loop
         vertex 3.100000e+000 -3.420202e-001 9.060308e+000
         vertex -3.100000e+000 -1.736482e-001 9.015192e+000
         vertex -3.100000e+000 -3.420202e-001 9.060308e+000
      endloop
   endfacet
   facet normal 0.000000e+000 3.960194e-001 9.182422e-001
      outer loop
         vertex 3.100000e+000 -3.420202e-001 9.060308e+000
         vertex -3.100000e+000 -3.420202e-001 9.060308e+000
         vertex 3.100000e+000 -5.000000e-001 9.133975e+000
      endloop
   endfacet
   facet normal 0.000000e+000 4.488580e-001 8.936031e-001
      outer loop
         vertex 3.100000e+000 -5.000000e-001 9.133975e+000
         vertex -3.100000e+000 -3.420202e-001 9.060308e+000
         vertex -3.100000e+000 -5.000000e-001 9.133975e+000
      endloop
   endfacet
   facet normal 0.000000e+000 5.494540e-001 8.355240e-001
      outer loop
         vertex 3.100000e+000 -5.000000e-001 9.133975e+000
         vertex -3.100000e+000 -5.000000e-001 9.133975e+000
         vertex 3.100000e+000 -6.427876e-001 9.233955e+000
      endloop
   endfacet
   facet normal 0.000000e+000 5.972114e-001 8.020838e-001
      outer loop
         vertex 3.100000e+000 -6.427876e-001 9.233955e+000
         vertex -3.100000e+000 -5.000000e-001 9.133975e+000
         vertex -3.100000e+000 -6.427876e-001 9.233955e+000
      endloop
   endfacet
   facet normal 0.000000e+000 6.861938e-001 7.274188e-001
      outer loop
         vertex 3.100000e+000 -6.427876e-001 9.233955e+000
         vertex -3.100000e+000 -6.427876e-001 9.233955e+000
         vertex 3.100000e+000 -7.660444e-001 9.357212e+000
      endloop
   endfacet
   facet normal 0.000000e+000 7.274188e-001 6.861938e-001
      outer loop
         vertex 3.100000e+000 -7.660444e-001 9.357212e+000
         vertex -3.100000e+000 -6.427876e-001 9.233955e+000
         vertex -3.100000e+000 -7.660444e-001 9.357212e+000
      endloop
   endfacet
   facet normal 0.000000e+000 8.020838e-001 5.972114e-001
      outer loop
         vertex 3.100000e+000 -7.660444e-001 9.357212e+000
         vertex -3.100000e+000 -7.660444e-001 9.357212e+000
         vertex 3.100000e+000 -8.660254e-001 9.500000e+000
      endloop
   endfacet
   facet normal 0.000000e+000 8.355240e-001 5.494540e-001
      outer loop
         vertex 3.100000e+000 -8.660254e-001 9.500000e+000
         vertex -3.100000e+000 -7.660444e-001 9.357212e+000
         vertex -3.100000e+000 -8.660254e-001 9.500000e+000
      endloop
   endfacet
   facet normal 0.000000e+000 8.936031e-001 4.488580e-001
      outer loop
         vertex 3.100000e+000 -8.660254e-001 9.500000e+000
         vertex -3.100000e+000 -8.660254e-001 9.500000e+000
         vertex 3.100000e+000 -9.396926e-001 9.657980e+000
      endloop
   endfacet
   facet normal 0.000000e+000 9.182422e-001 3.960194e-001
      outer loop
         vertex 3.100000e+000 -9.396926e-001 9.657980e+000
         vertex -3.100000e+000 -8.660254e-001 9.500000e+000
         vertex -3.100000e+000 -9.396926e-001 9.657980e+000
      endloop
   endfacet
   facet normal 0.000000e+000 9.579706e-001 2.868663e-001
      outer loop
         vertex 3.100000e+000 -9.396926e-001 9.657980e+000
         vertex -3.100000e+000 -9.396926e-001 9.657980e+000
         vertex 3.100000e+000 -9.848077e-001 9.826352e+000
      endloop
   endfacet
   facet normal 0.000000e+000 9.730600e-001 2.305519e-001
      outer loop
         vertex 3.100000e+000 -9.848077e-001 9.826352e+000
         vertex -3.100000e+000 -9.396926e-001 9.657980e+000
         vertex -3.100000e+000 -9.848077e-001 9.826352e+000
      endloop
   endfacet
   facet normal 0.000000e+000 9.932307e-001 1.161583e-001
      outer loop
         vertex 3.100000e+000 -9.848077e-001 9.826352e+000
         vertex -3.100000e+000 -9.848077e-001 9.826352e+000
         vertex 3.100000e+000 -1.000000e+000 1.000000e+001
      endloop
   endfacet
   facet normal 0.000000e+000 9.983119e-001 5.807913e-002
      outer loop
         vertex 3.100000e+000 -1.000000e+000 1.000000e+001
         vertex -3.100000e+000 -9.848077e-001 9.826352e+000
         vertex -3.100000e+000 -1.000000e+000 1.000000e+001
      endloop
   endfacet
   facet normal 0.000000e+000 9.983119e-001 -5.807913e-002
      outer loop
         vertex 3.100000e+000 -1.000000e+000 1.000000e+001
         vertex -3.100000e+000 -1.000000e+000 1.000000e+001
         vertex 3.100000e+000 -9.848077e-001 1.017365e+001
      endloop
   endfacet
   facet normal 0.000000e+000 9.932307e-001 -1.161583e-001
      outer loop
         vertex 3.100000e+000 -9.848077e-001 1.017365e+001
         vertex -3.100000e+000 -1.000000e+000 1.000000e+001
         vertex -3.100000e+000 -9.848077e-001 1.017365e+001
      endloop
   endfacet
   facet normal 0.000000e+000 9.730600e-001 -2.305519e-001
      outer loop
         vertex 3.100000e+000 -9.848077e-001 1.017365e+001
         vertex -3.100000e+000 -9.848077e-001 1.017365e+001
         vertex 3.100000e+000 -9.396926e-001 1.034202e+001
      endloop
   endfacet
   facet normal 0.000000e+000 9.579706e-001 -2.868663e-001
      outer loop
         vertex 3.100000e+000 -9.396926e-001 1.034202e+001
         vertex -3.100000e+000 -9.848077e-001 1.017365e+001
         vertex -3.100000e+000 -9.396926e-001 1.034202e+001
      endloop
   endfacet
   facet normal 0.000000e+000 9.182422e-001 -3.960194e-001
      outer loop
         vertex 3.100000e+000 -9.396926e-001 1.034202e+001
         vertex -3.100000e+000 -9.396926e-001 1.034202e+001
         vertex 3.100000e+000 -8.660254e-001 1.050000e+001
      endloop
   endfacet
   facet normal 0.000000e+000 8.936031e-001 -4.488580e-001
      outer loop
         vertex 3.100000e+000 -8.660254e-001 1.050000e+001
         vertex -3.100000e+000 -9.396926e-001 1.034202e+001
         vertex -3.100000e+000 -8.660254e-001 1.050000e+001
      endloop
   endfacet
   facet normal 0.000000e+000 8.355240e-001 -5.494540e-001
      outer loop
         vertex 3.100000e+000 -8.660254e-001 1.050000e+001
         vertex -3.100000e+000 -8.660254e-001 1.050000e+001
         vertex 3.100000e+000 -7.660444e-001 1.064279e+001
      endloop
   endfacet
   facet normal 0.000000e+000 8.020838e-001 -5.972114e-001
      outer loop
         vertex 3.100000e+000 -7.660444e-001 1.064279e+001
         vertex -3.100000e+000 -8.660254e-001 1.050000e+001
         vertex -3.100000e+000 -7.660444e-001 1.064279e+001
      endloop
   endfacet
   facet normal 0.000000e+000 7.274188e-001 -6.861938e-001
      outer loop
         vertex 3.100000e+000 -7.660444e-001 1.064279e+001
         vertex -3.100000e+000 -7.660444e-001 1.064279e+001
         vertex 3.100000e+000 -6.427876e-001 1.076604e+001
      endloop
   endfacet
   facet normal 0.000000e+000 6.861938e-001 -7.274188e-001
      outer loop
         vertex 3.100000e+000 -6.427876e-001 1.076604e+001
         vertex -3.100000e+000 -7.660444e-001 1.064279e+001
         vertex -3.100000e+000 -6.427876e-001 1.076604e+001
      endloop
   endfacet
   facet normal 0.000000e+000 5.972114e-001 -8.020838e-001
      outer loop
         vertex 3.100000e+000 -6.427876e-001 1.076604e+001
         vertex -3.100000e+000 -6.427876e-001 1.076604e+001
         vertex 3.100000e+000 -5.000000e-001 1.086603e+001
      endloop
   endfacet
   facet normal 0.000000e+000 5.494540e-001 -8.355240e-001
      outer loop
         vertex 3.100000e+000 -5.000000e-001 1.086603e+001
         vertex -3.100000e+000 -6.427876e-001 1.076604e+001
         vertex -3.100000e+000 -5.000000e-001 1.086603e+001
      endloop
   endfacet
   facet normal 0.000000e+000 4.488580e-001 -8.936031e-001
      outer loop
         vertex 3.100000e+000 -5.000000e-001 1.086603e+001
         vertex -3.100000e+000 -5.000000e-001 1.086603e+001
         vertex 3.100000e+000 -3.420202e-001 1.093969e+001
      endloop
   endfacet
   facet normal 0.000000e+000 3.960194e-001 -9.182422e-001
      outer loop
         vertex 3.100000e+000 -3.420202e-001 1.093969e+001
         vertex -3.100000e+000 -5.000000e-001 1.086603e+001
         vertex -3.100000e+000 -3.420202e-001 1.093969e+001
      endloop
   endfacet
   facet normal 0.000000e+000 2.868663e-001 -9.579706e-001
      outer loop
         vertex 3.100000e+000 -3.420202e-001 1.093969e+001
         vertex -3.100000e+000 -3.420202e-001 1.093969e+001
         vertex 3.100000e+000 -1.736482e-001 1.098481e+001
      endloop
   endfacet
   facet normal 0.000000e+000 2.305519e-001 -9.730600e-001
      outer loop
         vertex 3.100000e+000 -1.736482e-001 1.098481e+001
         vertex -3.100000e+000 -3.420202e-001 1.093969e+001
         vertex -3.100000e+000 -1.736482e-001 1.098481e+001
      endloop
   endfacet
   facet normal 0.000000e+000 1.161583e-001 -9.932307e-001
      outer loop
         vertex 3.100000e+000 -1.736482e-001 1.098481e+001
         vertex -3.100000e+000 -1.736482e-001 1.098481e+001
         vertex 3.100000e+000 -2.449294e-016 1.100000e+001
      endloop
   endfacet
   facet normal 0.000000e+000 5.807913e-002 -9.983119e-001
      outer loop
         vertex 3.100000e+000 -2.449294e-016 1.100000e+001
         vertex -3.100000e+000 -1.736482e-001 1.098481e+001
         vertex -3.100000e+000 -2.449294e-016 1.100000e+001
      endloop
   endfacet
endsolid