solid Truc3x145_Default_sldprt
   facet normal 1.161583e-001 0.000000e+000 -9.932307e-001
      outer loop
         vertex 0.000000e+000 0.000000e+000 -2.000000e+000
         vertex 3.472964e-001 1.450000e+002 -1.969615e+000
         vertex 3.472964e-001 0.000000e+000 -1.969615e+000
      endloop
   endfacet
   facet normal 2.305519e-001 0.000000e+000 -9.730600e-001
      outer loop
         vertex 3.472964e-001 0.000000e+000 -1.969615e+000
         vertex 3.472964e-001 1.450000e+002 -1.969615e+000
         vertex 6.840403e-001 1.450000e+002 -1.879385e+000
      endloop
   endfacet
   facet normal 2.868663e-001 0.000000e+000 -9.579706e-001
      outer loop
         vertex 3.472964e-001 0.000000e+000 -1.969615e+000
         vertex 6.840403e-001 1.450000e+002 -1.879385e+000
         vertex 6.840403e-001 0.000000e+000 -1.879385e+000
      endloop
   endfacet
   facet normal 3.960194e-001 0.000000e+000 -9.182422e-001
      outer loop
         vertex 6.840403e-001 0.000000e+000 -1.879385e+000
         vertex 6.840403e-001 1.450000e+002 -1.879385e+000
         vertex 1.000000e+000 1.450000e+002 -1.732051e+000
      endloop
   endfacet
   facet normal 4.488580e-001 0.000000e+000 -8.936031e-001
      outer loop
         vertex 6.840403e-001 0.000000e+000 -1.879385e+000
         vertex 1.000000e+000 1.450000e+002 -1.732051e+000
         vertex 1.000000e+000 0.000000e+000 -1.732051e+000
      endloop
   endfacet
   facet normal 5.494540e-001 0.000000e+000 -8.355240e-001
      outer loop
         vertex 1.000000e+000 0.000000e+000 -1.732051e+000
         vertex 1.000000e+000 1.450000e+002 -1.732051e+000
         vertex 1.285575e+000 1.450000e+002 -1.532089e+000
      endloop
   endfacet
   facet normal 5.972114e-001 0.000000e+000 -8.020838e-001
      outer loop
         vertex 1.000000e+000 0.000000e+000 -1.732051e+000
         vertex 1.285575e+000 1.450000e+002 -1.532089e+000
         vertex 1.285575e+000 0.000000e+000 -1.532089e+000
      endloop
   endfacet
   facet normal 6.861938e-001 0.000000e+000 -7.274188e-001
      outer loop
         vertex 1.285575e+000 0.000000e+000 -1.532089e+000
         vertex 1.285575e+000 1.450000e+002 -1.532089e+000
         vertex 1.532089e+000 1.450000e+002 -1.285575e+000
      endloop
   endfacet
   facet normal 7.274188e-001 0.000000e+000 -6.861938e-001
      outer loop
         vertex 1.285575e+000 0.000000e+000 -1.532089e+000
         vertex 1.532089e+000 1.450000e+002 -1.285575e+000
         vertex 1.532089e+000 0.000000e+000 -1.285575e+000
      endloop
   endfacet
   facet normal 8.020838e-001 0.000000e+000 -5.972114e-001
      outer loop
         vertex 1.532089e+000 0.000000e+000 -1.285575e+000
         vertex 1.532089e+000 1.450000e+002 -1.285575e+000
         vertex 1.732051e+000 1.450000e+002 -1.000000e+000
      endloop
   endfacet
   facet normal 8.355240e-001 0.000000e+000 -5.494540e-001
      outer loop
         vertex 1.532089e+000 0.000000e+000 -1.285575e+000
         vertex 1.732051e+000 1.450000e+002 -1.000000e+000
         vertex 1.732051e+000 0.000000e+000 -1.000000e+000
      endloop
   endfacet
   facet normal 8.936031e-001 0.000000e+000 -4.488580e-001
      outer loop
         vertex 1.732051e+000 0.000000e+000 -1.000000e+000
         vertex 1.732051e+000 1.450000e+002 -1.000000e+000
         vertex 1.879385e+000 1.450000e+002 -6.840403e-001
      endloop
   endfacet
   facet normal 9.182422e-001 0.000000e+000 -3.960194e-001
      outer loop
         vertex 1.732051e+000 0.000000e+000 -1.000000e+000
         vertex 1.879385e+000 1.450000e+002 -6.840403e-001
         vertex 1.879385e+000 0.000000e+000 -6.840403e-001
      endloop
   endfacet
   facet normal 9.579706e-001 0.000000e+000 -2.868663e-001
      outer loop
         vertex 1.879385e+000 0.000000e+000 -6.840403e-001
         vertex 1.879385e+000 1.450000e+002 -6.840403e-001
         vertex 1.969615e+000 1.450000e+002 -3.472964e-001
      endloop
   endfacet
   facet normal 9.730600e-001 0.000000e+000 -2.305519e-001
      outer loop
         vertex 1.879385e+000 0.000000e+000 -6.840403e-001
         vertex 1.969615e+000 1.450000e+002 -3.472964e-001
         vertex 1.969615e+000 0.000000e+000 -3.472964e-001
      endloop
   endfacet
   facet normal 9.932307e-001 0.000000e+000 -1.161583e-001
      outer loop
         vertex 1.969615e+000 0.000000e+000 -3.472964e-001
         vertex 1.969615e+000 1.450000e+002 -3.472964e-001
         vertex 2.000000e+000 1.450000e+002 -1.224647e-016
      endloop
   endfacet
   facet normal 9.983119e-001 0.000000e+000 -5.807913e-002
      outer loop
         vertex 1.969615e+000 0.000000e+000 -3.472964e-001
         vertex 2.000000e+000 1.450000e+002 -1.224647e-016
         vertex 2.000000e+000 0.000000e+000 -1.224647e-016
      endloop
   endfacet
   facet normal 9.983119e-001 0.000000e+000 5.807913e-002
      outer loop
         vertex 2.000000e+000 0.000000e+000 -1.224647e-016
         vertex 2.000000e+000 1.450000e+002 -1.224647e-016
         vertex 1.969615e+000 1.450000e+002 3.472964e-001
      endloop
   endfacet
   facet normal 9.932307e-001 0.000000e+000 1.161583e-001
      outer loop
         vertex 2.000000e+000 0.000000e+000 -1.224647e-016
         vertex 1.969615e+000 1.450000e+002 3.472964e-001
         vertex 1.969615e+000 0.000000e+000 3.472964e-001
      endloop
   endfacet
   facet normal 9.730600e-001 0.000000e+000 2.305519e-001
      outer loop
         vertex 1.969615e+000 0.000000e+000 3.472964e-001
         vertex 1.969615e+000 1.450000e+002 3.472964e-001
         vertex 1.879385e+000 1.450000e+002 6.840403e-001
      endloop
   endfacet
   facet normal 9.579706e-001 0.000000e+000 2.868663e-001
      outer loop
         vertex 1.969615e+000 0.000000e+000 3.472964e-001
         vertex 1.879385e+000 1.450000e+002 6.840403e-001
         vertex 1.879385e+000 0.000000e+000 6.840403e-001
      endloop
   endfacet
   facet normal 9.182422e-001 0.000000e+000 3.960194e-001
      outer loop
         vertex 1.879385e+000 0.000000e+000 6.840403e-001
         vertex 1.879385e+000 1.450000e+002 6.840403e-001
         vertex 1.732051e+000 1.450000e+002 1.000000e+000
      endloop
   endfacet
   facet normal 8.936031e-001 0.000000e+000 4.488580e-001
      outer loop
         vertex 1.879385e+000 0.000000e+000 6.840403e-001
         vertex 1.732051e+000 1.450000e+002 1.000000e+000
         vertex 1.732051e+000 0.000000e+000 1.000000e+000
      endloop
   endfacet
   facet normal 8.355240e-001 0.000000e+000 5.494540e-001
      outer loop
         vertex 1.732051e+000 0.000000e+000 1.000000e+000
         vertex 1.732051e+000 1.450000e+002 1.000000e+000
         vertex 1.532089e+000 1.450000e+002 1.285575e+000
      endloop
   endfacet
   facet normal 8.020838e-001 0.000000e+000 5.972114e-001
      outer loop
         vertex 1.732051e+000 0.000000e+000 1.000000e+000
         vertex 1.532089e+000 1.450000e+002 1.285575e+000
         vertex 1.532089e+000 0.000000e+000 1.285575e+000
      endloop
   endfacet
   facet normal 7.274188e-001 0.000000e+000 6.861938e-001
      outer loop
         vertex 1.532089e+000 0.000000e+000 1.285575e+000
         vertex 1.532089e+000 1.450000e+002 1.285575e+000
         vertex 1.285575e+000 1.450000e+002 1.532089e+000
      endloop
   endfacet
   facet normal 6.861938e-001 0.000000e+000 7.274188e-001
      outer loop
         vertex 1.532089e+000 0.000000e+000 1.285575e+000
         vertex 1.285575e+000 1.450000e+002 1.532089e+000
         vertex 1.285575e+000 0.000000e+000 1.532089e+000
      endloop
   endfacet
   facet normal 5.972114e-001 0.000000e+000 8.020838e-001
      outer loop
         vertex 1.285575e+000 0.000000e+000 1.532089e+000
         vertex 1.285575e+000 1.450000e+002 1.532089e+000
         vertex 1.000000e+000 1.450000e+002 1.732051e+000
      endloop
   endfacet
   facet normal 5.494540e-001 0.000000e+000 8.355240e-001
      outer loop
         vertex 1.285575e+000 0.000000e+000 1.532089e+000
         vertex 1.000000e+000 1.450000e+002 1.732051e+000
         vertex 1.000000e+000 0.000000e+000 1.732051e+000
      endloop
   endfacet
   facet normal 4.488580e-001 0.000000e+000 8.936031e-001
      outer loop
         vertex 1.000000e+000 0.000000e+000 1.732051e+000
         vertex 1.000000e+000 1.450000e+002 1.732051e+000
         vertex 6.840403e-001 1.450000e+002 1.879385e+000
      endloop
   endfacet
   facet normal 3.960194e-001 0.000000e+000 9.182422e-001
      outer loop
         vertex 1.000000e+000 0.000000e+000 1.732051e+000
         vertex 6.840403e-001 1.450000e+002 1.879385e+000
         vertex 6.840403e-001 0.000000e+000 1.879385e+000
      endloop
   endfacet
   facet normal 2.868663e-001 0.000000e+000 9.579706e-001
      outer loop
         vertex 6.840403e-001 0.000000e+000 1.879385e+000
         vertex 6.840403e-001 1.450000e+002 1.879385e+000
         vertex 3.472964e-001 1.450000e+002 1.969615e+000
      endloop
   endfacet
   facet normal 2.305519e-001 0.000000e+000 9.730600e-001
      outer loop
         vertex 6.840403e-001 0.000000e+000 1.879385e+000
         vertex 3.472964e-001 1.450000e+002 1.969615e+000
         vertex 3.472964e-001 0.000000e+000 1.969615e+000
      endloop
   endfacet
   facet normal 1.161583e-001 0.000000e+000 9.932307e-001
      outer loop
         vertex 3.472964e-001 0.000000e+000 1.969615e+000
         vertex 3.472964e-001 1.450000e+002 1.969615e+000
         vertex 2.449294e-016 1.450000e+002 2.000000e+000
      endloop
   endfacet
   facet normal 5.807913e-002 0.000000e+000 9.983119e-001
      outer loop
         vertex 3.472964e-001 0.000000e+000 1.969615e+000
         vertex 2.449294e-016 1.450000e+002 2.000000e+000
         vertex 2.449294e-016 0.000000e+000 2.000000e+000
      endloop
   endfacet
   facet normal -5.807913e-002 0.000000e+000 9.983119e-001
      outer loop
         vertex 2.449294e-016 0.000000e+000 2.000000e+000
         vertex 2.449294e-016 1.450000e+002 2.000000e+000
         vertex -3.472964e-001 1.450000e+002 1.969615e+000
      endloop
   endfacet
   facet normal -1.161583e-001 0.000000e+000 9.932307e-001
      outer loop
         vertex 2.449294e-016 0.000000e+000 2.000000e+000
         vertex -3.472964e-001 1.450000e+002 1.969615e+000
         vertex -3.472964e-001 0.000000e+000 1.969615e+000
      endloop
   endfacet
   facet normal -2.305519e-001 0.000000e+000 9.730600e-001
      outer loop
         vertex -3.472964e-001 0.000000e+000 1.969615e+000
         vertex -3.472964e-001 1.450000e+002 1.969615e+000
         vertex -6.840403e-001 1.450000e+002 1.879385e+000
      endloop
   endfacet
   facet normal -2.868663e-001 0.000000e+000 9.579706e-001
      outer loop
         vertex -3.472964e-001 0.000000e+000 1.969615e+000
         vertex -6.840403e-001 1.450000e+002 1.879385e+000
         vertex -6.840403e-001 0.000000e+000 1.879385e+000
      endloop
   endfacet
   facet normal -3.960194e-001 0.000000e+000 9.182422e-001
      outer loop
         vertex -6.840403e-001 0.000000e+000 1.879385e+000
         vertex -6.840403e-001 1.450000e+002 1.879385e+000
         vertex -1.000000e+000 1.450000e+002 1.732051e+000
      endloop
   endfacet
   facet normal -4.488580e-001 0.000000e+000 8.936031e-001
      outer loop
         vertex -6.840403e-001 0.000000e+000 1.879385e+000
         vertex -1.000000e+000 1.450000e+002 1.732051e+000
         vertex -1.000000e+000 0.000000e+000 1.732051e+000
      endloop
   endfacet
   facet normal -5.494540e-001 0.000000e+000 8.355240e-001
      outer loop
         vertex -1.000000e+000 0.000000e+000 1.732051e+000
         vertex -1.000000e+000 1.450000e+002 1.732051e+000
         vertex -1.285575e+000 1.450000e+002 1.532089e+000
      endloop
   endfacet
   facet normal -5.972114e-001 0.000000e+000 8.020838e-001
      outer loop
         vertex -1.000000e+000 0.000000e+000 1.732051e+000
         vertex -1.285575e+000 1.450000e+002 1.532089e+000
         vertex -1.285575e+000 0.000000e+000 1.532089e+000
      endloop
   endfacet
   facet normal -6.861938e-001 0.000000e+000 7.274188e-001
      outer loop
         vertex -1.285575e+000 0.000000e+000 1.532089e+000
         vertex -1.285575e+000 1.450000e+002 1.532089e+000
         vertex -1.532089e+000 1.450000e+002 1.285575e+000
      endloop
   endfacet
   facet normal -7.274188e-001 0.000000e+000 6.861938e-001
      outer loop
         vertex -1.285575e+000 0.000000e+000 1.532089e+000
         vertex -1.532089e+000 1.450000e+002 1.285575e+000
         vertex -1.532089e+000 0.000000e+000 1.285575e+000
      endloop
   endfacet
   facet normal -8.020838e-001 0.000000e+000 5.972114e-001
      outer loop
         vertex -1.532089e+000 0.000000e+000 1.285575e+000
         vertex -1.532089e+000 1.450000e+002 1.285575e+000
         vertex -1.732051e+000 1.450000e+002 1.000000e+000
      endloop
   endfacet
   facet normal -8.355240e-001 0.000000e+000 5.494540e-001
      outer loop
         vertex -1.532089e+000 0.000000e+000 1.285575e+000
         vertex -1.732051e+000 1.450000e+002 1.000000e+000
         vertex -1.732051e+000 0.000000e+000 1.000000e+000
      endloop
   endfacet
   facet normal -8.936031e-001 0.000000e+000 4.488580e-001
      outer loop
         vertex -1.732051e+000 0.000000e+000 1.000000e+000
         vertex -1.732051e+000 1.450000e+002 1.000000e+000
         vertex -1.879385e+000 1.450000e+002 6.840403e-001
      endloop
   endfacet
   facet normal -9.182422e-001 0.000000e+000 3.960194e-001
      outer loop
         vertex -1.732051e+000 0.000000e+000 1.000000e+000
         vertex -1.879385e+000 1.450000e+002 6.840403e-001
         vertex -1.879385e+000 0.000000e+000 6.840403e-001
      endloop
   endfacet
   facet normal -9.579706e-001 0.000000e+000 2.868663e-001
      outer loop
         vertex -1.879385e+000 0.000000e+000 6.840403e-001
         vertex -1.879385e+000 1.450000e+002 6.840403e-001
         vertex -1.969615e+000 1.450000e+002 3.472964e-001
      endloop
   endfacet
   facet normal -9.730600e-001 0.000000e+000 2.305519e-001
      outer loop
         vertex -1.879385e+000 0.000000e+000 6.840403e-001
         vertex -1.969615e+000 1.450000e+002 3.472964e-001
         vertex -1.969615e+000 0.000000e+000 3.472964e-001
      endloop
   endfacet
   facet normal -9.932307e-001 0.000000e+000 1.161583e-001
      outer loop
         vertex -1.969615e+000 0.000000e+000 3.472964e-001
         vertex -1.969615e+000 1.450000e+002 3.472964e-001
         vertex -2.000000e+000 1.450000e+002 3.673940e-016
      endloop
   endfacet
   facet normal -9.983119e-001 0.000000e+000 5.807913e-002
      outer loop
         vertex -1.969615e+000 0.000000e+000 3.472964e-001
         vertex -2.000000e+000 1.450000e+002 3.673940e-016
         vertex -2.000000e+000 0.000000e+000 3.673940e-016
      endloop
   endfacet
   facet normal -9.983119e-001 0.000000e+000 -5.807913e-002
      outer loop
         vertex -2.000000e+000 0.000000e+000 3.673940e-016
         vertex -2.000000e+000 1.450000e+002 3.673940e-016
         vertex -1.969615e+000 1.450000e+002 -3.472964e-001
      endloop
   endfacet
   facet normal -9.932307e-001 0.000000e+000 -1.161583e-001
      outer loop
         vertex -2.000000e+000 0.000000e+000 3.673940e-016
         vertex -1.969615e+000 1.450000e+002 -3.472964e-001
         vertex -1.969615e+000 0.000000e+000 -3.472964e-001
      endloop
   endfacet
   facet normal -9.730600e-001 0.000000e+000 -2.305519e-001
      outer loop
         vertex -1.969615e+000 0.000000e+000 -3.472964e-001
         vertex -1.969615e+000 1.450000e+002 -3.472964e-001
         vertex -1.879385e+000 1.450000e+002 -6.840403e-001
      endloop
   endfacet
   facet normal -9.579706e-001 0.000000e+000 -2.868663e-001
      outer loop
         vertex -1.969615e+000 0.000000e+000 -3.472964e-001
         vertex -1.879385e+000 1.450000e+002 -6.840403e-001
         vertex -1.879385e+000 0.000000e+000 -6.840403e-001
      endloop
   endfacet
   facet normal -9.182422e-001 0.000000e+000 -3.960194e-001
      outer loop
         vertex -1.879385e+000 0.000000e+000 -6.840403e-001
         vertex -1.879385e+000 1.450000e+002 -6.840403e-001
         vertex -1.732051e+000 1.450000e+002 -1.000000e+000
      endloop
   endfacet
   facet normal -8.936031e-001 0.000000e+000 -4.488580e-001
      outer loop
         vertex -1.879385e+000 0.000000e+000 -6.840403e-001
         vertex -1.732051e+000 1.450000e+002 -1.000000e+000
         vertex -1.732051e+000 0.000000e+000 -1.000000e+000
      endloop
   endfacet
   facet normal -8.355240e-001 0.000000e+000 -5.494540e-001
      outer loop
         vertex -1.732051e+000 0.000000e+000 -1.000000e+000
         vertex -1.732051e+000 1.450000e+002 -1.000000e+000
         vertex -1.532089e+000 1.450000e+002 -1.285575e+000
      endloop
   endfacet
   facet normal -8.020838e-001 0.000000e+000 -5.972114e-001
      outer loop
         vertex -1.732051e+000 0.000000e+000 -1.000000e+000
         vertex -1.532089e+000 1.450000e+002 -1.285575e+000
         vertex -1.532089e+000 0.000000e+000 -1.285575e+000
      endloop
   endfacet
   facet normal -7.274188e-001 0.000000e+000 -6.861938e-001
      outer loop
         vertex -1.532089e+000 0.000000e+000 -1.285575e+000
         vertex -1.532089e+000 1.450000e+002 -1.285575e+000
         vertex -1.285575e+000 1.450000e+002 -1.532089e+000
      endloop
   endfacet
   facet normal -6.861938e-001 0.000000e+000 -7.274188e-001
      outer loop
         vertex -1.532089e+000 0.000000e+000 -1.285575e+000
         vertex -1.285575e+000 1.450000e+002 -1.532089e+000
         vertex -1.285575e+000 0.000000e+000 -1.532089e+000
      endloop
   endfacet
   facet normal -5.972114e-001 0.000000e+000 -8.020838e-001
      outer loop
         vertex -1.285575e+000 0.000000e+000 -1.532089e+000
         vertex -1.285575e+000 1.450000e+002 -1.532089e+000
         vertex -1.000000e+000 1.450000e+002 -1.732051e+000
      endloop
   endfacet
   facet normal -5.494540e-001 0.000000e+000 -8.355240e-001
      outer loop
         vertex -1.285575e+000 0.000000e+000 -1.532089e+000
         vertex -1.000000e+000 1.450000e+002 -1.732051e+000
         vertex -1.000000e+000 0.000000e+000 -1.732051e+000
      endloop
   endfacet
   facet normal -4.488580e-001 0.000000e+000 -8.936031e-001
      outer loop
         vertex -1.000000e+000 0.000000e+000 -1.732051e+000
         vertex -1.000000e+000 1.450000e+002 -1.732051e+000
         vertex -6.840403e-001 1.450000e+002 -1.879385e+000
      endloop
   endfacet
   facet normal -3.960194e-001 0.000000e+000 -9.182422e-001
      outer loop
         vertex -1.000000e+000 0.000000e+000 -1.732051e+000
         vertex -6.840403e-001 1.450000e+002 -1.879385e+000
         vertex -6.840403e-001 0.000000e+000 -1.879385e+000
      endloop
   endfacet
   facet normal -2.868663e-001 0.000000e+000 -9.579706e-001
      outer loop
         vertex -6.840403e-001 0.000000e+000 -1.879385e+000
         vertex -6.840403e-001 1.450000e+002 -1.879385e+000
         vertex -3.472964e-001 1.450000e+002 -1.969615e+000
      endloop
   endfacet
   facet normal -2.305519e-001 0.000000e+000 -9.730600e-001
      outer loop
         vertex -6.840403e-001 0.000000e+000 -1.879385e+000
         vertex -3.472964e-001 1.450000e+002 -1.969615e+000
         vertex -3.472964e-001 0.000000e+000 -1.969615e+000
      endloop
   endfacet
   facet normal -1.161583e-001 0.000000e+000 -9.932307e-001
      outer loop
         vertex -3.472964e-001 0.000000e+000 -1.969615e+000
         vertex -3.472964e-001 1.450000e+002 -1.969615e+000
         vertex 0.000000e+000 1.450000e+002 -2.000000e+000
      endloop
   endfacet
   facet normal -5.807913e-002 0.000000e+000 -9.983119e-001
      outer loop
         vertex -3.472964e-001 0.000000e+000 -1.969615e+000
         vertex 0.000000e+000 1.450000e+002 -2.000000e+000
         vertex 0.000000e+000 0.000000e+000 -2.000000e+000
      endloop
   endfacet
   facet normal 5.807913e-002 0.000000e+000 -9.983119e-001
      outer loop
         vertex 0.000000e+000 0.000000e+000 -2.000000e+000
         vertex 0.000000e+000 1.450000e+002 -2.000000e+000
         vertex 3.472964e-001 1.450000e+002 -1.969615e+000
      endloop
   endfacet
   facet normal 0.000000e+000 1.000000e+000 0.000000e+000
      outer loop
         vertex -6.840403e-001 1.450000e+002 1.879385e+000
         vertex -3.472964e-001 1.450000e+002 1.969615e+000
         vertex 0.000000e+000 1.450000e+002 0.000000e+000
      endloop
   endfacet
   facet normal 0.000000e+000 1.000000e+000 0.000000e+000
      outer loop
         vertex 0.000000e+000 1.450000e+002 0.000000e+000
         vertex -3.472964e-001 1.450000e+002 1.969615e+000
         vertex 2.449294e-016 1.450000e+002 2.000000e+000
      endloop
   endfacet
   facet normal 0.000000e+000 1.000000e+000 0.000000e+000
      outer loop
         vertex 0.000000e+000 1.450000e+002 0.000000e+000
         vertex 2.449294e-016 1.450000e+002 2.000000e+000
         vertex 3.472964e-001 1.450000e+002 1.969615e+000
      endloop
   endfacet
   facet normal 0.000000e+000 1.000000e+000 0.000000e+000
      outer loop
         vertex -1.532089e+000 1.450000e+002 1.285575e+000
         vertex -1.285575e+000 1.450000e+002 1.532089e+000
         vertex 0.000000e+000 1.450000e+002 0.000000e+000
      endloop
   endfacet
   facet normal 0.000000e+000 1.000000e+000 0.000000e+000
      outer loop
         vertex 0.000000e+000 1.450000e+002 0.000000e+000
         vertex -1.285575e+000 1.450000e+002 1.532089e+000
         vertex -1.000000e+000 1.450000e+002 1.732051e+000
      endloop
   endfacet
   facet normal 0.000000e+000 1.000000e+000 0.000000e+000
      outer loop
         vertex 0.000000e+000 1.450000e+002 0.000000e+000
         vertex -1.000000e+000 1.450000e+002 1.732051e+000
         vertex -6.840403e-001 1.450000e+002 1.879385e+000
      endloop
   endfacet
   facet normal 0.000000e+000 1.000000e+000 0.000000e+000
      outer loop
         vertex -1.969615e+000 1.450000e+002 3.472964e-001
         vertex -1.879385e+000 1.450000e+002 6.840403e-001
         vertex 0.000000e+000 1.450000e+002 0.000000e+000
      endloop
   endfacet
   facet normal 0.000000e+000 1.000000e+000 0.000000e+000
      outer loop
         vertex 0.000000e+000 1.450000e+002 0.000000e+000
         vertex -1.879385e+000 1.450000e+002 6.840403e-001
         vertex -1.732051e+000 1.450000e+002 1.000000e+000
      endloop
   endfacet
   facet normal 0.000000e+000 1.000000e+000 0.000000e+000
      outer loop
         vertex 0.000000e+000 1.450000e+002 0.000000e+000
         vertex -1.732051e+000 1.450000e+002 1.000000e+000
         vertex -1.532089e+000 1.450000e+002 1.285575e+000
      endloop
   endfacet
   facet normal 0.000000e+000 1.000000e+000 0.000000e+000
      outer loop
         vertex -1.879385e+000 1.450000e+002 -6.840403e-001
         vertex -1.969615e+000 1.450000e+002 -3.472964e-001
         vertex 0.000000e+000 1.450000e+002 0.000000e+000
      endloop
   endfacet
   facet normal 0.000000e+000 1.000000e+000 0.000000e+000
      outer loop
         vertex 0.000000e+000 1.450000e+002 0.000000e+000
         vertex -1.969615e+000 1.450000e+002 -3.472964e-001
         vertex -2.000000e+000 1.450000e+002 3.673940e-016
      endloop
   endfacet
   facet normal 0.000000e+000 1.000000e+000 0.000000e+000
      outer loop
         vertex 0.000000e+000 1.450000e+002 0.000000e+000
         vertex -2.000000e+000 1.450000e+002 3.673940e-016
         vertex -1.969615e+000 1.450000e+002 3.472964e-001
      endloop
   endfacet
   facet normal 0.000000e+000 1.000000e+000 0.000000e+000
      outer loop
         vertex -1.285575e+000 1.450000e+002 -1.532089e+000
         vertex -1.532089e+000 1.450000e+002 -1.285575e+000
         vertex 0.000000e+000 1.450000e+002 0.000000e+000
      endloop
   endfacet
   facet normal 0.000000e+000 1.000000e+000 0.000000e+000
      outer loop
         vertex 0.000000e+000 1.450000e+002 0.000000e+000
         vertex -1.532089e+000 1.450000e+002 -1.285575e+000
         vertex -1.732051e+000 1.450000e+002 -1.000000e+000
      endloop
   endfacet
   facet normal 0.000000e+000 1.000000e+000 0.000000e+000
      outer loop
         vertex 0.000000e+000 1.450000e+002 0.000000e+000
         vertex -1.732051e+000 1.450000e+002 -1.000000e+000
         vertex -1.879385e+000 1.450000e+002 -6.840403e-001
      endloop
   endfacet
   facet normal 0.000000e+000 1.000000e+000 0.000000e+000
      outer loop
         vertex -3.472964e-001 1.450000e+002 -1.969615e+000
         vertex -6.840403e-001 1.450000e+002 -1.879385e+000
         vertex 0.000000e+000 1.450000e+002 0.000000e+000
      endloop
   endfacet
   facet normal 0.000000e+000 1.000000e+000 0.000000e+000
      outer loop
         vertex 0.000000e+000 1.450000e+002 0.000000e+000
         vertex -6.840403e-001 1.450000e+002 -1.879385e+000
         vertex -1.000000e+000 1.450000e+002 -1.732051e+000
      endloop
   endfacet
   facet normal 0.000000e+000 1.000000e+000 0.000000e+000
      outer loop
         vertex 0.000000e+000 1.450000e+002 0.000000e+000
         vertex -1.000000e+000 1.450000e+002 -1.732051e+000
         vertex -1.285575e+000 1.450000e+002 -1.532089e+000
      endloop
   endfacet
   facet normal 0.000000e+000 1.000000e+000 0.000000e+000
      outer loop
         vertex 6.840403e-001 1.450000e+002 -1.879385e+000
         vertex 3.472964e-001 1.450000e+002 -1.969615e+000
         vertex 0.000000e+000 1.450000e+002 0.000000e+000
      endloop
   endfacet
   facet normal 0.000000e+000 1.000000e+000 0.000000e+000
      outer loop
         vertex 0.000000e+000 1.450000e+002 0.000000e+000
         vertex 3.472964e-001 1.450000e+002 -1.969615e+000
         vertex 0.000000e+000 1.450000e+002 -2.000000e+000
      endloop
   endfacet
   facet normal 0.000000e+000 1.000000e+000 0.000000e+000
      outer loop
         vertex 0.000000e+000 1.450000e+002 0.000000e+000
         vertex 0.000000e+000 1.450000e+002 -2.000000e+000
         vertex -3.472964e-001 1.450000e+002 -1.969615e+000
      endloop
   endfacet
   facet normal 0.000000e+000 1.000000e+000 0.000000e+000
      outer loop
         vertex 1.532089e+000 1.450000e+002 -1.285575e+000
         vertex 1.285575e+000 1.450000e+002 -1.532089e+000
         vertex 0.000000e+000 1.450000e+002 0.000000e+000
      endloop
   endfacet
   facet normal 0.000000e+000 1.000000e+000 0.000000e+000
      outer loop
         vertex 0.000000e+000 1.450000e+002 0.000000e+000
         vertex 1.285575e+000 1.450000e+002 -1.532089e+000
         vertex 1.000000e+000 1.450000e+002 -1.732051e+000
      endloop
   endfacet
   facet normal 0.000000e+000 1.000000e+000 0.000000e+000
      outer loop
         vertex 0.000000e+000 1.450000e+002 0.000000e+000
         vertex 1.000000e+000 1.450000e+002 -1.732051e+000
         vertex 6.840403e-001 1.450000e+002 -1.879385e+000
      endloop
   endfacet
   facet normal 0.000000e+000 1.000000e+000 0.000000e+000
      outer loop
         vertex 1.969615e+000 1.450000e+002 -3.472964e-001
         vertex 1.879385e+000 1.450000e+002 -6.840403e-001
         vertex 0.000000e+000 1.450000e+002 0.000000e+000
      endloop
   endfacet
   facet normal 0.000000e+000 1.000000e+000 0.000000e+000
      outer loop
         vertex 0.000000e+000 1.450000e+002 0.000000e+000
         vertex 1.879385e+000 1.450000e+002 -6.840403e-001
         vertex 1.732051e+000 1.450000e+002 -1.000000e+000
      endloop
   endfacet
   facet normal 0.000000e+000 1.000000e+000 0.000000e+000
      outer loop
         vertex 0.000000e+000 1.450000e+002 0.000000e+000
         vertex 1.732051e+000 1.450000e+002 -1.000000e+000
         vertex 1.532089e+000 1.450000e+002 -1.285575e+000
      endloop
   endfacet
   facet normal 0.000000e+000 1.000000e+000 0.000000e+000
      outer loop
         vertex 1.879385e+000 1.450000e+002 6.840403e-001
         vertex 1.969615e+000 1.450000e+002 3.472964e-001
         vertex 0.000000e+000 1.450000e+002 0.000000e+000
      endloop
   endfacet
   facet normal 0.000000e+000 1.000000e+000 0.000000e+000
      outer loop
         vertex 0.000000e+000 1.450000e+002 0.000000e+000
         vertex 1.969615e+000 1.450000e+002 3.472964e-001
         vertex 2.000000e+000 1.450000e+002 -1.224647e-016
      endloop
   endfacet
   facet normal 0.000000e+000 1.000000e+000 0.000000e+000
      outer loop
         vertex 0.000000e+000 1.450000e+002 0.000000e+000
         vertex 2.000000e+000 1.450000e+002 -1.224647e-016
         vertex 1.969615e+000 1.450000e+002 -3.472964e-001
      endloop
   endfacet
   facet normal 0.000000e+000 1.000000e+000 0.000000e+000
      outer loop
         vertex 1.285575e+000 1.450000e+002 1.532089e+000
         vertex 1.532089e+000 1.450000e+002 1.285575e+000
         vertex 0.000000e+000 1.450000e+002 0.000000e+000
      endloop
   endfacet
   facet normal 0.000000e+000 1.000000e+000 0.000000e+000
      outer loop
         vertex 0.000000e+000 1.450000e+002 0.000000e+000
         vertex 1.532089e+000 1.450000e+002 1.285575e+000
         vertex 1.732051e+000 1.450000e+002 1.000000e+000
      endloop
   endfacet
   facet normal 0.000000e+000 1.000000e+000 0.000000e+000
      outer loop
         vertex 0.000000e+000 1.450000e+002 0.000000e+000
         vertex 1.732051e+000 1.450000e+002 1.000000e+000
         vertex 1.879385e+000 1.450000e+002 6.840403e-001
      endloop
   endfacet
   facet normal 0.000000e+000 1.000000e+000 0.000000e+000
      outer loop
         vertex 3.472964e-001 1.450000e+002 1.969615e+000
         vertex 6.840403e-001 1.450000e+002 1.879385e+000
         vertex 0.000000e+000 1.450000e+002 0.000000e+000
      endloop
   endfacet
   facet normal 0.000000e+000 1.000000e+000 0.000000e+000
      outer loop
         vertex 0.000000e+000 1.450000e+002 0.000000e+000
         vertex 6.840403e-001 1.450000e+002 1.879385e+000
         vertex 1.000000e+000 1.450000e+002 1.732051e+000
      endloop
   endfacet
   facet normal 0.000000e+000 1.000000e+000 0.000000e+000
      outer loop
         vertex 0.000000e+000 1.450000e+002 0.000000e+000
         vertex 1.000000e+000 1.450000e+002 1.732051e+000
         vertex 1.285575e+000 1.450000e+002 1.532089e+000
      endloop
   endfacet
   facet normal 0.000000e+000 -1.000000e+000 0.000000e+000
      outer loop
         vertex 6.840403e-001 0.000000e+000 1.879385e+000
         vertex 3.472964e-001 0.000000e+000 1.969615e+000
         vertex 0.000000e+000 0.000000e+000 0.000000e+000
      endloop
   endfacet
   facet normal 0.000000e+000 -1.000000e+000 0.000000e+000
      outer loop
         vertex 0.000000e+000 0.000000e+000 0.000000e+000
         vertex 3.472964e-001 0.000000e+000 1.969615e+000
         vertex 7.347881e-016 0.000000e+000 2.000000e+000
      endloop
   endfacet
   facet normal 0.000000e+000 -1.000000e+000 0.000000e+000
      outer loop
         vertex 0.000000e+000 0.000000e+000 0.000000e+000
         vertex 7.347881e-016 0.000000e+000 2.000000e+000
         vertex -3.472964e-001 0.000000e+000 1.969615e+000
      endloop
   endfacet
   facet normal 0.000000e+000 -1.000000e+000 0.000000e+000
      outer loop
         vertex 1.532089e+000 0.000000e+000 1.285575e+000
         vertex 1.285575e+000 0.000000e+000 1.532089e+000
         vertex 0.000000e+000 0.000000e+000 0.000000e+000
      endloop
   endfacet
   facet normal 0.000000e+000 -1.000000e+000 0.000000e+000
      outer loop
         vertex 0.000000e+000 0.000000e+000 0.000000e+000
         vertex 1.285575e+000 0.000000e+000 1.532089e+000
         vertex 1.000000e+000 0.000000e+000 1.732051e+000
      endloop
   endfacet
   facet normal 0.000000e+000 -1.000000e+000 0.000000e+000
      outer loop
         vertex 0.000000e+000 0.000000e+000 0.000000e+000
         vertex 1.000000e+000 0.000000e+000 1.732051e+000
         vertex 6.840403e-001 0.000000e+000 1.879385e+000
      endloop
   endfacet
   facet normal 0.000000e+000 -1.000000e+000 0.000000e+000
      outer loop
         vertex 1.969615e+000 0.000000e+000 3.472964e-001
         vertex 1.879385e+000 0.000000e+000 6.840403e-001
         vertex 0.000000e+000 0.000000e+000 0.000000e+000
      endloop
   endfacet
   facet normal 0.000000e+000 -1.000000e+000 0.000000e+000
      outer loop
         vertex 0.000000e+000 0.000000e+000 0.000000e+000
         vertex 1.879385e+000 0.000000e+000 6.840403e-001
         vertex 1.732051e+000 0.000000e+000 1.000000e+000
      endloop
   endfacet
   facet normal 0.000000e+000 -1.000000e+000 0.000000e+000
      outer loop
         vertex 0.000000e+000 0.000000e+000 0.000000e+000
         vertex 1.732051e+000 0.000000e+000 1.000000e+000
         vertex 1.532089e+000 0.000000e+000 1.285575e+000
      endloop
   endfacet
   facet normal 0.000000e+000 -1.000000e+000 0.000000e+000
      outer loop
         vertex 1.879385e+000 0.000000e+000 -6.840403e-001
         vertex 1.969615e+000 0.000000e+000 -3.472964e-001
         vertex 0.000000e+000 0.000000e+000 0.000000e+000
      endloop
   endfacet
   facet normal 0.000000e+000 -1.000000e+000 0.000000e+000
      outer loop
         vertex 0.000000e+000 0.000000e+000 0.000000e+000
         vertex 1.969615e+000 0.000000e+000 -3.472964e-001
         vertex 2.000000e+000 0.000000e+000 -1.224647e-016
      endloop
   endfacet
   facet normal 0.000000e+000 -1.000000e+000 0.000000e+000
      outer loop
         vertex 0.000000e+000 0.000000e+000 0.000000e+000
         vertex 2.000000e+000 0.000000e+000 -1.224647e-016
         vertex 1.969615e+000 0.000000e+000 3.472964e-001
      endloop
   endfacet
   facet normal 0.000000e+000 -1.000000e+000 0.000000e+000
      outer loop
         vertex 1.285575e+000 0.000000e+000 -1.532089e+000
         vertex 1.532089e+000 0.000000e+000 -1.285575e+000
         vertex 0.000000e+000 0.000000e+000 0.000000e+000
      endloop
   endfacet
   facet normal 0.000000e+000 -1.000000e+000 0.000000e+000
      outer loop
         vertex 0.000000e+000 0.000000e+000 0.000000e+000
         vertex 1.532089e+000 0.000000e+000 -1.285575e+000
         vertex 1.732051e+000 0.000000e+000 -1.000000e+000
      endloop
   endfacet
   facet normal 0.000000e+000 -1.000000e+000 0.000000e+000
      outer loop
         vertex 0.000000e+000 0.000000e+000 0.000000e+000
         vertex 1.732051e+000 0.000000e+000 -1.000000e+000
         vertex 1.879385e+000 0.000000e+000 -6.840403e-001
      endloop
   endfacet
   facet normal 0.000000e+000 -1.000000e+000 0.000000e+000
      outer loop
         vertex 3.472964e-001 0.000000e+000 -1.969615e+000
         vertex 6.840403e-001 0.000000e+000 -1.879385e+000
         vertex 0.000000e+000 0.000000e+000 0.000000e+000
      endloop
   endfacet
   facet normal 0.000000e+000 -1.000000e+000 0.000000e+000
      outer loop
         vertex 0.000000e+000 0.000000e+000 0.000000e+000
         vertex 6.840403e-001 0.000000e+000 -1.879385e+000
         vertex 1.000000e+000 0.000000e+000 -1.732051e+000
      endloop
   endfacet
   facet normal 0.000000e+000 -1.000000e+000 0.000000e+000
      outer loop
         vertex 0.000000e+000 0.000000e+000 0.000000e+000
         vertex 1.000000e+000 0.000000e+000 -1.732051e+000
         vertex 1.285575e+000 0.000000e+000 -1.532089e+000
      endloop
   endfacet
   facet normal 0.000000e+000 -1.000000e+000 0.000000e+000
      outer loop
         vertex -6.840403e-001 0.000000e+000 -1.879385e+000
         vertex -3.472964e-001 0.000000e+000 -1.969615e+000
         vertex 0.000000e+000 0.000000e+000 0.000000e+000
      endloop
   endfacet
   facet normal 0.000000e+000 -1.000000e+000 0.000000e+000
      outer loop
         vertex 0.000000e+000 0.000000e+000 0.000000e+000
         vertex -3.472964e-001 0.000000e+000 -1.969615e+000
         vertex 0.000000e+000 0.000000e+000 -2.000000e+000
      endloop
   endfacet
   facet normal 0.000000e+000 -1.000000e+000 0.000000e+000
      outer loop
         vertex 0.000000e+000 0.000000e+000 0.000000e+000
         vertex 0.000000e+000 0.000000e+000 -2.000000e+000
         vertex 3.472964e-001 0.000000e+000 -1.969615e+000
      endloop
   endfacet
   facet normal 0.000000e+000 -1.000000e+000 0.000000e+000
      outer loop
         vertex -1.532089e+000 0.000000e+000 -1.285575e+000
         vertex -1.285575e+000 0.000000e+000 -1.532089e+000
         vertex 0.000000e+000 0.000000e+000 0.000000e+000
      endloop
   endfacet
   facet normal 0.000000e+000 -1.000000e+000 0.000000e+000
      outer loop
         vertex 0.000000e+000 0.000000e+000 0.000000e+000
         vertex -1.285575e+000 0.000000e+000 -1.532089e+000
         vertex -1.000000e+000 0.000000e+000 -1.732051e+000
      endloop
   endfacet
   facet normal 0.000000e+000 -1.000000e+000 0.000000e+000
      outer loop
         vertex 0.000000e+000 0.000000e+000 0.000000e+000
         vertex -1.000000e+000 0.000000e+000 -1.732051e+000
         vertex -6.840403e-001 0.000000e+000 -1.879385e+000
      endloop
   endfacet
   facet normal 0.000000e+000 -1.000000e+000 0.000000e+000
      outer loop
         vertex -1.969615e+000 0.000000e+000 -3.472964e-001
         vertex -1.879385e+000 0.000000e+000 -6.840403e-001
         vertex 0.000000e+000 0.000000e+000 0.000000e+000
      endloop
   endfacet
   facet normal 0.000000e+000 -1.000000e+000 0.000000e+000
      outer loop
         vertex 0.000000e+000 0.000000e+000 0.000000e+000
         vertex -1.879385e+000 0.000000e+000 -6.840403e-001
         vertex -1.732051e+000 0.000000e+000 -1.000000e+000
      endloop
   endfacet
   facet normal 0.000000e+000 -1.000000e+000 0.000000e+000
      outer loop
         vertex 0.000000e+000 0.000000e+000 0.000000e+000
         vertex -1.732051e+000 0.000000e+000 -1.000000e+000
         vertex -1.532089e+000 0.000000e+000 -1.285575e+000
      endloop
   endfacet
   facet normal 0.000000e+000 -1.000000e+000 0.000000e+000
      outer loop
         vertex -1.879385e+000 0.000000e+000 6.840403e-001
         vertex -1.969615e+000 0.000000e+000 3.472964e-001
         vertex 0.000000e+000 0.000000e+000 0.000000e+000
      endloop
   endfacet
   facet normal 0.000000e+000 -1.000000e+000 0.000000e+000
      outer loop
         vertex 0.000000e+000 0.000000e+000 0.000000e+000
         vertex -1.969615e+000 0.000000e+000 3.472964e-001
         vertex -2.000000e+000 0.000000e+000 3.673940e-016
      endloop
   endfacet
   facet normal 0.000000e+000 -1.000000e+000 0.000000e+000
      outer loop
         vertex 0.000000e+000 0.000000e+000 0.000000e+000
         vertex -2.000000e+000 0.000000e+000 3.673940e-016
         vertex -1.969615e+000 0.000000e+000 -3.472964e-001
      endloop
   endfacet
   facet normal 0.000000e+000 -1.000000e+000 0.000000e+000
      outer loop
         vertex -1.285575e+000 0.000000e+000 1.532089e+000
         vertex -1.532089e+000 0.000000e+000 1.285575e+000
         vertex 0.000000e+000 0.000000e+000 0.000000e+000
      endloop
   endfacet
   facet normal 0.000000e+000 -1.000000e+000 0.000000e+000
      outer loop
         vertex 0.000000e+000 0.000000e+000 0.000000e+000
         vertex -1.532089e+000 0.000000e+000 1.285575e+000
         vertex -1.732051e+000 0.000000e+000 1.000000e+000
      endloop
   endfacet
   facet normal 0.000000e+000 -1.000000e+000 0.000000e+000
      outer loop
         vertex 0.000000e+000 0.000000e+000 0.000000e+000
         vertex -1.732051e+000 0.000000e+000 1.000000e+000
         vertex -1.879385e+000 0.000000e+000 6.840403e-001
      endloop
   endfacet
   facet normal 0.000000e+000 -1.000000e+000 0.000000e+000
      outer loop
         vertex -3.472964e-001 0.000000e+000 1.969615e+000
         vertex -6.840403e-001 0.000000e+000 1.879385e+000
         vertex 0.000000e+000 0.000000e+000 0.000000e+000
      endloop
   endfacet
   facet normal 0.000000e+000 -1.000000e+000 0.000000e+000
      outer loop
         vertex 0.000000e+000 0.000000e+000 0.000000e+000
         vertex -6.840403e-001 0.000000e+000 1.879385e+000
         vertex -1.000000e+000 0.000000e+000 1.732051e+000
      endloop
   endfacet
   facet normal 0.000000e+000 -1.000000e+000 0.000000e+000
      outer loop
         vertex 0.000000e+000 0.000000e+000 0.000000e+000
         vertex -1.000000e+000 0.000000e+000 1.732051e+000
         vertex -1.285575e+000 0.000000e+000 1.532089e+000
      endloop
   endfacet
endsolid